<svg viewBox="0 0 205 54" xmlns="http://www.w3.org/2000/svg">
  <g clip-path="url(#clip0_1264_260)">
    <path d="M19.4701 44.6522C17.7558 45.6217 15.0163 47.015 12.3389 47.1134C8.40949 47.2547 8.49938 43.443 8.49938 40.9111C8.49938 38.161 9.79206 37.2963 12.7712 37.2963H19.4722V44.6522H19.4701ZM28.5509 29.0951C28.5509 20.0142 25.2015 15.9949 13.8135 15.9949C9.7942 15.9949 4.80753 16.6648 1.3832 17.7071L2.49825 24.6285C5.69999 23.9586 9.27199 23.5135 12.5465 23.5135C18.3529 23.5135 19.4701 24.5279 19.4701 28.5493V30.4113H10.3271C2.95839 30.4113 0.193249 35.5735 0.193249 42.94C0.193249 49.198 3.01832 53.7373 9.64653 53.7373C13.2934 53.7373 17.1651 52.6929 20.4396 50.5356L21.1715 53.2644H28.5531V29.0951H28.5509Z" fill="currentColor"/>
    <path d="M57.5999 42.6554C55.6437 44.4617 52.4099 45.9663 49.4008 45.9663C46.0171 45.9663 44.8892 44.3119 44.8892 41.3006V28.3631C44.8892 25.0544 46.1669 23.8773 49.4778 23.8773C52.1103 23.8773 55.1943 24.3289 57.5999 24.8553V42.6554ZM35.7142 41.0738C35.7142 49.4206 39.6243 53.7844 46.9952 53.7844C51.5859 53.7844 55.3463 52.2799 58.5822 49.9471L59.5646 53.32H66.7792V0.964291L57.6042 2.24413V17.11C54.7449 16.5064 51.0594 16.057 47.8256 16.057C39.329 16.057 35.7185 20.4679 35.7185 28.5879V41.0738H35.7142Z" fill="currentColor"/>
    <path d="M194.202 29.9833V39.7362C194.202 43.8326 192.338 45.9942 187.497 45.9942C182.663 45.9942 180.801 43.8326 180.801 39.7362V29.9833C180.801 25.8891 182.663 23.7297 187.497 23.7297C192.338 23.7297 194.202 25.8891 194.202 29.9833ZM203.285 39.4409V30.283C203.285 22.8372 199.936 15.9885 187.499 15.9885C175.067 15.9885 171.72 22.8372 171.72 30.283V39.4409C171.72 46.8867 175.067 53.7375 187.499 53.7375C199.934 53.7353 203.285 46.8845 203.285 39.4409Z" fill="currentColor"/>
    <path d="M134.562 41.8357C134.211 34.4178 133.181 33.1272 122.968 30.9335C118.016 29.902 117.782 29.6901 117.645 26.7965C117.541 24.5707 118.163 23.6483 122.095 23.4642C124.914 23.3294 129.316 23.644 132.088 24.0335L132.635 16.7954C129.483 16.1255 125.087 15.8879 121.746 16.0442C111.439 16.5321 108.395 19.8708 108.738 27.1432C109.068 34.116 110.21 36.2926 119.139 38.0262C125.066 39.1583 125.562 40.2498 125.671 42.4778C125.802 45.2237 125.25 46.1397 121.241 46.3323C117.534 46.5078 113.496 46.0262 110.414 45.2793L109.476 52.2392C112.873 53.2708 118.178 53.9107 122.035 53.7267C132.941 53.213 134.893 48.8128 134.562 41.8357Z" fill="currentColor"/>
    <path d="M166.279 41.8401C165.926 34.42 164.901 33.1294 154.686 30.9336C149.733 29.9041 149.498 29.6923 149.361 26.7987C149.256 24.5729 149.883 23.6483 153.813 23.4643C156.633 23.3294 161.034 23.644 163.803 24.0336L164.355 16.7975C161.198 16.1276 156.802 15.8879 153.466 16.0442C143.154 16.5321 140.115 19.873 140.458 27.1433C140.787 34.1161 141.93 36.2927 150.857 38.0262C156.783 39.1584 157.282 40.2499 157.387 42.4778C157.517 45.2237 156.965 46.144 152.961 46.3324C149.254 46.5079 145.213 46.0263 142.129 45.2794L141.192 52.2393C144.588 53.2709 149.896 53.9108 153.753 53.731C164.657 53.2131 166.607 48.8129 166.279 41.8401Z" fill="currentColor"/>
    <path d="M83.0255 29.2556C83.0255 25.827 84.5879 23.445 89.0566 23.445C93.5232 23.445 94.5655 25.827 94.5655 29.2556V31.0427H83.0234V29.2556H83.0255ZM83.0255 40.2049V38.3408H103.203V30.5954C103.203 22.7751 100.597 15.9992 88.9817 15.9992C77.3647 15.9992 73.9404 22.4776 73.9404 30.1481V39.7576C73.9404 48.4682 77.8869 53.7566 89.2792 53.7566C93.5982 53.7566 97.2087 53.3543 101.305 51.7919L102.268 44.9947C97.4527 46.3323 93.7951 47.0428 90.2273 46.6876C84.742 46.1418 83.0255 44.5987 83.0255 40.2049Z" fill="currentColor"/>
  </g>
  <defs>
    <clipPath id="clip0_1264_260">
      <rect width="204.261" height="54" fill="currentColor" transform="translate(0.0219574)"/>
    </clipPath>
  </defs>
</svg>
