<svg xmlns="http://www.w3.org/2000/svg" viewBox="0 0 2000 400">
  <style>
    path, circle {
      fill: #000000;
    }
    @media (prefers-color-scheme: dark) {
      path, circle { fill: #ffffff; }
    }
  </style>
  <path d="M473.44 208.09c.89-.89 1.56-1.51 2-1.87.44-.36 1.11-.98 2-1.87 2.49-1.96 6.45-4.1 11.88-6.42 5.43-2.32 12.32-3.48 20.68-3.48 6.41 0 12.01.72 16.81 2.14a48.47 48.47 0 0 1 12.41 5.49 48.88 48.88 0 0 1 8.81 7.09c2.4 2.5 4.4 4.82 6.01 6.96 3.38 4.64 6.58 10.8 9.6 18.47 3.02 7.67 4.54 17.84 4.54 30.51 0 2.14-.05 4.86-.13 8.16-.09 3.3-.58 7.36-1.48 12.18a480 480 0 0 1-1.74 8.83 63 63 0 0 1-4.29 12.85 68.18 68.18 0 0 1-8.45 13.92c-3.58 4.64-8.31 8.66-14.21 12.04a52.16 52.16 0 0 1-13.54 5.75 55.41 55.41 0 0 1-14.61 2.01c-5.54 0-10.32-.67-14.35-2.01a50.36 50.36 0 0 1-10.59-4.82 41.12 41.12 0 0 1-7.64-5.89c-2.06-2.05-3.8-3.88-5.23-5.49l.81 14.18h-39.15V147.88h39.6l.27 60.21Zm1.87 81.55c1.96 5.07 4.72 9.12 8.3 12.14 4.46 3.91 9.99 5.87 16.59 5.87 8.2 0 14.94-3.38 20.2-10.14 5.26-6.76 7.89-17.6 7.89-32.54 0-5.16-.54-10.36-1.61-15.6a33.07 33.07 0 0 0-6.42-14c-1.43-1.78-3.61-3.64-6.56-5.6-2.94-1.96-7.09-2.94-12.44-2.94-4.46 0-8.03.67-10.7 2a41.17 41.17 0 0 0-6.16 3.6 27.87 27.87 0 0 0-10.17 16.4 80.91 80.91 0 0 0-1.87 19.34c0 9.25.98 16.4 2.94 21.47ZM676.29 197.92h37.47v138.89h-38.27l-.27-14.99a25.05 25.05 0 0 1-2.54 3.48c-.8.9-1.92 1.97-3.34 3.21-2.5 2.5-6.16 5-10.97 7.49-4.82 2.5-11.24 3.75-19.27 3.75-2.14 0-5.67-.31-10.57-.94-4.91-.63-9.95-2.36-15.12-5.22a45.7 45.7 0 0 1-10.84-7.89 61.66 61.66 0 0 1-10.17-12.98c-3.12-5.17-5.67-11.33-7.63-18.47-1.97-7.13-2.94-15.34-2.94-24.62 0-1.78.09-4.68.27-8.7.18-4.01.8-8.56 1.87-13.65a91.96 91.96 0 0 1 5.08-16.06 62.74 62.74 0 0 1 9.63-15.92 51.42 51.42 0 0 1 12.04-10.7 72.92 72.92 0 0 1 12.31-6.29 48.3 48.3 0 0 1 10.84-2.94c3.3-.44 6.02-.67 8.16-.67 6.6 0 11.77.98 15.52 2.94 3.75 1.97 6.6 3.84 8.56 5.62a92.43 92.43 0 0 1 4.28 4.01 20.71 20.71 0 0 1 3.48 4.55l2.41 4.01V197.9Zm-31.71 29.04c-2.23.45-4.68 1.56-7.36 3.35a24.76 24.76 0 0 0-9.23 9.5 51.47 51.47 0 0 0-4.55 11.51 47.96 47.96 0 0 0-1.61 10.3c-.09 3.04-.13 5-.13 5.89s.04 2.27.13 4.15c.09 1.87.31 4.06.67 6.56.36 2.5.94 5.18 1.74 8.03a41.1 41.1 0 0 0 3.35 8.3c3.21 5.53 6.73 9.06 10.57 10.57 3.83 1.52 7.09 2.27 9.77 2.27 5.35 0 9.99-1.69 13.92-5.08 5.53-4.46 9.1-9.9 10.7-16.32a82.2 82.2 0 0 0 2.41-20.07c0-4.64-.45-9.54-1.34-14.72a39.74 39.74 0 0 0-5.08-13.92c-.54-.54-1.3-1.38-2.27-2.54a25.7 25.7 0 0 0-3.88-3.61 25.39 25.39 0 0 0-5.49-3.21 17.68 17.68 0 0 0-7.09-1.34 16.56 16.56 0 0 0-5.22.4ZM863.35 336.82h-37.47v-15.25a41.18 41.18 0 0 1-5.08 6.16c-2.5 2.5-6.65 5.22-12.44 8.16-5.8 2.94-13.25 4.42-22.35 4.42-1.43 0-3.76-.13-7-.4s-6.79-1.07-10.68-2.41a48.79 48.79 0 0 1-11.67-6.02c-3.89-2.68-7.19-6.42-9.9-11.24a42.66 42.66 0 0 1-4.07-9.77c-.9-3.3-1.58-7-2.03-11.11-.45-4.1-.72-8.74-.82-13.92-.09-5.17-.13-11.24-.13-18.2V198.2h39.87v78.56c0 4.26.27 8.12.8 11.58a30.14 30.14 0 0 0 2.68 8.92 16.69 16.69 0 0 0 5.89 6.39 18.7 18.7 0 0 0 7.36 2.93c2.41.35 4.15.53 5.22.53 1.25 0 2.9-.18 4.95-.53 2.05-.36 4.1-1.07 6.16-2.13a20.61 20.61 0 0 0 5.89-4.79c1.87-2.13 3.35-4.97 4.42-8.52.89-3.19 1.43-7.64 1.61-13.32.18-5.68.36-12.52.54-20.5V198.2h38.27v138.62ZM928.14 220.94a74.33 74.33 0 0 1 2.66-6.02 43.47 43.47 0 0 1 5.62-8.43 29.85 29.85 0 0 1 3.88-3.75 31.64 31.64 0 0 1 3.08-2.14 22.04 22.04 0 0 1 6.02-2.94c2.23-.71 4.32-1.2 6.29-1.47a72.3 72.3 0 0 1 8.56-.67c3.03 0 5.26.18 6.69.54l-.27 35.86c-.9-.18-2.1-.36-3.61-.54a50.45 50.45 0 0 0-5.75-.27h-2.68c-1.43 0-2.86.09-4.28.27-.89.18-2.23.49-4.01.94a30.9 30.9 0 0 0-5.75 2.14 25.2 25.2 0 0 0-6.02 4.15 20.18 20.18 0 0 0-4.82 6.96 31.61 31.61 0 0 0-2.01 5.75 40.4 40.4 0 0 0-.94 6.29c-.18 2.32-.31 4.91-.4 7.76-.09 2.86-.13 6.25-.13 10.17-.18 2.68-.27 5.35-.27 8.03v53.25h-39.87V198.19h38.03v22.75ZM1069.14 197.92h37.47v138.89h-38.27l-.27-14.99a25.05 25.05 0 0 1-2.54 3.48c-.8.9-1.92 1.97-3.35 3.21-2.5 2.5-6.16 5-10.97 7.49-4.82 2.5-11.24 3.75-19.27 3.75-2.14 0-5.67-.31-10.57-.94-4.91-.63-9.95-2.36-15.12-5.22a45.7 45.7 0 0 1-10.84-7.89 61.66 61.66 0 0 1-10.17-12.98c-3.12-5.17-5.67-11.33-7.63-18.47-1.97-7.13-2.94-15.34-2.94-24.62 0-1.78.09-4.68.27-8.7.18-4.01.8-8.56 1.87-13.65a91.96 91.96 0 0 1 5.08-16.06 62.74 62.74 0 0 1 9.63-15.92 51.42 51.42 0 0 1 12.04-10.7 72.92 72.92 0 0 1 12.31-6.29 48.3 48.3 0 0 1 10.84-2.94c3.3-.44 6.02-.67 8.16-.67 6.6 0 11.77.98 15.52 2.94 3.75 1.97 6.6 3.84 8.56 5.62a92.43 92.43 0 0 1 4.28 4.01 20.71 20.71 0 0 1 3.48 4.55l2.41 4.01V197.9Zm-31.71 29.04c-2.23.45-4.68 1.56-7.36 3.35a24.76 24.76 0 0 0-9.23 9.5 51.47 51.47 0 0 0-4.55 11.51 47.96 47.96 0 0 0-1.61 10.3c-.09 3.04-.13 5-.13 5.89s.04 2.27.13 4.15c.09 1.87.31 4.06.67 6.56.36 2.5.94 5.18 1.74 8.03a41.1 41.1 0 0 0 3.35 8.3c3.21 5.53 6.73 9.06 10.57 10.57 3.83 1.52 7.09 2.27 9.77 2.27 5.35 0 9.99-1.69 13.92-5.08 5.53-4.46 9.1-9.9 10.71-16.32a82.2 82.2 0 0 0 2.41-20.07c0-4.64-.45-9.54-1.34-14.72a39.54 39.54 0 0 0-5.08-13.92c-.54-.54-1.3-1.38-2.27-2.54a25.7 25.7 0 0 0-3.88-3.61 25.39 25.39 0 0 0-5.49-3.21 17.68 17.68 0 0 0-7.09-1.34 16.56 16.56 0 0 0-5.22.4ZM1256.2 336.82h-37.47v-15.25a41.18 41.18 0 0 1-5.08 6.16c-2.5 2.5-6.65 5.22-12.44 8.16-5.8 2.94-13.25 4.42-22.35 4.42-1.43 0-3.76-.13-7-.4s-6.79-1.07-10.68-2.41a48.79 48.79 0 0 1-11.67-6.02c-3.89-2.68-7.19-6.42-9.9-11.24a42.66 42.66 0 0 1-4.07-9.77c-.9-3.3-1.58-7-2.03-11.11-.45-4.1-.72-8.74-.82-13.92-.09-5.17-.13-11.24-.13-18.2V198.2h39.87v78.56c0 4.26.27 8.12.8 11.58a30.14 30.14 0 0 0 2.68 8.92 16.69 16.69 0 0 0 5.89 6.39 18.7 18.7 0 0 0 7.36 2.93c2.41.35 4.15.53 5.22.53 1.25 0 2.9-.18 4.95-.53 2.05-.36 4.1-1.07 6.15-2.13a20.61 20.61 0 0 0 5.89-4.79c1.87-2.13 3.35-4.97 4.42-8.52.89-3.19 1.43-7.64 1.61-13.32.18-5.68.36-12.52.54-20.5V198.2h38.27v138.62ZM1322.03 216.66a81.09 81.09 0 0 1 6.84-9.63c3.13-3.92 8.1-7.13 14.9-9.63 1.25-.36 3.36-.84 6.31-1.47 2.95-.62 6.22-.94 9.8-.94 1.25 0 3.17.13 5.77.4 2.59.27 5.41.85 8.46 1.74 3.04.9 6.18 2.32 9.4 4.28a33.91 33.91 0 0 1 8.86 8.03 40.36 40.36 0 0 1 5.1 9.1c.9-1.43 1.66-2.58 2.28-3.48.63-.89 1.48-2.05 2.55-3.48 1.25-1.43 2.95-3.08 5.1-4.95s4.79-3.65 7.92-5.35a50.03 50.03 0 0 1 24.57-6.02c2.5 0 5.06.13 7.65.4 2.59.27 5.14.85 7.65 1.74 1.79.54 4.03 1.43 6.71 2.68a43.8 43.8 0 0 1 8.32 5.22 37.75 37.75 0 0 1 7.92 8.7c2.42 3.57 4.16 7.94 5.24 13.11.54 2.32.89 4.6 1.07 6.82.18 2.23.31 4.73.41 7.49.09 2.77.18 5.89.27 9.37.09 3.48.13 7.54.13 12.18v73.86h-39.87v-65.57c0-2.68-.05-5.39-.13-8.16a250.7 250.7 0 0 1-.13-8.16c-.18-1.61-.36-3.35-.53-5.22s-.44-3.52-.8-4.95a50.82 50.82 0 0 0-1.59-4.01 15.72 15.72 0 0 0-3.32-4.68 18.34 18.34 0 0 0-5.58-3.75c-2.22-.98-5.01-1.47-8.38-1.47-1.07 0-2.71.13-4.92.4-2.22.27-4.56 1.3-7.05 3.08a18.46 18.46 0 0 0-7.71 12.44c-.89 5.26-1.24 12.44-1.06 21.54v68.51h-39.88v-78.14a106.2 106.2 0 0 0-1.34-13.11c-.71-4.28-3.04-7.94-6.96-10.97a21.23 21.23 0 0 0-4.42-2.41 19.2 19.2 0 0 0-7.63-1.34c-4.46 0-8.56 1.16-12.31 3.48a18.74 18.74 0 0 0-5.75 6.42 27.8 27.8 0 0 0-2.81 8.7c-.54 3.3-.85 7.14-.94 11.51-.09 4.37-.13 9.23-.13 14.58v61.28h-39.07V198.19h39.07v18.47ZM1784.2 336.82h-39.07l1.34-137.02-36.66 137.02h-42.55l-37.22-137.02 1.63 137.02h-39.87V147.88h59.68l37.2 140.5 35.59-140.5h59.95v188.93ZM1971.52 147.88l-66.1 188.93h-39.34l-66.37-188.93h46.3l40.14 137.29 39.61-137.29h45.76Z"/>
  <g>
    <circle cx="185.2" cy="226.39" r="8.76"/>
    <circle cx="185.2" cy="262.91" r="8.76"/>
    <circle cx="185.2" cy="299.42" r="8.76"/>
    <circle cx="185.2" cy="335.93" r="8.76"/>
    <circle cx="221.72" cy="189.88" r="8.76"/>
    <circle cx="258.23" cy="189.88" r="8.76"/>
    <circle cx="294.74" cy="189.88" r="8.76"/>
    <circle cx="331.26" cy="189.88" r="8.76"/>
    <circle cx="221.72" cy="226.39" r="8.76"/>
    <circle cx="221.72" cy="262.91" r="8.76"/>
    <circle cx="221.72" cy="299.42" r="8.76"/>
    <circle cx="221.72" cy="335.93" r="8.76"/>
    <circle cx="258.23" cy="226.39" r="8.76"/>
    <circle cx="294.74" cy="226.39" r="8.76"/>
    <circle cx="331.26" cy="226.39" r="8.76"/>
    <g>
      <circle cx="185.2" cy="189.88" r="10.95"/>
      <circle cx="148.69" cy="226.39" r="10.95"/>
      <circle cx="148.69" cy="262.91" r="10.95"/>
      <circle cx="148.69" cy="299.42" r="10.95"/>
      <circle cx="148.69" cy="335.93" r="10.95"/>
      <g>
        <circle cx="331.26" cy="153.36" r="10.95"/>
        <circle cx="294.74" cy="153.36" r="10.95"/>
        <circle cx="258.23" cy="153.36" r="10.95"/>
        <circle cx="221.72" cy="153.36" r="10.95"/>
      </g>
    </g>
    <g>
      <circle cx="148.69" cy="189.88" r="13.15"/>
      <circle cx="185.2" cy="153.36" r="13.15"/>
      <circle cx="148.69" cy="153.36" r="13.15"/>
    </g>
    <g>
      <circle cx="75.66" cy="116.85" r="8.76"/>
      <circle cx="75.66" cy="153.36" r="8.76"/>
      <circle cx="75.66" cy="189.88" r="8.76"/>
      <circle cx="75.66" cy="226.39" r="8.76"/>
      <circle cx="112.17" cy="80.34" r="8.76"/>
      <circle cx="148.69" cy="80.34" r="8.76"/>
      <circle cx="185.2" cy="80.34" r="8.76"/>
      <circle cx="221.72" cy="80.34" r="8.76"/>
      <circle cx="112.17" cy="116.85" r="8.76"/>
      <circle cx="112.17" cy="153.36" r="8.76"/>
      <circle cx="112.17" cy="189.88" r="8.76"/>
      <circle cx="112.17" cy="226.39" r="8.76"/>
      <circle cx="148.69" cy="116.85" r="8.76"/>
      <circle cx="185.2" cy="116.85" r="8.76"/>
      <circle cx="221.72" cy="116.85" r="8.76"/>
      <g>
        <circle cx="75.66" cy="80.34" r="10.95"/>
        <circle cx="39.15" cy="116.85" r="10.95"/>
        <circle cx="39.15" cy="153.36" r="10.95"/>
        <circle cx="39.15" cy="189.88" r="10.95"/>
        <circle cx="39.15" cy="226.39" r="10.95"/>
        <g>
          <circle cx="221.72" cy="43.82" r="10.95"/>
          <circle cx="185.2" cy="43.82" r="10.95"/>
          <circle cx="148.69" cy="43.82" r="10.95"/>
          <circle cx="112.17" cy="43.82" r="10.95"/>
        </g>
      </g>
      <g>
        <circle cx="39.15" cy="80.34" r="13.15"/>
        <circle cx="75.66" cy="43.82" r="13.15"/>
        <circle cx="39.15" cy="43.82" r="13.15"/>
      </g>
    </g>
  </g>
</svg>
