<svg viewBox="0 0 512 64" xmlns="http://www.w3.org/2000/svg">
    <path d="M79.3565 48.6843V15.0702H104.281V20.7566H86.1435V28.2086H103.019V33.8721H86.1435V43.0208H104.923V48.6843H79.3565Z" fill="currentColor"/>
    <path d="M132.781 48.6843H126.338V36.2567C126.338 33.6275 126.201 31.9308 125.926 31.1665C125.65 30.3869 125.2 29.7831 124.573 29.3551C123.961 28.9271 123.22 28.713 122.349 28.713C121.233 28.713 120.232 29.0188 119.345 29.6302C118.458 30.2417 117.847 31.0518 117.511 32.0607C117.19 33.0696 117.029 34.9345 117.029 37.6554V48.6843H110.586V24.3336H116.571V27.9105C118.695 25.159 121.37 23.7833 124.596 23.7833C126.017 23.7833 127.317 24.0431 128.494 24.5629C129.671 25.0673 130.557 25.717 131.153 26.5119C131.765 27.3067 132.185 28.2086 132.415 29.2175C132.659 30.2264 132.781 31.6709 132.781 33.5511V48.6843Z" fill="currentColor"/>
    <path d="M153.441 40.9343L159.861 42.012C159.035 44.366 157.728 46.1621 155.94 47.4003C154.167 48.6232 151.943 49.2346 149.268 49.2346C145.033 49.2346 141.9 47.8513 139.867 45.0845C138.262 42.868 137.459 40.0706 137.459 36.6924C137.459 32.6569 138.514 29.5003 140.623 27.2227C142.733 24.9297 145.4 23.7833 148.625 23.7833C152.248 23.7833 155.107 24.9832 157.201 27.3832C159.295 29.7678 160.296 33.4288 160.205 38.3662H144.063C144.108 40.277 144.628 41.7674 145.622 42.8374C146.615 43.8922 147.854 44.4195 149.336 44.4195C150.345 44.4195 151.194 44.1444 151.881 43.5941C152.569 43.0438 153.089 42.1572 153.441 40.9343ZM153.807 34.4224C153.762 32.5575 153.28 31.1435 152.363 30.1805C151.446 29.2022 150.33 28.713 149.015 28.713C147.609 28.713 146.447 29.2251 145.53 30.2493C144.613 31.2735 144.162 32.6645 144.177 34.4224H153.807Z" fill="currentColor"/>
    <path d="M171.646 48.6843H165.203V24.3336H171.188V27.7959C172.212 26.1603 173.129 25.0826 173.939 24.5629C174.765 24.0431 175.697 23.7833 176.737 23.7833C178.204 23.7833 179.618 24.1884 180.979 24.9985L178.984 30.6162C177.898 29.913 176.89 29.5614 175.957 29.5614C175.055 29.5614 174.291 29.8136 173.664 30.3181C173.037 30.8072 172.541 31.7015 172.174 33.0008C171.822 34.3001 171.646 37.021 171.646 41.1636V48.6843Z" fill="currentColor"/>
    <path d="M183.18 50.2894L190.54 51.1836C190.662 52.0396 190.945 52.6282 191.388 52.9492C192 53.4078 192.963 53.637 194.277 53.637C195.959 53.637 197.22 53.3848 198.061 52.8804C198.626 52.5441 199.054 52.0014 199.345 51.2524C199.544 50.7174 199.643 49.7314 199.643 48.2946V44.7405C197.717 47.3697 195.286 48.6843 192.351 48.6843C189.08 48.6843 186.489 47.301 184.578 44.5342C183.08 42.3483 182.331 39.6273 182.331 36.3714C182.331 32.29 183.31 29.1716 185.266 27.0163C187.238 24.861 189.684 23.7833 192.604 23.7833C195.615 23.7833 198.099 25.1055 200.056 27.75V24.3336H206.086V46.1851C206.086 49.0589 205.849 51.2066 205.375 52.6282C204.901 54.0498 204.236 55.1657 203.38 55.9758C202.524 56.786 201.378 57.4204 199.941 57.8789C198.519 58.3375 196.716 58.5668 194.53 58.5668C190.402 58.5668 187.475 57.856 185.748 56.4344C184.02 55.0281 183.157 53.2396 183.157 51.069C183.157 50.855 183.164 50.5951 183.18 50.2894ZM188.935 36.0045C188.935 38.5879 189.432 40.4834 190.425 41.691C191.434 42.8833 192.672 43.4794 194.14 43.4794C195.714 43.4794 197.044 42.868 198.13 41.6451C199.215 40.4069 199.758 38.5802 199.758 36.165C199.758 33.6428 199.238 31.7703 198.198 30.5474C197.159 29.3245 195.844 28.713 194.255 28.713C192.711 28.713 191.434 29.3169 190.425 30.5245C189.432 31.7168 188.935 33.5435 188.935 36.0045Z" fill="currentColor"/>
    <path d="M212.483 21.0318V15.0702H218.926V21.0318H212.483ZM212.483 48.6843V24.3336H218.926V48.6843H212.483Z" fill="currentColor"/>
    <path d="M239.654 40.9343L246.074 42.012C245.249 44.366 243.942 46.1621 242.154 47.4003C240.38 48.6232 238.156 49.2346 235.481 49.2346C231.247 49.2346 228.113 47.8513 226.08 45.0845C224.475 42.868 223.673 40.0706 223.673 36.6924C223.673 32.6569 224.727 29.5003 226.837 27.2227C228.946 24.9297 231.614 23.7833 234.839 23.7833C238.462 23.7833 241.32 24.9832 243.415 27.3832C245.509 29.7678 246.51 33.4288 246.418 38.3662H230.276C230.322 40.277 230.842 41.7674 231.835 42.8374C232.829 43.8922 234.067 44.4195 235.55 44.4195C236.559 44.4195 237.407 44.1444 238.095 43.5941C238.783 43.0438 239.303 42.1572 239.654 40.9343ZM240.021 34.4224C239.975 32.5575 239.494 31.1435 238.577 30.1805C237.659 29.2022 236.544 28.713 235.229 28.713C233.823 28.713 232.661 29.2251 231.744 30.2493C230.827 31.2735 230.376 32.6645 230.391 34.4224H240.021Z" fill="currentColor"/>
    <path d="M256.232 48.6843L248.528 24.3336H254.787L259.35 40.2923L263.546 24.3336H269.76L273.819 40.2923L278.473 24.3336H284.825L277.006 48.6843H270.815L266.619 33.0237L262.492 48.6843H256.232Z" fill="currentColor"/>
    <path d="M302.343 40.9343L308.763 42.012C307.937 44.366 306.63 46.1621 304.842 47.4003C303.069 48.6232 300.845 49.2346 298.169 49.2346C293.935 49.2346 290.802 47.8513 288.769 45.0845C287.163 42.868 286.361 40.0706 286.361 36.6924C286.361 32.6569 287.416 29.5003 289.525 27.2227C291.635 24.9297 294.302 23.7833 297.527 23.7833C301.15 23.7833 304.009 24.9832 306.103 27.3832C308.197 29.7678 309.198 33.4288 309.107 38.3662H292.965C293.01 40.277 293.53 41.7674 294.524 42.8374C295.517 43.8922 296.756 44.4195 298.238 44.4195C299.247 44.4195 300.096 44.1444 300.783 43.5941C301.471 43.0438 301.991 42.1572 302.343 40.9343ZM302.709 34.4224C302.664 32.5575 302.182 31.1435 301.265 30.1805C300.348 29.2022 299.232 28.713 297.917 28.713C296.511 28.713 295.349 29.2251 294.432 30.2493C293.515 31.2735 293.064 32.6645 293.079 34.4224H302.709Z" fill="currentColor"/>
    <path d="M320.548 48.6843H314.105V24.3336H320.09V27.7959C321.114 26.1603 322.031 25.0826 322.841 24.5629C323.667 24.0431 324.599 23.7833 325.639 23.7833C327.106 23.7833 328.52 24.1884 329.88 24.9985L327.886 30.6162C326.8 29.913 325.791 29.5614 324.859 29.5614C323.957 29.5614 323.193 29.8136 322.566 30.3181C321.939 30.8072 321.443 31.7015 321.076 33.0008C320.724 34.3001 320.548 37.021 320.548 41.1636V48.6843Z" fill="currentColor"/>
    <path d="M332.449 48.6843V15.0702H338.892V32.9091L346.435 24.3336H354.369L346.046 33.2301L354.965 48.6843H348.017L341.895 37.7471L338.892 40.8884V48.6843H332.449Z" fill="currentColor"/>
    <path d="M371.955 48.6843V15.0702H386.24C389.833 15.0702 392.439 15.3759 394.059 15.9874C395.695 16.5835 397.002 17.6536 397.98 19.1974C398.958 20.7413 399.448 22.5069 399.448 24.4941C399.448 27.0163 398.706 29.1028 397.223 30.7537C395.741 32.3894 393.524 33.4212 390.574 33.8492C392.041 34.7052 393.249 35.6453 394.197 36.6695C395.16 37.6936 396.451 39.5127 398.072 42.1266L402.176 48.6843H394.059L389.152 41.3699C387.41 38.756 386.217 37.1128 385.575 36.4402C384.933 35.7523 384.253 35.2861 383.535 35.0415C382.816 34.7816 381.677 34.6517 380.118 34.6517H378.743V48.6843H371.955ZM378.743 29.2863H383.764C387.02 29.2863 389.053 29.1487 389.863 28.8736C390.673 28.5984 391.308 28.1245 391.766 27.4519C392.225 26.7794 392.454 25.9386 392.454 24.9297C392.454 23.7986 392.148 22.889 391.537 22.2012C390.941 21.498 390.092 21.0547 388.992 20.8713C388.442 20.7948 386.791 20.7566 384.039 20.7566H378.743V29.2863Z" fill="currentColor"/>
    <path d="M421.849 48.6843V45.0386C420.963 46.3379 419.793 47.3621 418.341 48.1111C416.904 48.8601 415.383 49.2346 413.778 49.2346C412.143 49.2346 410.675 48.8754 409.376 48.157C408.077 47.4385 407.136 46.4296 406.556 45.1303C405.975 43.831 405.684 42.0349 405.684 39.742V24.3336H412.127V35.523C412.127 38.9471 412.242 41.0489 412.471 41.8285C412.716 42.5928 413.152 43.2043 413.778 43.6629C414.405 44.1062 415.2 44.3278 416.163 44.3278C417.264 44.3278 418.249 44.0297 419.121 43.4336C419.992 42.8221 420.588 42.0731 420.909 41.1865C421.23 40.2846 421.391 38.0911 421.391 34.6058V24.3336H427.834V48.6843H421.849ZM409.055 20.0229V14.497H414.581V20.0229H409.055ZM418.914 20.0229V14.497H424.463V20.0229H418.914Z" fill="currentColor"/>
    <path d="M433.933 50.2894L441.293 51.1836C441.416 52.0396 441.698 52.6282 442.142 52.9492C442.753 53.4078 443.716 53.637 445.031 53.637C446.712 53.637 447.973 53.3848 448.814 52.8804C449.38 52.5441 449.808 52.0014 450.098 51.2524C450.297 50.7174 450.396 49.7314 450.396 48.2946V44.7405C448.47 47.3697 446.04 48.6843 443.105 48.6843C439.833 48.6843 437.242 47.301 435.332 44.5342C433.834 42.3483 433.085 39.6273 433.085 36.3714C433.085 32.29 434.063 29.1716 436.02 27.0163C437.991 24.861 440.437 23.7833 443.357 23.7833C446.368 23.7833 448.852 25.1055 450.809 27.75V24.3336H456.839V46.1851C456.839 49.0589 456.602 51.2066 456.128 52.6282C455.655 54.0498 454.99 55.1657 454.134 55.9758C453.278 56.786 452.131 57.4204 450.694 57.8789C449.273 58.3375 447.469 58.5668 445.283 58.5668C441.156 58.5668 438.228 57.856 436.501 56.4344C434.774 55.0281 433.91 53.2396 433.91 51.069C433.91 50.855 433.918 50.5951 433.933 50.2894ZM439.688 36.0045C439.688 38.5879 440.185 40.4834 441.179 41.691C442.188 42.8833 443.426 43.4794 444.893 43.4794C446.468 43.4794 447.798 42.868 448.883 41.6451C449.968 40.4069 450.511 38.5802 450.511 36.165C450.511 33.6428 449.991 31.7703 448.952 30.5474C447.912 29.3245 446.598 28.713 445.008 28.713C443.464 28.713 442.188 29.3169 441.179 30.5245C440.185 31.7168 439.688 33.5435 439.688 36.0045Z" fill="currentColor"/>
    <path d="M477.338 40.9343L483.758 42.012C482.933 44.366 481.626 46.1621 479.837 47.4003C478.064 48.6232 475.84 49.2346 473.165 49.2346C468.931 49.2346 465.797 47.8513 463.764 45.0845C462.159 42.868 461.356 40.0706 461.356 36.6924C461.356 32.6569 462.411 29.5003 464.521 27.2227C466.63 24.9297 469.297 23.7833 472.523 23.7833C476.146 23.7833 479.004 24.9832 481.098 27.3832C483.192 29.7678 484.194 33.4288 484.102 38.3662H467.96C468.006 40.277 468.525 41.7674 469.519 42.8374C470.513 43.8922 471.751 44.4195 473.234 44.4195C474.242 44.4195 475.091 44.1444 475.779 43.5941C476.467 43.0438 476.986 42.1572 477.338 40.9343ZM477.705 34.4224C477.659 32.5575 477.177 31.1435 476.26 30.1805C475.343 29.2022 474.227 28.713 472.913 28.713C471.506 28.713 470.345 29.2251 469.427 30.2493C468.51 31.2735 468.059 32.6645 468.075 34.4224H477.705Z" fill="currentColor"/>
    <path d="M511.525 48.6843H505.082V36.2567C505.082 33.6275 504.945 31.9308 504.669 31.1665C504.394 30.3869 503.943 29.7831 503.317 29.3551C502.705 28.9271 501.964 28.713 501.093 28.713C499.977 28.713 498.975 29.0188 498.089 29.6302C497.202 30.2417 496.591 31.0518 496.254 32.0607C495.933 33.0696 495.773 34.9345 495.773 37.6554V48.6843H489.33V24.3336H495.314V27.9105C497.439 25.159 500.114 23.7833 503.34 23.7833C504.761 23.7833 506.061 24.0431 507.238 24.5629C508.415 25.0673 509.301 25.717 509.897 26.5119C510.509 27.3067 510.929 28.2086 511.158 29.2175C511.403 30.2264 511.525 31.6709 511.525 33.5511V48.6843Z" fill="currentColor"/>
    <g fill="currentColor">
        <path d="M47.9883 34.1562C47.4647 34.1573 46.9559 34.3316 46.5398 34.6525C46.1236 34.9733 45.8231 35.423 45.6841 35.9328C43.9766 42.1269 38.3502 46.6719 31.672 46.6719C24.9938 46.6719 19.3674 42.1269 17.6599 35.9328C17.5209 35.423 17.2204 34.9733 16.8042 34.6525C16.3881 34.3316 15.8793 34.1573 15.3557 34.1562H1.94207C1.6971 34.1562 1.45493 34.2089 1.2317 34.3108C1.00847 34.4127 0.8093 34.5615 0.64745 34.7472C0.485601 34.9329 0.364788 35.1513 0.293056 35.3879C0.221324 35.6244 0.20032 35.8737 0.231442 36.1191C2.23976 51.8475 15.5491 64 31.6714 64C47.7936 64 61.1036 51.8475 63.1113 36.1191C63.1424 35.8737 63.1214 35.6244 63.0497 35.3879C62.978 35.1513 62.8572 34.9329 62.6953 34.7472C62.5335 34.5615 62.3343 34.4127 62.1111 34.3108C61.8878 34.2089 61.6457 34.1562 61.4007 34.1562H47.9883Z"/>
        <path d="M31.6721 42.2188C37.2692 42.2188 41.8065 37.6367 41.8065 31.9844C41.8065 26.3321 37.2692 21.75 31.6721 21.75C26.075 21.75 21.5377 26.3321 21.5377 31.9844C21.5377 37.6367 26.075 42.2188 31.6721 42.2188Z"/>
        <path d="M21.5487 21.8513C22.7006 20.6836 20.8713 16.9574 17.4629 13.5286C14.0546 10.0998 10.3578 8.26687 9.20589 9.43457C8.05402 10.6023 9.88327 14.3285 13.2916 17.7573C16.7 21.1861 20.3968 23.019 21.5487 21.8513Z"/>
        <path d="M27.936 18.1096C29.5117 17.68 29.7724 13.5294 28.5183 8.83894C27.2643 4.14853 24.9703 0.6945 23.3946 1.12415C21.8189 1.5538 21.5581 5.70442 22.8122 10.3948C24.0663 15.0852 26.3603 18.5393 27.936 18.1096Z"/>
        <path d="M40.4174 10.3595C41.6537 5.66426 41.3772 1.51467 39.7999 1.09114C38.2225 0.667601 35.9417 4.1305 34.7054 8.82574C33.4692 13.521 33.7457 17.6706 35.323 18.0941C36.9004 18.5176 39.1812 15.0547 40.4174 10.3595Z"/>
        <path d="M49.9665 17.6855C53.3618 14.2435 55.1769 10.5103 54.0206 9.34705C52.8643 8.18382 49.1745 10.0311 45.7792 13.4731C42.3838 16.9151 40.5688 20.6483 41.7251 21.8116C42.8814 22.9748 46.5712 21.1275 49.9665 17.6855Z"/>
        <path d="M54.6079 28.8512C59.2525 27.5847 62.6728 25.2681 62.2474 23.6769C61.8219 22.0856 57.7118 21.8223 53.0672 23.0888C48.4226 24.3552 45.0023 26.6718 45.4278 28.2631C45.8532 29.8543 49.9633 30.1176 54.6079 28.8512Z"/>
        <path d="M17.8698 28.3174C18.2892 26.7245 14.8601 24.4212 10.2107 23.1728C5.56129 21.9244 1.45222 22.2036 1.03283 23.7965C0.613427 25.3893 4.04251 27.6927 8.6919 28.9411C13.3413 30.1895 17.4504 29.9103 17.8698 28.3174Z"/>
    </g>
</svg>
