<svg viewBox="0 0 121 70" xmlns="http://www.w3.org/2000/svg">
  <path d="M61.0706 68.7028C72.3947 68.7028 81.5747 59.5229 81.5747 48.1988C81.5747 36.8747 72.3947 27.6947 61.0706 27.6947C49.7466 27.6947 40.5666 36.8747 40.5666 48.1988C40.5666 59.5229 49.7466 68.7028 61.0706 68.7028Z" stroke="currentColor" stroke-width="2" stroke-miterlimit="10"/>
  <path d="M61.0706 60.5229C67.8771 60.5229 73.3947 55.0052 73.3947 48.1988C73.3947 41.3923 67.8771 35.8747 61.0706 35.8747C54.2642 35.8747 48.7465 41.3923 48.7465 48.1988C48.7465 55.0052 54.2642 60.5229 61.0706 60.5229Z" stroke="currentColor" stroke-width="2" stroke-miterlimit="10"/>
  <path d="M71.7452 42.0358C72.8259 43.91 73.3947 46.0353 73.3947 48.1988C73.3947 50.3622 72.8259 52.4875 71.7452 54.3617L78.83 58.4526C80.6281 55.3345 81.5746 51.7984 81.5746 48.1991C81.5746 44.5997 80.6281 41.0636 78.83 37.9455L71.7452 42.0358Z" fill="currentColor"/>
  <path d="M61.0706 27.6947C57.4706 27.6893 53.9333 28.6362 50.8174 30.4393L54.9077 37.5241C56.7818 36.4435 58.9072 35.8746 61.0706 35.8746C63.234 35.8746 65.3594 36.4435 67.2336 37.5241L71.3239 30.4393C68.208 28.6361 64.6706 27.6892 61.0706 27.6947V27.6947Z" fill="currentColor"/>
  <path d="M48.7441 48.1988C48.7422 46.0345 49.3128 43.9083 50.3978 42.0358L43.3112 37.9455C41.5131 41.0636 40.5666 44.5997 40.5666 48.1991C40.5666 51.7984 41.5131 55.3345 43.3112 58.4526L50.3978 54.3617C49.3127 52.4892 48.7421 50.363 48.7441 48.1988Z" fill="currentColor"/>
  <path d="M61.0706 60.5235C58.9067 60.5267 56.7805 59.9574 54.9077 58.8734L50.8174 65.9582C53.9354 67.7563 57.4714 68.7028 61.0706 68.7028C64.6699 68.7028 68.2059 67.7563 71.3239 65.9582L67.2336 58.8734C65.3608 59.9575 63.2346 60.5268 61.0706 60.5235V60.5235Z" fill="currentColor"/>
  <path d="M18.9803 33.0712C15.2704 33.0712 12.8553 34.4261 12.8553 36.9588C12.8553 45.3212 34.9996 40.7869 34.9408 55.569C34.9408 63.2865 28.2266 67.7577 19.1573 67.7577C12.5613 67.7577 6.14165 65.1074 1.72491 61.1617L5.02261 54.5087C9.26295 58.2781 14.8581 60.5725 19.2749 60.5725C23.6916 60.5725 26.3425 58.9236 26.3425 56.04C26.3425 47.4417 4.19819 52.3301 4.19819 37.665C4.19819 30.4797 10.3844 25.886 19.6283 25.886C25.1053 25.886 30.5828 27.6524 34.5286 30.2439L31.3491 37.0764C26.9311 34.4261 22.1616 33.0712 18.9803 33.0712Z" fill="currentColor"/>
  <path d="M103.611 33.0712C99.9007 33.0712 97.4856 34.4261 97.4856 36.9588C97.4856 45.3212 119.629 40.7869 119.57 55.569C119.57 63.2865 112.857 67.7577 103.787 67.7577C97.191 67.7577 90.7714 65.1074 86.3546 61.1617L89.6523 54.5063C93.8927 58.2756 99.4878 60.57 103.905 60.57C108.321 60.57 110.972 58.9212 110.972 56.0375C110.972 47.4393 88.8279 52.3276 88.8279 37.6625C88.8279 30.4773 95.0141 25.8836 104.258 25.8836C109.735 25.8836 115.213 27.65 119.158 30.2415L115.979 37.0764C111.561 34.4261 106.791 33.0712 103.611 33.0712Z" fill="currentColor"/>
  <path d="M10.0818 1.1655V8.58226H15.9986V1.1655H22.3245V20.2792H15.9986V13.3787H10.0818V20.2792H3.75592V1.1655H10.0818Z" fill="currentColor"/>
  <path d="M45.0911 10.7089C45.0911 16.38 40.6744 20.5517 34.5941 20.5517C28.5138 20.5517 24.0964 16.4076 24.0964 10.7089C24.0964 5.03711 28.5138 0.975014 34.5941 0.975014C40.6744 0.975014 45.0911 5.06468 45.0911 10.7089ZM30.5859 10.7358C30.5859 13.3536 32.4944 15.2891 34.6755 15.2891C36.8566 15.2891 38.6017 13.3536 38.6017 10.7358C38.6017 8.11799 36.8566 6.237 34.6755 6.237C32.4669 6.237 30.5859 8.1186 30.5859 10.7358Z" fill="currentColor"/>
  <path d="M51.8531 1.1655L54.7466 13.7083L57.5788 1.1655H63.7411L66.6291 13.7083L69.4668 1.1655H75.9287L69.6848 20.2792H63.1685L60.5237 8.85483L57.7968 20.2792H51.2804L45.0911 1.1655H51.8531Z" fill="currentColor"/>
  <path d="M98.8318 1.1655V6.15554H93.3806V20.2792H87.0528V6.15554H81.6273V1.1655H98.8318Z" fill="currentColor"/>
  <path d="M119.554 10.7089C119.554 16.38 115.137 20.5517 109.056 20.5517C102.976 20.5517 98.5593 16.4076 98.5593 10.7089C98.5593 5.03711 102.976 0.975014 109.056 0.975014C115.137 0.975014 119.554 5.06468 119.554 10.7089ZM105.049 10.7358C105.049 13.3536 106.957 15.2891 109.138 15.2891C111.32 15.2891 113.065 13.3536 113.065 10.7358C113.065 8.11799 111.32 6.237 109.138 6.237C106.932 6.237 105.049 8.1186 105.049 10.7358Z" fill="currentColor"/>
</svg>
