<svg xmlns="http://www.w3.org/2000/svg" viewBox="0 0 2048 753">
    <g fill="currentColor">
        <path d="M1124.47,691.06h64.81v10.94h-77.12v-121.07h75.07v10.94h-62.76v41.55h58.65v10.94h-58.65v46.68Z"/>
        <path d="M1223.13,621.97c.23,2.17,.4,4.56,.51,7.18,.11,2.62,.17,4.79,.17,6.5h.34c2.28-4.67,5.99-8.46,11.12-11.37,5.13-2.91,10.54-4.36,16.25-4.36,10.14,0,17.75,3.02,22.83,9.06,5.07,6.04,7.61,14.02,7.61,23.94v49.08h-11.63v-44.29c0-4.22-.34-8.04-1.03-11.46-.68-3.42-1.85-6.35-3.51-8.81-1.65-2.45-3.88-4.36-6.67-5.73-2.79-1.37-6.3-2.05-10.52-2.05-3.08,0-6.07,.63-8.98,1.88-2.91,1.26-5.5,3.16-7.78,5.73-2.28,2.56-4.1,5.81-5.47,9.75-1.37,3.93-2.05,8.58-2.05,13.94v41.04h-11.63v-62.42c0-2.16-.06-4.96-.17-8.38-.12-3.42-.29-6.5-.51-9.23h11.11Z"/>
        <path d="M1316.33,718.07c3.19,4.1,7.55,7.58,13.08,10.43,5.53,2.85,11.37,4.27,17.53,4.27,5.7,0,10.54-.83,14.54-2.48,3.99-1.65,7.21-3.91,9.66-6.75,2.45-2.85,4.25-6.19,5.39-10,1.14-3.82,1.71-7.9,1.71-12.23v-15.05h-.34c-3.08,5.02-7.44,8.89-13.08,11.63-5.64,2.74-11.37,4.1-17.19,4.1-6.27,0-11.94-1.03-17.01-3.08-5.07-2.05-9.4-4.87-13-8.46-3.59-3.59-6.39-7.89-8.38-12.91-2-5.02-2.99-10.43-2.99-16.25s1-11.06,2.99-16.07c1.99-5.02,4.79-9.4,8.38-13.17,3.59-3.76,7.92-6.73,13-8.89,5.07-2.16,10.74-3.25,17.01-3.25,5.81,0,11.51,1.37,17.1,4.1,5.58,2.74,9.97,6.67,13.17,11.8h.34v-13.85h11.63v79.34c0,4.33-.6,8.95-1.8,13.85-1.2,4.9-3.42,9.4-6.67,13.51s-7.67,7.52-13.25,10.26c-5.59,2.74-12.83,4.1-21.72,4.1-7.41,0-14.48-1.43-21.2-4.27-6.73-2.85-12.48-6.78-17.27-11.8l8.38-8.89Zm2.22-57.11c0,4.22,.68,8.21,2.05,11.97,1.37,3.76,3.33,7.07,5.9,9.92,2.56,2.85,5.73,5.1,9.49,6.75,3.76,1.65,8.04,2.48,12.83,2.48,4.45,0,8.55-.74,12.31-2.22,3.76-1.48,7.01-3.59,9.75-6.33,2.74-2.74,4.87-6.01,6.41-9.83,1.54-3.82,2.31-8.06,2.31-12.74,0-4.22-.77-8.21-2.31-11.97-1.54-3.76-3.68-7.07-6.41-9.92-2.74-2.85-5.98-5.13-9.75-6.84-3.76-1.71-7.87-2.56-12.31-2.56-4.79,0-9.06,.85-12.83,2.56s-6.93,3.99-9.49,6.84c-2.57,2.85-4.53,6.16-5.9,9.92-1.37,3.76-2.05,7.75-2.05,11.97Z"/>
        <path d="M1434.31,591.19c0,2.39-.86,4.36-2.57,5.9-1.71,1.54-3.59,2.31-5.64,2.31s-3.93-.77-5.64-2.31c-1.71-1.54-2.56-3.51-2.56-5.9s.85-4.36,2.56-5.9,3.59-2.31,5.64-2.31,3.93,.77,5.64,2.31,2.57,3.51,2.57,5.9Zm-2.39,110.81h-11.63v-80.03h11.63v80.03Z"/>
        <path d="M1473.3,621.97c.23,2.17,.4,4.56,.51,7.18,.11,2.62,.17,4.79,.17,6.5h.34c2.28-4.67,5.99-8.46,11.12-11.37,5.13-2.91,10.54-4.36,16.25-4.36,10.14,0,17.75,3.02,22.83,9.06,5.07,6.04,7.61,14.02,7.61,23.94v49.08h-11.63v-44.29c0-4.22-.34-8.04-1.03-11.46-.68-3.42-1.85-6.35-3.51-8.81-1.65-2.45-3.88-4.36-6.67-5.73-2.79-1.37-6.3-2.05-10.52-2.05-3.08,0-6.07,.63-8.98,1.88-2.91,1.26-5.5,3.16-7.78,5.73-2.28,2.56-4.1,5.81-5.47,9.75-1.37,3.93-2.05,8.58-2.05,13.94v41.04h-11.63v-62.42c0-2.16-.06-4.96-.17-8.38-.12-3.42-.29-6.5-.51-9.23h11.11Z"/>
        <path d="M1635.07,659.59v2.57c0,.91-.06,1.88-.17,2.91h-66.35c.11,3.99,.91,7.75,2.39,11.29,1.48,3.53,3.53,6.61,6.16,9.23,2.62,2.62,5.7,4.7,9.23,6.24,3.53,1.54,7.35,2.31,11.46,2.31,6.04,0,11.26-1.39,15.65-4.19,4.39-2.79,7.72-6.01,10-9.66l8.72,6.84c-4.79,6.04-10.06,10.38-15.82,13-5.76,2.62-11.94,3.93-18.55,3.93-5.93,0-11.43-1.06-16.5-3.16-5.07-2.11-9.43-5.04-13.08-8.81-3.65-3.76-6.53-8.21-8.64-13.34-2.11-5.13-3.16-10.71-3.16-16.76s1.03-11.63,3.08-16.76,4.9-9.58,8.55-13.34c3.65-3.76,7.92-6.7,12.83-8.81,4.9-2.11,10.2-3.16,15.9-3.16,6.27,0,11.8,1.06,16.59,3.16,4.79,2.11,8.78,4.96,11.97,8.55,3.19,3.59,5.61,7.78,7.27,12.57,1.65,4.79,2.48,9.92,2.48,15.39Zm-11.8-3.76c-.34-7.52-2.77-13.77-7.27-18.72-4.5-4.96-10.92-7.44-19.24-7.44-3.88,0-7.47,.71-10.77,2.14-3.31,1.43-6.21,3.36-8.72,5.81-2.51,2.45-4.5,5.24-5.99,8.38-1.48,3.14-2.34,6.41-2.56,9.83h54.55Z"/>
        <path d="M1732.88,659.59v2.57c0,.91-.06,1.88-.17,2.91h-66.35c.11,3.99,.91,7.75,2.39,11.29,1.48,3.53,3.53,6.61,6.16,9.23,2.62,2.62,5.7,4.7,9.23,6.24,3.53,1.54,7.35,2.31,11.46,2.31,6.04,0,11.26-1.39,15.65-4.19,4.39-2.79,7.72-6.01,10-9.66l8.72,6.84c-4.79,6.04-10.06,10.38-15.82,13-5.76,2.62-11.94,3.93-18.55,3.93-5.93,0-11.43-1.06-16.5-3.16-5.07-2.11-9.43-5.04-13.08-8.81-3.65-3.76-6.53-8.21-8.64-13.34-2.11-5.13-3.16-10.71-3.16-16.76s1.03-11.63,3.08-16.76,4.9-9.58,8.55-13.34c3.65-3.76,7.92-6.7,12.83-8.81,4.9-2.11,10.2-3.16,15.9-3.16,6.27,0,11.8,1.06,16.59,3.16,4.79,2.11,8.78,4.96,11.97,8.55,3.19,3.59,5.61,7.78,7.27,12.57,1.65,4.79,2.48,9.92,2.48,15.39Zm-11.8-3.76c-.34-7.52-2.77-13.77-7.27-18.72-4.5-4.96-10.92-7.44-19.24-7.44-3.88,0-7.47,.71-10.77,2.14-3.31,1.43-6.21,3.36-8.72,5.81-2.51,2.45-4.5,5.24-5.99,8.38-1.48,3.14-2.34,6.41-2.56,9.83h54.55Z"/>
        <path d="M1757.67,631.21c-.12-3.42-.29-6.5-.51-9.23h11.12c.23,2.17,.4,4.56,.51,7.18,.11,2.62,.17,4.79,.17,6.5h.34c2.28-4.67,5.7-8.46,10.26-11.37,4.56-2.91,9.69-4.36,15.39-4.36,1.48,0,2.82,.06,4.02,.17,1.2,.12,2.42,.34,3.68,.68l-1.54,11.12c-.68-.23-1.83-.45-3.42-.68-1.6-.23-3.19-.34-4.79-.34-3.08,0-6.04,.57-8.89,1.71-2.85,1.14-5.33,2.93-7.44,5.37-2.11,2.44-3.82,5.57-5.13,9.38-1.31,3.81-1.97,8.39-1.97,13.73v40.94h-11.63v-62.42c0-2.16-.06-4.96-.17-8.38Z"/>
        <path d="M1833.59,591.19c0,2.39-.86,4.36-2.57,5.9-1.71,1.54-3.59,2.31-5.64,2.31s-3.93-.77-5.64-2.31c-1.71-1.54-2.56-3.51-2.56-5.9s.85-4.36,2.56-5.9,3.59-2.31,5.64-2.31,3.93,.77,5.64,2.31,2.57,3.51,2.57,5.9Zm-2.39,110.81h-11.63v-80.03h11.63v80.03Z"/>
        <path d="M1872.58,621.97c.23,2.17,.4,4.56,.51,7.18,.11,2.62,.17,4.79,.17,6.5h.34c2.28-4.67,5.99-8.46,11.12-11.37,5.13-2.91,10.54-4.36,16.25-4.36,10.14,0,17.75,3.02,22.83,9.06,5.07,6.04,7.61,14.02,7.61,23.94v49.08h-11.63v-44.29c0-4.22-.34-8.04-1.03-11.46-.68-3.42-1.85-6.35-3.51-8.81-1.65-2.45-3.88-4.36-6.67-5.73-2.79-1.37-6.3-2.05-10.52-2.05-3.08,0-6.07,.63-8.98,1.88-2.91,1.26-5.5,3.16-7.78,5.73-2.28,2.56-4.1,5.81-5.47,9.75-1.37,3.93-2.05,8.58-2.05,13.94v41.04h-11.63v-62.42c0-2.16-.06-4.96-.17-8.38-.12-3.42-.29-6.5-.51-9.23h11.11Z"/>
        <path d="M1965.77,718.07c3.19,4.1,7.55,7.58,13.08,10.43,5.53,2.85,11.37,4.27,17.53,4.27,5.7,0,10.54-.83,14.54-2.48,3.99-1.65,7.21-3.91,9.66-6.75,2.45-2.85,4.25-6.19,5.39-10,1.14-3.82,1.71-7.9,1.71-12.23v-15.05h-.34c-3.08,5.02-7.44,8.89-13.08,11.63-5.64,2.74-11.37,4.1-17.19,4.1-6.27,0-11.94-1.03-17.01-3.08-5.07-2.05-9.4-4.87-13-8.46-3.59-3.59-6.39-7.89-8.38-12.91-2-5.02-2.99-10.43-2.99-16.25s1-11.06,2.99-16.07c1.99-5.02,4.79-9.4,8.38-13.17,3.59-3.76,7.92-6.73,13-8.89,5.07-2.16,10.74-3.25,17.01-3.25,5.81,0,11.51,1.37,17.1,4.1,5.58,2.74,9.97,6.67,13.17,11.8h.34v-13.85h11.63v79.34c0,4.33-.6,8.95-1.8,13.85-1.2,4.9-3.42,9.4-6.67,13.51s-7.67,7.52-13.25,10.26c-5.59,2.74-12.83,4.1-21.72,4.1-7.41,0-14.48-1.43-21.2-4.27-6.73-2.85-12.48-6.78-17.27-11.8l8.38-8.89Zm2.22-57.11c0,4.22,.68,8.21,2.05,11.97,1.37,3.76,3.33,7.07,5.9,9.92,2.56,2.85,5.73,5.1,9.49,6.75,3.76,1.65,8.04,2.48,12.83,2.48,4.45,0,8.55-.74,12.31-2.22,3.76-1.48,7.01-3.59,9.75-6.33,2.74-2.74,4.87-6.01,6.41-9.83,1.54-3.82,2.31-8.06,2.31-12.74,0-4.22-.77-8.21-2.31-11.97-1.54-3.76-3.68-7.07-6.41-9.92-2.74-2.85-5.98-5.13-9.75-6.84-3.76-1.71-7.87-2.56-12.31-2.56-4.79,0-9.06,.85-12.83,2.56s-6.93,3.99-9.49,6.84c-2.57,2.85-4.53,6.16-5.9,9.92-1.37,3.76-2.05,7.75-2.05,11.97Z"/>
    </g>
    <g fill="currentColor">
        <path d="M257.93,551L108.02,365.18h-1.14v185.82H11.69V147.44H106.88v164.16h1.71L252.8,147.44h121.98l-173.85,185.82,184.11,217.74h-127.11Z"/>
        <path d="M746.7,465.21c-8.18,19.95-19.86,37.05-35.05,51.3-15.2,14.25-33.54,25.36-55,33.34-21.47,7.98-45.32,11.97-71.54,11.97s-50.54-3.99-71.82-11.97c-21.29-7.98-39.33-19.09-54.15-33.34-14.82-14.25-26.22-31.35-34.2-51.3-7.98-19.95-11.97-42.08-11.97-66.4V147.44h96.9v243.39c0,11.03,1.42,21.47,4.28,31.35,2.85,9.89,7.21,18.72,13.11,26.5,5.89,7.79,13.68,13.96,23.37,18.52,9.69,4.56,21.38,6.84,35.06,6.84s25.36-2.28,35.05-6.84,17.57-10.73,23.66-18.52c6.07-7.78,10.45-16.62,13.11-26.5,2.65-9.88,3.99-20.32,3.99-31.35V147.44h97.47v251.37c0,24.32-4.09,46.46-12.25,66.4Z"/>
        <path d="M1010.32,230.66v320.34h-97.47V230.66h-114v-83.22h325.47v83.22h-114Z"/>
        <path d="M1341.49,230.66v320.34h-97.47V230.66h-114v-83.22h325.47v83.22h-114Z"/>
        <path d="M1499.95,551V147.44h98.04v403.56h-98.04Z"/>
        <path d="M1970.48,551.57c-26.42,6.46-55.2,9.69-86.36,9.69s-62.04-5.13-89.2-15.39c-27.17-10.26-50.54-24.7-70.11-43.32-19.58-18.61-34.87-40.94-45.88-66.97-11.03-26.02-16.53-55.01-16.53-86.93s5.6-61.56,16.82-87.78c11.2-26.22,26.69-48.54,46.45-66.98,19.75-18.43,42.94-32.58,69.54-42.46,26.59-9.88,55.29-14.82,86.07-14.82s61.56,4.85,88.92,14.54c27.36,9.69,49.59,22.71,66.69,39.04l-61.56,70.11c-9.5-11.02-22.04-20.04-37.62-27.07-15.59-7.03-33.26-10.54-53.01-10.54-17.1,0-32.87,3.13-47.31,9.4-14.45,6.27-26.99,15.02-37.62,26.22-10.64,11.21-18.91,24.51-24.79,39.9-5.9,15.39-8.83,32.21-8.83,50.44s2.65,35.72,7.98,51.3c5.32,15.59,13.2,28.98,23.66,40.18,10.45,11.21,23.37,19.95,38.76,26.22,15.39,6.27,32.96,9.4,52.73,9.4,11.4,0,22.23-.85,32.49-2.56,10.26-1.71,19.75-4.46,28.5-8.26v-73.53h-76.95v-78.66h166.44v213.75c-19.76,10.26-42.85,18.62-69.25,25.08Z"/>
    </g>
    <circle cx="1549" cy="61" r="51" fill="currentColor"/>
</svg>
