<svg xmlns="http://www.w3.org/2000/svg" viewBox="0 0 2048 600">
    <g fill="currentColor">
        <polygon points="292.3,16 169.6,286.3 262.9,286.3 228.3,362.4 14.2,362.4 171.6,16 292.3,16"/>
        <polygon points="544.8,16 387.4,362.4 266.6,362.4 424.1,16 544.8,16"/>
        <path d="M874.3,75.9l-130,286.5H623.6l112.3-247.2c0.5-1.4,1-2.7,1.2-4c0.3-1.2,0.4-2.5,0.4-3.7c0-5-1.6-8.7-4.7-11.5 c-3.1-2.6-7.8-3.9-13.7-3.9h-25.1L571.1,362.4H450.4L607.7,16h223c15.3,0,27.5,3.4,36.2,10.2c8.8,6.8,13.2,16.3,13.2,28.2 c0,3-0.5,6.2-1.6,9.9C877.7,68,876.2,71.9,874.3,75.9L874.3,75.9z"/>
        <polygon points="862.4,225.9 899.6,145.6 1051.4,145.6 1014.7,225.9 862.4,225.9"/>
        <polygon points="1288.9,92.1 1165.9,362.4 1045.3,362.4 1168.1,92.1 1078.9,92.1 1113.6,16 1402.2,16 1367.6,92.1 1288.9,92.1"/>
        <polygon points="1637.8,16 1603.1,92.1 1515,92.1 1491.3,144.6 1579.5,144.6 1545,220.7 1456.8,220.7 1426.8,286.3 1515,286.3 1480.4,362.4 1271.4,362.4 1428.9,16 1637.8,16"/>
        <path d="M1841.9,286.3l-11.5,25.6c-8.6,19.3-19,32.5-31.2,39.7c-12.3,7.2-32.6,10.8-61.1,10.8h-125 c-15.2,0-27.3-3.4-36-10.1c-8.8-6.7-13.2-15.9-13.2-27.6c0-3.4,0.4-6.9,1.4-10.6c1-3.7,2.4-7.5,4.3-11.5l107.1-236.2 c8.6-19.2,19.1-32.4,31.4-39.6c12.4-7.3,32.7-10.8,60.9-10.8H1886c15.5,0,27.6,3.4,36.4,10.2c8.7,6.8,13,16.3,13,28.2 c0,3-0.5,6.2-1.6,9.9c-1,3.7-2.4,7.6-4.3,11.6l-7.4,16.2h-111.3c-8.7,0-15.8,1.7-21.5,5.3c-5.6,3.6-10.1,9.2-13.6,16.7l-66.6,149 c-0.6,1.4-1.1,2.8-1.5,4.1c-0.3,1.4-0.5,2.8-0.5,4.4c0,4.3,1.7,7.8,4.9,10.5c3.2,2.7,7.5,4.1,12.8,4.1H1841.9L1841.9,286.3z"/>
        <polygon points="14.4,397.9 2003.6,397.9 2003.6,434 14.4,434 14.4,397.9"/>
        <polygon points="15.6,583 15.6,489.1 85.2,489.1 85.2,505 34.7,505 34.7,525.8 81.6,525.8 81.6,541.7 34.7,541.7 34.7,567.2 87,567.2 87,583 15.6,583"/>
        <polygon points="212.5,583 212.5,489.1 230.9,489.1 269.6,552.1 269.6,489.1 287.1,489.1 287.1,583 268.1,583 230.1,521.3 230.1,583 212.5,583"/>
        <path d="M460.3,548.5v-15.9h40.8v37.5c-4,3.9-9.7,7.3-17.3,10.2c-7.5,2.9-15.2,4.4-22.9,4.4c-9.8,0-18.4-2.1-25.7-6.2 c-7.3-4.1-12.8-10.1-16.4-17.7c-3.7-7.7-5.5-16.1-5.5-25.1c0-9.8,2.1-18.5,6.1-26.1c4.1-7.6,10.1-13.5,18-17.5 c6-3.1,13.5-4.7,22.5-4.7c11.7,0,20.8,2.4,27.3,7.3c6.5,4.9,10.8,11.7,12.6,20.3l-18.9,3.5c-1.3-4.6-3.8-8.3-7.5-11 c-3.6-2.7-8.2-4-13.6-4c-8.3,0-14.8,2.6-19.7,7.9c-4.9,5.3-7.3,13.1-7.3,23.4c0,11.2,2.5,19.5,7.4,25.1c5,5.6,11.4,8.4,19.5,8.4 c4,0,7.9-0.8,11.9-2.3c4-1.6,7.4-3.5,10.3-5.7v-11.9H460.3L460.3,548.5z"/>
        <polygon points="627.3,583 627.3,489.1 646.4,489.1 646.4,583 627.3,583 	"/>
        <polygon points="773.8,583 773.8,489.1 792.2,489.1 830.9,552.1 830.9,489.1 848.5,489.1 848.5,583 829.5,583 791.4,521.3 791.4,583 773.8,583"/>
        <polygon points="977.9,583 977.9,489.1 1047.5,489.1 1047.5,505 996.9,505 996.9,525.8 1043.9,525.8 1043.9,541.7 996.9,541.7 996.9,567.2 1049.3,567.2 1049.3,583 977.9,583"/>
        <polygon points="1174.8,583 1174.8,489.1 1244.3,489.1 1244.3,505 1193.8,505 1193.8,525.8 1240.8,525.8 1240.8,541.7 1193.8,541.7 1193.8,567.2 1246.2,567.2 1246.2,583 1174.8,583"/>
        <path d="M1371.6,583v-93.9h40c10,0,17.3,0.9,21.9,2.5c4.6,1.7,8.2,4.7,10.9,9c2.7,4.3,4.1,9.2,4.1,14.8 c0,7.1-2.1,12.9-6.2,17.5c-4.1,4.6-10.3,7.5-18.5,8.7c4.1,2.4,7.5,5,10.1,7.9c2.7,2.9,6.3,8,10.8,15.3l11.5,18.3h-22.7l-13.6-20.5 c-4.9-7.3-8.2-11.9-10-13.8c-1.8-1.9-3.7-3.2-5.7-3.9c-2-0.7-5.2-1-9.6-1h-3.8V583H1371.6L1371.6,583z M1390.7,528.9h14 c9.1,0,14.8-0.4,17-1.2c2.3-0.8,4-2.1,5.3-4c1.3-1.9,1.9-4.2,1.9-7.1c0-3.2-0.9-5.7-2.5-7.7c-1.7-1.9-4.1-3.2-7.1-3.7 c-1.6-0.2-6.2-0.3-13.8-0.3h-14.8V528.9L1390.7,528.9z"/>
        <polygon points="1575.1,583 1575.1,489.1 1594.1,489.1 1594.1,583 1575.1,583"/>
        <polygon points="1721.6,583 1721.6,489.1 1740,489.1 1778.6,552.1 1778.6,489.1 1796.2,489.1 1796.2,583 1777.2,583 1739.1,521.3 1739.1,583 1721.6,583"/>
        <path d="M1969.4,548.5v-15.9h40.8v37.5c-4,3.9-9.7,7.3-17.3,10.2c-7.5,2.9-15.2,4.4-22.9,4.4c-9.8,0-18.4-2.1-25.7-6.2 c-7.3-4.1-12.8-10.1-16.4-17.7c-3.7-7.7-5.5-16.1-5.5-25.1c0-9.8,2.1-18.5,6.1-26.1c4.1-7.6,10.1-13.5,18-17.5 c6-3.1,13.5-4.7,22.5-4.7c11.7,0,20.8,2.4,27.3,7.3c6.5,4.9,10.8,11.7,12.6,20.3l-18.9,3.5c-1.3-4.6-3.8-8.3-7.5-11 c-3.6-2.7-8.2-4-13.6-4c-8.3,0-14.8,2.6-19.7,7.9c-4.9,5.3-7.3,13.1-7.3,23.4c0,11.2,2.5,19.5,7.4,25.1c5,5.6,11.4,8.4,19.5,8.4 c4,0,7.9-0.8,11.9-2.3c4-1.6,7.4-3.5,10.3-5.7v-11.9H1969.4L1969.4,548.5z"/>
        <path d="M1993.3,16.9c6.8,0,13.5,1.7,20,5.3c6.5,3.5,11.6,8.5,15.2,15c3.6,6.5,5.4,13.3,5.4,20.4 c0,7-1.8,13.7-5.4,20.2c-3.6,6.5-8.6,11.5-15,15c-6.4,3.6-13.2,5.4-20.2,5.4c-7,0-13.8-1.8-20.2-5.4c-6.4-3.6-11.5-8.6-15-15 c-3.6-6.4-5.4-13.2-5.4-20.2c0-7.1,1.8-13.8,5.5-20.4c3.7-6.5,8.7-11.5,15.2-15C1979.9,18.6,1986.5,16.9,1993.3,16.9L1993.3,16.9z M1993.3,23.6c-5.7,0-11.3,1.5-16.7,4.4c-5.4,2.9-9.6,7.1-12.7,12.5c-3,5.4-4.6,11.1-4.6,17c0,5.9,1.5,11.5,4.5,16.8 c3,5.4,7.2,9.6,12.6,12.5c5.4,3,11,4.5,16.9,4.5c5.8,0,11.5-1.5,16.8-4.5c5.4-3,9.6-7.2,12.5-12.5c3-5.4,4.5-11,4.5-16.8 c0-5.9-1.5-11.5-4.6-17c-3-5.4-7.3-9.6-12.7-12.5C2004.5,25.1,1999,23.6,1993.3,23.6L1993.3,23.6z M1975.5,79.9V36.3h15 c5.1,0,8.9,0.4,11.1,1.2c2.3,0.8,4.1,2.2,5.5,4.2c1.4,2,2,4.1,2,6.4c0,3.2-1.1,6-3.4,8.3c-2.3,2.4-5.3,3.7-9.1,4 c1.5,0.6,2.8,1.4,3.7,2.3c1.8,1.7,3.9,4.6,6.5,8.7l5.3,8.5h-8.6l-3.9-6.9c-3-5.4-5.5-8.8-7.4-10.2c-1.3-1-3.2-1.5-5.6-1.5h-4.2 v18.5H1975.5L1975.5,79.9z M1982.6,55.3h8.6c4.1,0,6.9-0.6,8.4-1.8c1.5-1.2,2.2-2.8,2.2-4.8c0-1.3-0.4-2.4-1.1-3.5 c-0.7-1-1.7-1.8-3-2.3c-1.3-0.5-3.6-0.8-7.1-0.8h-8V55.3L1982.6,55.3z"/>
    </g>
</svg>
