<svg viewBox="0 0 512 64" xmlns="http://www.w3.org/2000/svg">
  <path d="M1.04578 58.6294C2.8759 58.5771 4.18314 58.1588 4.96748 57.3744C5.75182 56.5901 6.19628 55.675 6.30086 54.6292C6.40544 53.5312 6.45773 51.6487 6.45773 48.982V15.0985C6.45773 12.9023 6.53616 11.0199 6.69303 9.45124L1.04578 9.76497V6.31387C6.48387 6.2093 10.5886 6.15701 13.3599 6.15701C15.8698 6.15701 17.7522 6.18315 19.0072 6.23544C26.38 6.34002 31.7658 7.59496 35.1646 10.0003C38.6157 12.3533 40.3412 15.7782 40.3412 20.2751C40.3935 23.8831 39.3216 27.125 37.1254 30.001C34.9293 32.8769 31.1122 34.8639 25.6741 35.9619C26.563 36.6417 27.3735 37.4522 28.1055 38.3934C28.8376 39.3346 29.8311 40.7987 31.086 42.7857L36.4195 51.1781C37.5699 53.0083 38.5111 54.4201 39.2432 55.4136C40.0275 56.3548 40.9426 57.1391 41.9883 57.7666C43.0864 58.3418 44.4198 58.6294 45.9885 58.6294V61.2177H36.1058C34.694 60.015 33.4913 58.7863 32.4978 57.5313C31.5566 56.2241 30.4324 54.5508 29.1252 52.5115L23.8701 44.1191L22.8504 42.472C22.0138 41.0602 21.2818 39.9098 20.6543 39.0209C20.0268 38.1319 19.3471 37.3476 18.615 36.6678C18.1444 36.7201 17.4123 36.7463 16.4188 36.7463C15.007 36.7463 13.9612 36.7201 13.2815 36.6678V51.8841C13.2815 54.6554 13.2031 56.7208 13.0462 58.0803L18.6934 57.7666V61.2177H1.04578V58.6294ZM16.7326 33.7658C27.3996 33.7658 32.7331 29.5565 32.7331 21.1379C32.7331 17.1639 31.5828 14.1834 29.282 12.1964C26.9813 10.2094 23.4518 9.21593 18.6934 9.21593C16.8633 9.21593 15.5561 9.58196 14.7717 10.314C13.9874 11.0461 13.5429 11.935 13.4384 12.9808C13.3338 14.0266 13.2815 15.8828 13.2815 18.5496V33.6089C14.8502 33.7135 16.0005 33.7658 16.7326 33.7658Z" fill="currentColor"/>
  <path d="M68.3495 62.4727C64.7416 62.4727 61.4212 61.636 58.3884 59.9628C55.4079 58.2372 53.0288 55.858 51.2509 52.8253C49.5254 49.7925 48.6626 46.3675 48.6626 42.5504C48.6626 38.4718 49.5254 34.7854 51.2509 31.4912C52.9765 28.1447 55.3295 25.5302 58.31 23.6478C61.3428 21.7131 64.6893 20.7457 68.3495 20.7457C71.9575 20.7457 75.2779 21.6347 78.3107 23.4125C81.3434 25.138 83.7226 27.5172 85.4482 30.55C87.226 33.5828 88.1149 36.9554 88.1149 40.668C88.1149 44.642 87.226 48.3022 85.4482 51.6488C83.7226 54.9953 81.3434 57.6359 78.3107 59.5706C75.3302 61.5053 72.0098 62.4727 68.3495 62.4727ZM68.977 59.3353C72.7941 59.3353 75.5916 57.7666 77.3695 54.6292C79.1996 51.4919 80.1146 47.5963 80.1146 42.9426C80.1146 37.6613 79.1211 33.1383 77.1341 29.3735C75.1994 25.6086 72.2712 23.7262 68.3495 23.7262C64.4801 23.7262 61.5519 25.3211 59.5649 28.5107C57.6302 31.7004 56.6629 35.6221 56.6629 40.2758C56.6629 43.6223 57.1073 46.7597 57.9962 49.6879C58.9375 52.5638 60.3231 54.8907 62.1532 56.6685C64.0357 58.4464 66.3103 59.3353 68.977 59.3353Z" fill="currentColor"/>
  <path d="M113.289 62.4727C111.198 62.4727 109.132 62.1066 107.093 61.3746C105.054 60.6425 103.276 59.4137 101.759 57.6882L99.877 61.2177H97.1318L97.2886 12.1964C97.2886 10.2094 97.3671 8.51003 97.5239 7.09821L91.9551 7.41195V4.11772C95.0925 4.11772 97.3148 3.93471 98.622 3.56868C99.9815 3.20266 101.027 2.67976 101.759 2H104.034V25.3733C105.498 23.9092 107.224 22.785 109.211 22.0007C111.25 21.1641 113.472 20.7457 115.878 20.7457C119.224 20.7457 122.257 21.5562 124.976 23.1772C127.695 24.7982 129.813 27.125 131.329 30.1578C132.898 33.1906 133.682 36.694 133.682 40.668C133.682 45.008 132.741 48.8251 130.858 52.1194C128.976 55.4136 126.466 57.9758 123.329 59.8059C120.191 61.5837 116.845 62.4727 113.289 62.4727ZM113.289 59.2569C117.054 59.2569 120.035 57.7405 122.231 54.7077C124.479 51.6226 125.603 47.5963 125.603 42.6288C125.603 37.1385 124.584 32.7723 122.544 29.5304C120.505 26.2361 117.498 24.589 113.524 24.589C111.799 24.589 110.073 25.0073 108.348 25.8439C106.675 26.6283 105.237 27.7002 104.034 29.0597V48.9036C104.034 55.8058 107.119 59.2569 113.289 59.2569Z" fill="currentColor"/>
  <path d="M159.411 62.4727C155.803 62.4727 152.535 61.636 149.607 59.9628C146.731 58.2372 144.456 55.8058 142.783 52.6684C141.11 49.4787 140.273 45.8185 140.273 41.6876C140.273 38.0274 141.11 34.6024 142.783 31.4128C144.456 28.1708 146.783 25.5825 149.763 23.6478C152.796 21.7131 156.221 20.7457 160.038 20.7457C163.019 20.7457 165.712 21.3994 168.117 22.7066C170.522 24.0138 172.431 25.9747 173.843 28.5891C175.255 31.1513 175.96 34.3148 175.96 38.0797L148.352 38.5503C148.299 44.825 149.319 49.714 151.411 53.2174C153.554 56.7208 156.849 58.4725 161.293 58.4725C163.699 58.4725 166.156 57.845 168.666 56.5901C171.228 55.3352 173.189 53.7926 174.549 51.9625L176.431 53.5312C174.444 56.564 171.856 58.8124 168.666 60.2765C165.529 61.7406 162.444 62.4727 159.411 62.4727ZM168.588 35.256C168.588 32.1187 167.882 29.4258 166.47 27.1773C165.058 24.9289 162.94 23.8047 160.117 23.8047C153.633 23.8047 149.79 27.6218 148.587 35.256H168.588Z" fill="currentColor"/>
  <path d="M182.94 58.8647C184.457 58.8647 185.529 58.4987 186.156 57.7666C186.836 56.9823 187.228 56.0149 187.333 54.8645C187.49 53.6619 187.568 51.8056 187.568 49.2957V31.4128C187.568 29.2166 187.673 27.5172 187.882 26.3146L182.313 26.5499V23.3341H184.744C186.731 23.3341 188.169 23.1772 189.058 22.8635C189.947 22.4974 190.784 21.9484 191.568 21.2163H193.843C194.052 23.2556 194.183 25.844 194.235 28.9813C195.542 26.8374 197.398 24.9289 199.804 23.2556C202.261 21.5824 204.797 20.7457 207.412 20.7457C208.981 20.7457 210.288 21.1641 211.334 22.0007C212.379 22.8373 212.902 24.0661 212.902 25.6871C212.902 26.5237 212.562 27.3603 211.883 28.197C211.255 29.0336 210.34 29.4519 209.137 29.4519C207.987 29.4519 207.046 29.0336 206.314 28.197C205.582 27.3081 205.294 26.2623 205.451 25.0596C203.464 25.0073 201.451 25.7655 199.412 27.3342C197.425 28.9029 195.725 30.9945 194.313 33.6089L194.392 52.9037C194.392 55.2567 194.287 57.0346 194.078 58.2372L199.019 58.0019V61.2177H182.94V58.8647Z" fill="currentColor"/>
  <path d="M232.154 62.4727C224.99 62.4727 221.435 57.662 221.487 48.0408L221.644 25.2949L215.605 25.3733V22.0007C218.114 21.9484 220.232 20.8242 221.958 18.628C223.736 16.3796 225.043 13.8435 225.879 11.0199H228.546V22.0007H241.723V25.0596L228.546 25.2165C228.494 33.2168 228.442 38.7594 228.389 41.8445C228.389 44.9296 228.389 46.6551 228.389 47.0211C228.389 50.7337 228.834 53.505 229.723 55.3352C230.612 57.113 232.154 58.0019 234.35 58.0019C235.71 58.0019 237.043 57.5836 238.35 56.747C239.71 55.9103 240.886 54.76 241.88 53.2959L243.998 55.0214C241.958 58.0542 239.945 60.0673 237.958 61.0608C235.971 62.002 234.037 62.4727 232.154 62.4727Z" fill="currentColor"/>
  <path d="M269.207 58.6294C271.038 58.5771 272.345 58.1588 273.129 57.3744C273.914 56.5901 274.358 55.675 274.463 54.6292C274.567 53.5312 274.619 51.6487 274.619 48.982V15.0985C274.619 12.9023 274.698 11.0199 274.855 9.45124L269.207 9.76497V6.31387L287.718 6.23544C297.548 6.18315 305.339 8.48388 311.091 13.1376C316.843 17.7914 319.719 24.6936 319.719 33.8442C319.719 38.7594 318.569 43.3086 316.268 47.4917C313.967 51.6749 310.568 55.0214 306.071 57.5313C301.575 59.9889 296.163 61.2177 289.836 61.2177H269.207V58.6294ZM289.6 58.2372C293.993 58.2372 297.888 57.1653 301.287 55.0214C304.686 52.8776 307.326 49.9232 309.209 46.1584C311.091 42.3935 312.032 38.1842 312.032 33.5305C312.032 25.8962 309.941 19.9353 305.758 15.6475C301.575 11.3075 295.274 9.1375 286.855 9.1375C285.025 9.1375 283.718 9.50352 282.933 10.2356C282.149 10.9676 281.705 11.8827 281.6 12.9808C281.495 14.0266 281.443 15.8828 281.443 18.5496V51.9625C281.443 54.6815 281.365 56.7208 281.208 58.0803C283.038 58.1849 285.835 58.2372 289.6 58.2372Z" fill="currentColor"/>
  <path d="M345.768 62.4727C342.16 62.4727 338.892 61.636 335.964 59.9628C333.088 58.2372 330.814 55.8058 329.14 52.6684C327.467 49.4787 326.63 45.8185 326.63 41.6876C326.63 38.0274 327.467 34.6024 329.14 31.4128C330.814 28.1708 333.14 25.5825 336.121 23.6478C339.154 21.7131 342.579 20.7457 346.396 20.7457C349.376 20.7457 352.069 21.3994 354.474 22.7066C356.88 24.0138 358.788 25.9747 360.2 28.5891C361.612 31.1513 362.318 34.3148 362.318 38.0797L334.709 38.5503C334.657 44.825 335.676 49.714 337.768 53.2174C339.912 56.7208 343.206 58.4725 347.651 58.4725C350.056 58.4725 352.514 57.845 355.023 56.5901C357.586 55.3352 359.547 53.7926 360.906 51.9625L362.788 53.5312C360.801 56.564 358.213 58.8124 355.023 60.2765C351.886 61.7406 348.801 62.4727 345.768 62.4727ZM354.945 35.256C354.945 32.1187 354.239 29.4258 352.827 27.1773C351.416 24.9289 349.298 23.8047 346.474 23.8047C339.99 23.8047 336.147 27.6218 334.944 35.256H354.945Z" fill="currentColor"/>
  <path d="M369.298 58.8647C370.814 58.8647 371.886 58.4987 372.514 57.7666C373.193 56.9823 373.586 56.0411 373.69 54.943C373.795 53.7926 373.873 51.9102 373.925 49.2957L374.004 31.4128C374.004 29.2166 374.109 27.5172 374.318 26.3146L368.749 26.6283V23.3341C371.834 23.3341 373.952 23.1772 375.102 22.8635C376.252 22.4974 377.22 21.9484 378.004 21.2163H380.279C380.383 22.2098 380.488 23.8047 380.592 26.0008C382.37 24.4321 384.383 23.1772 386.632 22.236C388.933 21.2425 391.181 20.7457 393.377 20.7457C397.926 20.7457 401.247 22.1837 403.338 25.0596C405.43 27.8832 406.476 32.3017 406.476 38.315V52.9037C406.476 55.2567 406.371 57.0346 406.162 58.2372L411.103 58.0019V61.2177H395.103V58.8647C396.619 58.8647 397.691 58.4987 398.318 57.7666C398.998 56.9823 399.39 56.0149 399.495 54.8645C399.652 53.6619 399.73 51.8056 399.73 49.2957V38.315C399.678 33.8181 398.946 30.4454 397.534 28.197C396.122 25.8962 393.9 24.7459 390.867 24.7459C388.985 24.7459 387.102 25.2165 385.22 26.1577C383.39 27.0989 381.873 28.3277 380.671 29.8441C380.723 30.4193 380.749 31.4389 380.749 32.903L380.671 52.9037C380.671 55.2567 380.566 57.0346 380.357 58.2372L385.298 58.0019V61.2177H369.298V58.8647Z" fill="currentColor"/>
  <path d="M424.705 13.4514C423.607 13.4514 422.64 13.0069 421.803 12.118C420.967 11.1768 420.548 10.0787 420.548 8.82376C420.548 7.56882 420.967 6.47074 421.803 5.52953C422.692 4.58832 423.686 4.11772 424.784 4.11772C425.986 4.11772 426.98 4.58832 427.764 5.52953C428.601 6.41845 429.019 7.51653 429.019 8.82376C429.019 10.0787 428.575 11.1768 427.686 12.118C426.849 13.0069 425.856 13.4514 424.705 13.4514ZM416.94 58.8647C418.457 58.8647 419.529 58.4987 420.156 57.7666C420.836 56.9823 421.228 56.0149 421.333 54.8645C421.49 53.6619 421.568 51.8056 421.568 49.2957V31.4128C421.568 29.8964 421.673 28.197 421.882 26.3146L416.313 26.6283V23.3341C419.398 23.3341 421.594 23.1511 422.901 22.785C424.261 22.419 425.307 21.8961 426.039 21.2163H428.313V52.9037C428.313 55.2567 428.209 57.0346 428 58.2372L432.941 58.0019V61.2177H416.94V58.8647Z" fill="currentColor"/>
  <path d="M457.981 62.4727C454.373 62.4727 451.105 61.636 448.177 59.9628C445.301 58.2372 443.026 55.8058 441.353 52.6684C439.68 49.4787 438.843 45.8185 438.843 41.6876C438.843 38.0274 439.68 34.6024 441.353 31.4128C443.026 28.1708 445.353 25.5825 448.334 23.6478C451.366 21.7131 454.791 20.7457 458.609 20.7457C461.589 20.7457 464.282 21.3994 466.687 22.7066C469.093 24.0138 471.001 25.9747 472.413 28.5891C473.825 31.1513 474.531 34.3148 474.531 38.0797L446.922 38.5503C446.87 44.825 447.889 49.714 449.981 53.2174C452.125 56.7208 455.419 58.4725 459.863 58.4725C462.269 58.4725 464.726 57.845 467.236 56.5901C469.798 55.3352 471.759 53.7926 473.119 51.9625L475.001 53.5312C473.014 56.564 470.426 58.8124 467.236 60.2765C464.099 61.7406 461.014 62.4727 457.981 62.4727ZM467.158 35.256C467.158 32.1187 466.452 29.4258 465.04 27.1773C463.628 24.9289 461.511 23.8047 458.687 23.8047C452.203 23.8047 448.36 27.6218 447.157 35.256H467.158Z" fill="currentColor"/>
  <path d="M481.511 58.8647C483.027 58.8647 484.099 58.4987 484.726 57.7666C485.406 56.9823 485.798 56.0149 485.903 54.8645C486.06 53.6619 486.138 51.8056 486.138 49.2957V31.4128C486.138 29.2166 486.243 27.5172 486.452 26.3146L480.883 26.5499V23.3341H483.315C485.302 23.3341 486.74 23.1772 487.629 22.8635C488.517 22.4974 489.354 21.9484 490.138 21.2163H492.413C492.622 23.2556 492.753 25.844 492.805 28.9813C494.112 26.8374 495.969 24.9289 498.374 23.2556C500.832 21.5824 503.368 20.7457 505.982 20.7457C507.551 20.7457 508.858 21.1641 509.904 22.0007C510.95 22.8373 511.472 24.0661 511.472 25.6871C511.472 26.5237 511.133 27.3603 510.453 28.197C509.825 29.0336 508.91 29.4519 507.708 29.4519C506.557 29.4519 505.616 29.0336 504.884 28.197C504.152 27.3081 503.864 26.2623 504.021 25.0596C502.034 25.0073 500.021 25.7655 497.982 27.3342C495.995 28.9029 494.295 30.9945 492.884 33.6089L492.962 52.9037C492.962 55.2567 492.857 57.0346 492.648 58.2372L497.59 58.0019V61.2177H481.511V58.8647Z" fill="currentColor"/>
</svg>
