<svg viewBox="0 0 194 193" fill="none" xmlns="http://www.w3.org/2000/svg">
    <path d="M9.62547 192.96C7.31697 192.96 5.02047 192.081 3.26172 190.323C-0.253906 186.807 -0.253906 181.098 3.26172 177.58L117.262 63.918C120.777 60.4023 126.472 60.4023 129.989 63.918C133.507 67.4336 133.505 73.128 129.989 76.6455L16.3267 190.645C14.583 192.097 12.273 192.96 9.62547 192.96Z" fill="url(#paint0_linear_1217_187)"/>
    <!-- <path d="M9.62547 192.96C7.31697 192.96 5.02047 192.081 3.26172 190.323C-0.253906 186.807 -0.253906 181.098 3.26172 177.58L117.262 63.918C120.777 60.4023 126.472 60.4023 129.989 63.918C133.507 67.4336 133.505 73.128 129.989 76.6455L16.3267 190.645C14.583 192.097 12.273 192.96 9.62547 192.96Z" fill="url(#paint1_linear_1217_187)" fill-opacity="0.2"/> -->
    <path d="M182.275 92.5747L132.962 108.662H169.615C165.913 112.645 171.021 107.49 152.275 126.238L96.925 144.658H133.765C105.644 172.078 60.79 171.141 41.215 164.946C147.135 58.9364 122.119 58.4794 28.3262 152.95L28.2097 152.751C24.7447 141.167 17.2785 91.6636 49.416 59.6011L81.5685 27.4711C115.551 -6.51142 152.743 -5.63017 176.181 17.8036C195.175 36.7522 199.337 64.6372 182.275 92.5747Z" fill="url(#paint2_linear_1217_187)"/>
    <!-- <path d="M182.275 92.5747L132.962 108.662H169.615C165.913 112.645 171.021 107.49 152.275 126.238L96.925 144.658H133.765C105.644 172.078 60.79 171.141 41.215 164.946C147.135 58.9364 122.119 58.4794 28.3262 152.95L28.2097 152.751C24.7447 141.167 17.2785 91.6636 49.416 59.6011L81.5685 27.4711C115.551 -6.51142 152.743 -5.63017 176.181 17.8036C195.175 36.7522 199.337 64.6372 182.275 92.5747Z" fill="url(#paint3_radial_1217_187)"/> -->
    <defs>
        <linearGradient id="paint0_linear_1217_187" x1="0.962981" y1="192.96" x2="132.963" y2="60.9595" gradientUnits="userSpaceOnUse">
            <!-- red-800 -->
            <stop stop-color="#991b1b"/>
            <!-- orange-800 -->
            <stop offset="1" stop-color="#9a3412"/>
        </linearGradient>
        <!-- <linearGradient id="paint1_linear_1217_187" x1="0.962981" y1="192.96" x2="132.963" y2="60.9595" gradientUnits="userSpaceOnUse">
            <stop stop-color="#2E0401"/>
            <stop offset="1" stop-color="#910C04"/>
        </linearGradient> -->
        <linearGradient id="paint2_linear_1217_187" x1="190.818" y1="8.09064" x2="43.5455" y2="155.363" gradientUnits="userSpaceOnUse">
            <!-- amber-400 -->
            <stop stop-color="#fbbf24"/>
            <!-- red-500 -->
            <stop offset="1" stop-color="#ef4444"/>
        </linearGradient>
        <!-- <radialGradient id="paint3_radial_1217_187" cx="0" cy="0" r="1" gradientUnits="userSpaceOnUse" gradientTransform="translate(123.182 68.0906) rotate(131.525) scale(95.4421 95.7552)">
            <stop offset="0.692708" stop-opacity="0"/>
            <stop offset="1" stop-opacity="0.04"/>
        </radialGradient> -->
    </defs>
</svg>
