<svg viewBox="0 0 459 68" fill="none" xmlns="http://www.w3.org/2000/svg">
  <g clip-path="url(#clip0_1279_207)">
  <path d="M5.5198 59.3862C4.96935 59.3963 4.42244 59.2963 3.91117 59.0921C3.3999 58.8879 2.93459 58.5836 2.54255 58.1971C1.93119 57.6131 1.48664 56.8765 1.25473 56.0635C0.956335 55.0987 0.875565 54.0442 0.794796 53.0189C0.698322 51.7625 0.678129 50.5016 0.678129 49.2407C0.678129 46.6269 0.743193 44.0266 0.743193 41.424C0.743193 40.208 0.729732 38.9897 0.687104 37.7715C0.644476 36.5016 0.570437 35.2317 0.462745 33.9574C0.352809 32.7705 0.310181 31.5792 0.310181 30.3833C0.310181 27.3612 0.583899 24.3256 0.738706 21.326C0.841911 19.1923 1.00121 17.0385 1.06178 14.8936C1.08646 14.0702 1.08422 13.2446 1.08422 12.4256C1.06351 11.0988 1.11144 9.77185 1.22781 8.45C1.34042 7.43855 1.38315 6.42054 1.35569 5.40321C1.3355 4.97468 1.26595 4.45192 1.26595 3.9359C1.23841 3.47695 1.34772 3.02015 1.58005 2.6234C1.87707 2.25864 2.24109 1.95403 2.65249 1.72596C3.02419 1.47853 3.44661 1.31753 3.88871 1.25481C4.65601 1.23237 5.90794 1.88974 6.61915 2.21731C7.33037 2.54487 7.51659 3.04968 7.95409 3.63077C8.62717 4.5282 8.83358 4.95897 8.94351 6.12788C9.10057 7.77917 9.26883 9.52692 9.26883 11.1962C9.26883 12.2798 9.28454 13.3455 9.298 14.4224C9.298 14.6603 9.25762 15.1157 9.2621 15.4881C9.2621 15.8202 9.30922 16.0872 9.45281 16.0872C9.53807 16.0872 9.73326 15.8628 9.90153 15.5936C10.2497 14.9563 10.5606 14.2993 10.8326 13.626C11.4092 12.3651 11.9858 11.0638 12.5714 9.81186C12.9255 9.044 13.3342 8.30247 13.7942 7.59295C14.3241 6.76374 14.9458 5.99684 15.6474 5.30673C16.3902 4.6063 17.2381 4.02642 18.1602 3.58814C18.8594 3.21176 19.6024 2.92314 20.3724 2.72885C20.706 2.65978 21.0458 2.62519 21.3865 2.62564C22.3579 2.62564 23.1611 2.89712 24.0631 3.31442C24.6949 3.58273 25.3022 3.90553 25.8781 4.27917C26.5057 4.69294 26.9875 5.29328 27.2557 5.99551C27.6483 6.97596 28.2272 7.89583 28.5861 8.88526C28.7387 9.40231 28.8364 9.93397 28.8778 10.4715C28.9401 11.0677 28.9708 11.6669 28.9698 12.2663C28.9448 13.0602 28.9989 13.8546 29.1313 14.6378C29.2799 15.3628 29.3551 16.101 29.3557 16.841C29.3395 17.7816 29.2382 18.7188 29.0528 19.641C28.8818 20.6171 28.6388 21.5793 28.3259 22.5196C28.2025 22.8875 28.115 23.325 27.8929 23.6413C27.6708 23.9577 27.2198 24.1484 27.0179 24.5388C26.8451 24.8753 26.8788 25.1715 26.6163 25.5125C26.3538 25.8535 26.0217 26.0218 25.7817 26.3202C25.6493 26.4817 25.5573 26.7936 25.4249 26.9237C25.14 27.1885 24.7204 27.1481 24.4041 27.3724C24.0877 27.5968 23.8813 28.0321 23.6031 28.3035C23.3249 28.575 22.9301 28.851 22.6159 29.1494C22.0906 29.6717 21.4699 30.0883 20.7874 30.3766C20.3387 30.601 20.1143 30.8253 20.1143 31.1619C20.1352 31.3868 20.2124 31.6028 20.3387 31.7901C20.8076 32.591 21.3438 33.3022 21.7454 34.1593C22.147 35.0163 22.4858 35.851 22.8942 36.7058C23.3535 37.5811 23.7669 38.4797 24.1326 39.3981C24.7833 41.2378 25.0076 43.2436 25.7996 45.0362C26.1474 45.8215 26.6342 46.5439 26.9865 47.3314C27.3656 48.1795 27.6595 49.05 28.1083 49.8599C28.4016 50.4506 28.7541 51.0098 29.1605 51.5292C29.7775 52.2337 30.7086 52.4513 31.3637 53.0997C31.4588 53.1799 31.5368 53.2785 31.5931 53.3895C31.6494 53.5005 31.6827 53.6217 31.6913 53.7458C31.6913 54.1631 31.2807 54.5199 30.7781 54.7554C30.3794 54.9327 29.9468 55.0208 29.5105 55.0135C28.5721 55.0082 27.6487 54.7773 26.8182 54.3404C25.6448 53.7391 24.6419 52.8103 23.7131 51.8724C22.3108 50.4478 21.4538 48.7314 20.498 47.0038C19.9533 46.073 19.459 45.1137 19.0172 44.1298C18.6627 43.2817 18.4339 42.4112 18.149 41.4936C17.8304 40.466 17.4534 39.4631 17.0518 38.4715C16.6502 37.4798 16.206 36.4522 15.7775 35.4538C15.5823 34.9917 15.3938 34.4801 15.1762 33.9843C14.9379 33.3829 14.5962 32.8278 14.1666 32.3442C13.8035 31.9505 13.3239 31.6832 12.798 31.5814C12.4448 31.5536 12.0962 31.4843 11.7592 31.375C11.4788 31.2471 11.2679 30.8792 10.9986 30.7849C10.9436 30.7633 10.885 30.7519 10.8259 30.7513C10.5836 30.7513 10.5185 31.0093 10.5185 31.3391C10.5185 31.7048 10.597 32.1603 10.597 32.6157C10.597 33.8654 10.3727 34.884 10.3727 36.1449C10.4056 37.0185 10.4873 37.8896 10.6172 38.7542C10.6949 39.447 10.7331 40.1436 10.7317 40.8407C10.7264 42.0479 10.6311 43.2531 10.4467 44.4462C10.3121 45.3436 10.3458 46.241 10.265 47.1385C10.1842 48.0359 9.99576 48.8997 9.99576 49.8173C9.99576 50.9907 9.85217 52.1776 9.85217 53.3532C9.84339 54.0116 9.90583 54.6691 10.0384 55.3141C10.1076 55.6167 10.1437 55.9259 10.1461 56.2362C10.1461 57.1696 9.69736 57.7394 9.02428 58.2554C8.02357 59.0168 6.79241 59.4127 5.5355 59.3772L5.5198 59.3862ZM13.1323 28.649C14.1823 28.649 15.1986 28.5032 15.9323 27.6821C16.5251 26.9807 17.0036 26.1902 17.3502 25.3397C17.799 24.3324 18.1422 23.2622 18.499 22.3221C18.8803 21.3138 19.1694 20.273 19.3627 19.2125C19.5538 18.1554 19.6894 17.089 19.7688 16.0176C19.8563 14.9766 20.0179 13.8593 20.1749 12.733C20.3908 11.3562 20.516 9.96665 20.5496 8.5734C20.5496 7.2766 20.4756 5.91026 19.6522 5.91026C19.347 5.93676 19.0577 6.05751 18.8243 6.25577C18.1519 6.7699 17.5826 7.40624 17.1461 8.13141C16.6121 8.95705 16.1746 9.85897 15.7147 10.6891C15.2899 11.4632 14.9065 12.2593 14.5659 13.074C14.1733 13.9827 13.7942 14.8958 13.3275 15.7865C13.0403 16.334 12.4682 16.767 12.2506 17.301C12.1496 17.55 12.1945 17.808 12.1496 18.0638C12.0711 18.5125 11.8669 18.849 11.7323 19.2641C11.472 20.0673 11.5528 20.9356 11.4877 21.768C11.3804 22.7186 11.2156 23.6619 10.9942 24.5926C10.8057 25.5215 10.4602 26.4189 10.2942 27.3455C10.2472 27.5717 10.2187 27.8013 10.2089 28.0321C10.2089 28.5301 10.4916 28.6064 11.4631 28.6064C11.9926 28.6154 12.5736 28.649 13.1323 28.649V28.649Z" fill="currentColor"/>
  <path d="M57.2816 47.6029C57.0814 47.6365 56.8788 47.653 56.6758 47.6522C56.0413 47.6292 55.4137 47.512 54.8136 47.3045C54.4691 47.2156 54.1201 47.1452 53.7681 47.0936C53.356 47.0363 52.9514 46.9348 52.5611 46.7907C52.2313 46.6494 52.1124 46.3869 51.8723 46.1446C51.4886 45.7676 51.0085 45.5365 50.5912 45.2067C50.0948 44.7942 49.6989 44.274 49.4335 43.6856C49.0697 43.0162 48.7843 42.307 48.5832 41.5721C48.433 40.7903 48.372 39.994 48.4015 39.1984C48.4015 38.5388 48.4374 38.3144 48.4374 37.6615C48.4374 37.0939 48.4015 36.5397 48.2534 36.5397C48.029 36.5397 47.8473 37.1478 47.6072 37.9263C47.338 38.799 47.0239 39.867 46.9543 40.0936C46.7031 40.917 46.5752 41.8167 46.1601 42.5772C45.7373 43.2845 45.2626 43.9595 44.7399 44.5965C43.9143 45.6891 43.1043 46.4923 41.7133 46.6269C41.1928 46.6785 40.6835 46.7279 40.1809 46.7279C39.4211 46.7491 38.6676 46.5835 37.9867 46.2455C36.6505 45.5817 35.454 44.6678 34.462 43.5532C33.4866 42.4209 32.8041 41.0666 32.4742 39.609C32.253 38.6451 32.1453 37.6587 32.1534 36.6699C32.1534 34.4981 32.6021 32.2926 33.0822 30.2263C33.4188 28.7635 33.4098 27.276 33.7216 25.8221C33.787 25.3599 34.0183 24.9373 34.3723 24.633C34.5226 24.4917 34.7873 24.2853 34.9646 24.1439C35.4739 23.7446 35.622 23.7378 36.1918 23.6122C37.4275 23.337 38.7181 23.4531 39.8848 23.9442C41.0582 24.4468 41.3678 25.9208 41.3678 27.1099C41.3678 28.4808 40.9191 29.8673 40.7486 31.2247C40.6891 31.7145 40.6621 32.2076 40.6678 32.701C40.6678 33.1497 40.6813 33.6141 40.6813 34.0673C40.6863 34.529 40.6631 34.9905 40.6117 35.4494C40.5332 36.0731 40.4771 36.6788 40.4547 37.2869C40.4309 37.8673 40.4406 38.4486 40.4838 39.0279C40.4995 39.2141 40.5018 39.4228 40.5018 39.6426V40.0577C40.4779 40.5417 40.5271 41.0265 40.6476 41.4958C40.8091 41.9849 41.3386 42.6176 41.6146 43.0663C41.8524 43.4567 42.1037 43.6115 42.3527 43.6115C43.0729 43.6115 43.7729 42.3125 44.0511 41.5923C44.6704 39.9792 45.3232 38.3683 45.9043 36.7394C46.3912 35.3731 46.9521 34.0359 47.1473 32.5933C47.2837 31.7529 47.5202 30.9319 47.8518 30.1478C48.1627 29.4015 48.4287 28.6373 48.6482 27.8593C48.8053 27.2401 48.8861 26.3785 49.0454 25.5663C49.1867 24.8394 49.3931 24.1506 49.7768 23.6997C50.129 23.2869 50.5822 23.1612 51.0915 23.0468C51.4729 22.9615 51.9374 22.8449 52.395 22.7596C52.7385 22.688 53.0876 22.6475 53.4383 22.6385C53.7016 22.6441 53.9593 22.7158 54.1877 22.8471C54.3607 22.9534 54.5571 23.0158 54.7598 23.0288C55.1704 23.0288 55.6572 23.5359 55.7537 23.9644C55.7665 24.0272 55.7725 24.0911 55.7716 24.1551C55.7716 24.6779 55.4216 25.3555 55.3005 25.8064C55.1188 26.4795 55.2197 27.0987 55.2197 27.7875C55.2197 28.3304 55.0178 28.9362 55.0178 29.5106C55.0178 30.141 55.204 30.8051 55.2422 31.4311C55.2691 31.8147 55.4284 33.0532 55.4284 33.4503C55.4284 34.2401 55.1502 35.0388 55.1053 35.8308C55.0672 36.551 55.1053 37.3048 55.0268 38.0183C54.964 38.5253 54.863 38.3974 54.7531 38.8013C54.721 38.9312 54.7059 39.0646 54.7082 39.1984C54.7082 39.8715 55.0021 40.7913 55.1412 41.3186C55.305 41.9401 55.5563 42.5369 55.6931 43.1606C55.7803 43.6017 55.8972 44.0365 56.0431 44.4619C56.1643 44.8276 56.3146 45.1596 56.5502 45.1596C56.7857 45.1596 57.2232 44.5965 57.3489 44.4619C58.3361 43.4006 59.0091 42.0455 59.6822 40.7756C60.6874 38.8753 61.4973 36.8853 62.3162 34.9019C62.7425 33.8699 63.171 32.8401 63.6332 31.826C63.7992 31.4603 64.2524 30.2151 64.8268 30.2151C65.363 30.2151 65.5447 30.933 65.5447 31.4356C65.5447 32.3981 64.7101 33.0465 64.5261 33.9663C64.4284 34.6543 64.2784 35.3338 64.0774 35.999C63.0341 38.9157 61.9281 41.9894 60.2072 44.601C59.7585 45.274 59.1998 45.8753 58.7399 46.5484C58.3069 47.1833 58.0848 47.4795 57.2883 47.6096L57.2816 47.6029ZM38.4803 17.3481C37.9322 16.8994 37.5242 16.303 37.3047 15.6295C37.2221 15.3055 37.1828 14.9721 37.188 14.6378C37.1921 14.2533 37.2221 13.8696 37.2777 13.4891C37.3164 13.1339 37.411 12.7871 37.5582 12.4615C37.6226 12.3573 37.6597 12.2384 37.6659 12.116C37.6659 11.9679 37.6143 11.858 37.6143 11.7369C37.6143 11.3756 37.9329 11.2567 38.3412 11.1446C38.7619 11.0172 39.1967 10.9419 39.6357 10.9202C40.4045 10.9574 41.1567 11.1561 41.8434 11.5035C42.4963 11.8244 43.2502 12.2641 43.2502 13.074C43.186 13.8325 43.0145 14.5781 42.7409 15.2885C42.4901 15.979 42.1738 16.6439 41.7963 17.274C41.4777 17.8103 41.1232 18.1872 40.5489 18.1872C39.7799 18.1702 39.0438 17.8716 38.4803 17.3481V17.3481ZM49.2047 17.8327C48.6115 17.5622 48.1073 17.1289 47.7508 16.583C47.4165 16.0894 47.062 15.3737 47.0777 14.7612C47.1095 14.3603 47.1901 13.9647 47.3178 13.5833C47.4294 13.1773 47.5797 12.7829 47.7665 12.4054C48.1367 11.6606 48.7761 11.508 49.5322 11.508C50.2502 11.508 50.9075 11.5641 51.5313 11.9567C52.155 12.3494 52.6688 12.8138 53.279 13.1907C53.7098 13.4599 54.0867 13.8391 54.0755 14.3125C54.0703 14.4803 54.0224 14.644 53.9364 14.7881C53.5886 15.4006 52.9874 15.9099 52.5319 16.4506C52.0765 16.9913 51.612 17.725 50.9861 18.0212C50.8207 18.096 50.6403 18.1321 50.4588 18.1266C50.0259 18.1094 49.6002 18.0097 49.2047 17.8327Z" fill="currentColor"/>
  <path d="M72.5986 67.692C72.139 67.6805 71.6843 67.5941 71.2525 67.4362C70.6647 67.2455 70.0858 66.9875 69.6057 66.8058C68.9072 66.5703 68.2865 66.1483 67.8108 65.5853C67.2028 64.8337 66.9717 63.8913 66.9717 62.8795C66.9717 61.4615 67.4204 59.9112 67.9252 58.5696C68.5288 56.9385 69.4958 55.6103 70.3932 54.1385C71.2435 52.7362 72.4124 51.7019 73.4871 50.459C74.4698 49.3237 75.522 48.2737 76.4935 47.1317C77.0522 46.4766 77.7073 45.8304 78.0932 45.0519C78.4095 44.4125 78.4387 43.791 78.4387 43.1359C78.4387 42.2385 78.5127 41.3298 78.589 40.4167C78.6698 39.4385 78.7551 38.4558 78.7551 37.4821C78.7551 36.3042 78.5801 34.0965 78.5756 34.0965C78.5756 33.1833 78.4163 32.3016 78.2906 32.3016C78.0394 32.3016 77.6759 33.1205 77.1374 34.4106C76.9131 34.9333 76.9131 35.7074 76.7717 36.266C76.5527 36.9738 76.2475 37.6519 75.8631 38.2853C75.5179 38.831 75.2213 39.4061 74.9769 40.0038C74.7525 40.6567 74.3801 41.0359 74.057 41.6304C73.7339 42.225 73.7676 42.7096 73.2493 43.2167C72.8698 43.5446 72.564 43.949 72.3519 44.4035C71.8134 45.4311 70.7297 46.8513 69.599 47.2484C69.3035 47.3481 68.9931 47.3967 68.6813 47.392C67.739 47.392 66.6935 47.0308 65.9374 46.692C64.9256 46.2433 64.0349 45.3458 63.3124 44.4484C62.0964 42.9497 61.365 41.1705 61.365 39.3196C61.3839 37.6278 61.5612 35.9414 61.8945 34.2827C62.1817 32.757 62.5518 31.0587 63.2653 29.6699C63.9137 28.4045 64.9368 27.4577 65.7063 26.2821C66.0934 25.6399 66.5445 25.0386 67.0525 24.4872C67.6559 23.871 68.4305 23.4505 69.2759 23.2801C70.3685 23.0333 71.7708 22.524 72.8252 22.524C73.9717 22.524 75.1227 23.1321 76.2108 23.6301C76.6733 23.8083 77.106 24.0557 77.4942 24.3638C77.8486 24.6599 78.1268 24.8776 78.506 24.8776C78.966 24.8776 79.3855 22.9772 79.5919 22.5083C79.8791 21.8554 80.3233 20.7628 81.0121 20.4308C81.4562 20.2025 81.9466 20.079 82.4458 20.0696C82.814 20.0771 83.177 20.1576 83.514 20.3062C83.8509 20.4548 84.1551 20.6688 84.4089 20.9356C85.5509 22.0372 85.6608 23.0333 85.6608 24.4468C85.6608 26.0734 85.7506 27.7651 85.6474 29.4029C85.6204 29.8516 85.6025 30.3676 85.6025 30.8904C85.5938 31.7336 85.6531 32.5762 85.7797 33.4099C85.9922 34.6279 86.0675 35.8659 86.0041 37.1006C85.9817 37.5628 85.874 38.0923 85.874 38.5949C85.8681 38.843 85.9045 39.0904 85.9817 39.3263C86.0938 39.6516 86.206 39.775 86.3227 39.775C86.5111 39.775 86.7512 39.5035 87.1483 39.2388C88.2958 38.4417 89.3239 37.4853 90.2019 36.3984C91.2294 35.1846 92.1605 33.8631 93.0894 32.6651C93.6458 31.9471 94.2082 31.2329 94.7765 30.5224C95.0009 30.242 95.6919 29.0372 96.1227 29.0372C96.2732 29.0321 96.4232 29.0573 96.5637 29.1114C96.7042 29.1654 96.8324 29.2473 96.9407 29.3519C97.0489 29.4566 97.135 29.582 97.1937 29.7207C97.2525 29.8593 97.2827 30.0084 97.2826 30.159C97.2826 30.6077 96.3134 31.808 96.0935 32.1782C95.2887 33.4897 94.3849 34.7377 93.39 35.9115C92.966 36.4343 92.5464 37.1971 91.999 37.601C91.5099 37.9599 90.9018 38.5567 90.4172 38.9763C89.8294 39.4856 89.1563 39.9881 88.5932 40.4593C88.2145 40.79 87.8528 41.1397 87.5095 41.5071C87.1416 41.8952 86.0355 42.7433 85.8672 43.2077C85.845 43.2742 85.8344 43.344 85.8358 43.4141C85.8358 43.7462 86.0176 44.1792 86.0176 44.5135C86.0176 44.9622 85.8515 45.3099 85.8156 45.7362C85.7753 46.2253 85.7663 46.7189 85.7551 47.2103C85.7662 48.0945 85.6567 48.9761 85.4297 49.8308C85.1381 50.7888 84.9092 51.6997 84.7163 52.6061C84.4291 53.9388 84.0118 55.2715 83.6797 56.6176C83.3649 57.8556 82.9252 59.0583 82.3672 60.2074C81.8562 61.2631 81.2862 62.2893 80.6599 63.2811C80.3749 63.7298 80.2583 64.0305 79.8993 64.3468C79.7983 64.4365 79.5336 64.8337 79.4506 64.8942C79.2486 65.0401 78.8134 65.1298 78.6631 65.2308C77.8531 65.7849 77.7454 66.4042 76.8682 66.734C76.2672 66.9423 75.6392 67.0625 75.0038 67.0907C74.1736 67.1445 73.882 67.3891 73.1573 67.6224C72.9755 67.673 72.7873 67.6965 72.5986 67.692ZM68.4817 44.4529C68.8563 44.4529 69.5765 43.9212 70.0051 43.3311C70.6377 42.4628 71.1695 41.4779 71.7506 40.5715C72.7692 38.9853 73.5656 37.1859 74.3374 35.4673C74.8019 34.4353 75.3785 33.4997 75.8833 32.526C76.2545 31.8316 76.5552 31.1018 76.7807 30.3474C77.0746 29.3154 77.4246 28.2901 77.6669 27.2446C77.7111 27.0773 77.7374 26.9058 77.7454 26.733C77.7454 26.3785 77.1778 26.1609 76.5743 26.1609C75.2124 26.1609 74.1647 27.101 73.4624 28.6535C72.7602 30.2061 71.957 31.6913 71.091 33.1968C70.6475 34.0389 70.2883 34.9226 70.0185 35.8353C69.6775 36.8651 69.424 37.7558 69.1435 38.817C68.9192 39.7144 68.6813 40.6455 68.5153 41.5699C68.3632 42.3614 68.2806 43.1646 68.2685 43.9705C68.273 44.3026 68.3874 44.4529 68.4817 44.4529ZM71.3983 65.3631C71.847 65.3631 72.2554 65.0288 72.6256 64.6474C73.6554 63.5885 74.0233 62.5474 74.6022 61.2103C75.2752 59.6397 75.9797 58.1208 76.59 56.5548C76.848 55.8952 77.0051 55.2266 77.2249 54.5356C77.4493 53.8154 77.7454 53.0772 77.9137 52.3189C78.1076 51.506 78.2508 50.6817 78.3422 49.851C78.3624 49.6401 78.3759 49.4695 78.3759 49.3394C78.3759 49.142 78.3445 49.0388 78.2547 49.0388C78.165 49.0388 77.9653 49.1779 77.6579 49.4696C77.0701 50.0304 76.4397 50.5667 75.8631 51.1433C75.5264 51.5053 75.2195 51.894 74.9454 52.3054C74.676 52.7054 74.3638 53.0747 74.0144 53.4071C73.4692 53.8849 73.164 54.0644 72.7512 54.6994C72.4758 55.0907 72.1474 55.4418 71.7752 55.7426C71.4065 56.0398 71.0837 56.3899 70.8172 56.7814C70.3416 57.5487 70.1105 58.4349 69.9018 59.3189C69.6343 60.3997 69.4839 61.5062 69.4531 62.6192C69.4531 63.5167 70.1935 64.7372 70.7813 65.1478C70.9614 65.285 71.1809 65.3606 71.4073 65.3631H71.3983Z" fill="currentColor"/>
  <path d="M95.5864 47.4615C94.8708 46.9439 94.1957 46.3724 93.5672 45.7519C92.6192 44.8451 91.8777 43.7447 91.3931 42.5256C90.9037 41.1583 90.6607 39.715 90.6752 38.2628C90.6764 37.4504 90.7424 36.6394 90.8726 35.8375C91.0613 34.6481 91.3182 33.4705 91.6422 32.3106C91.9564 31.1683 92.353 30.0503 92.829 28.9654C93.2714 27.9562 93.7881 26.9813 94.3749 26.0487C94.9672 25.1154 95.546 24.1327 96.1697 23.2285C96.6981 22.5013 97.3654 21.8859 98.1329 21.4179C99.0734 20.8488 100.091 20.4188 101.155 20.1413C101.571 20.0395 101.997 19.9898 102.425 19.9933C103.148 20.0109 103.869 20.086 104.581 20.2176C105.03 20.2894 105.508 20.3096 105.864 20.5878C106.288 20.9448 106.665 21.3541 106.986 21.8061C107.226 22.1381 107.237 22.5465 107.531 22.8269C107.931 23.2038 108.168 23.4103 108.236 24.0115C108.273 24.3311 108.291 24.6524 108.292 24.974C108.292 25.2213 108.279 25.4684 108.254 25.7144C108.209 26.1835 108.102 26.6445 107.935 27.0853C107.762 27.534 107.875 28.0029 107.711 28.4314C107.513 28.9407 107.307 29.2974 107.217 29.8583C107.148 30.3535 107.047 30.8436 106.914 31.3256C106.757 31.8619 106.526 32.3644 106.169 32.6224C106.053 32.7077 105.889 32.7077 105.77 32.8019C105.613 32.9298 105.546 33.1542 105.431 33.3067C105.105 33.6694 104.748 34.0028 104.363 34.3029C103.995 34.6103 103.562 34.7516 103.141 34.9625C102.719 35.1734 102.319 35.4606 101.815 35.5526C101.265 35.6535 101.209 35.6804 100.895 36.1292C100.581 36.5779 100.316 36.9054 100.184 37.4551C100.085 37.8657 99.9592 38.2718 99.8335 38.6801C99.6361 39.2746 99.5067 39.8895 99.4476 40.5131C99.4341 40.7375 99.4297 40.9619 99.4297 41.1862C99.4297 41.9894 99.5015 42.8083 99.5306 43.6048C99.5643 44.4619 99.7864 45.6397 100.269 46.3734C100.787 47.1609 102.095 47.3494 102.961 47.3494C103.973 47.3494 105.252 46.4699 105.999 45.9583C106.93 45.3189 107.659 44.399 108.325 43.4904C108.889 42.7298 109.333 41.9378 109.826 41.1212C110.554 39.9623 111.217 38.7639 111.812 37.5314C112.261 36.5397 112.748 35.5526 113.185 34.5519C113.66 33.5017 114.055 32.4172 114.367 31.3077C114.457 30.9622 114.367 30.3833 114.592 30.0984C114.672 29.9932 114.773 29.9059 114.889 29.8422C115.005 29.7784 115.133 29.7396 115.265 29.7282C115.392 29.7149 115.52 29.7311 115.639 29.7755C115.759 29.8199 115.866 29.8912 115.954 29.984C116.203 30.242 116.16 31.0295 116.194 31.3638C116.205 31.4621 116.21 31.561 116.209 31.6599C116.192 32.1449 116.108 32.6252 115.958 33.0869C115.817 33.6305 115.644 34.1654 115.44 34.6888C115.256 35.1375 114.991 35.5144 114.852 35.9721C114.535 36.8735 114.171 37.7572 113.759 38.6196C113.589 39.001 113.56 39.407 113.43 39.8042C113.266 40.3067 113.066 40.8026 112.887 41.2984C112.693 41.8068 112.468 42.3029 112.214 42.7837C111.989 43.2324 111.68 43.5599 111.449 43.9862C110.895 44.9594 110.223 45.86 109.447 46.6673C109.2 46.9232 108.983 47.2071 108.801 47.5131C108.424 48.1593 107.868 48.4958 107.347 48.8369C105.88 49.7926 104.707 50.2279 102.916 50.2279C100.298 50.2234 97.6999 49.0321 95.5864 47.4615ZM103.829 30.924C104.48 29.9396 104.981 28.8646 105.317 27.7337C105.686 26.6907 105.891 25.5973 105.927 24.4917C105.927 23.5808 105.808 22.7372 105.122 22.7327C104.924 22.7437 104.733 22.8047 104.565 22.9099C104.304 23.0683 104.077 23.2779 103.898 23.5262C103.72 23.7745 103.593 24.0564 103.526 24.3548C103.433 24.7133 103.363 25.0775 103.318 25.4452C103.25 25.941 102.995 26.2978 102.869 26.742C102.719 27.267 102.252 27.8167 101.972 28.2833C101.636 28.7509 101.389 29.2765 101.245 29.8337C101.117 30.4394 101.074 31.0519 100.924 31.6554C100.799 32.1036 100.724 32.564 100.7 33.0285C100.7 33.3696 100.783 33.6276 101.045 33.6208C101.227 33.5966 101.399 33.5246 101.543 33.4122C102.436 32.7974 103.199 31.8215 103.82 30.9218L103.829 30.924Z" fill="currentColor"/>
  <path d="M115.126 47.7981C113.901 46.7212 113.58 45.0003 113.58 43.2458C113.58 41.8436 113.786 40.4189 113.901 39.2837C114.181 36.5128 114.228 33.6949 114.285 30.9061C114.311 29.4724 114.374 28.0455 114.439 26.6141C114.473 25.8378 114.538 25.0436 114.509 24.2673C114.502 23.9277 114.453 23.5902 114.365 23.2622C114.28 22.975 113.843 22.4455 113.869 22.1561C113.903 21.7859 114.525 21.7567 114.863 21.6715C115.317 21.5211 115.762 21.3428 116.194 21.1375C116.401 21.0616 116.62 21.0236 116.84 21.0253C117.211 21.0442 117.579 21.0991 117.939 21.1891C118.754 21.3506 119.647 21.4359 120.407 21.7635C121.168 22.091 121.48 22.4769 121.666 22.966C121.852 23.4551 121.89 23.9712 122.043 24.6173C122.147 25.0961 122.195 25.5857 122.184 26.0756C122.184 26.4324 122.171 26.7913 122.171 27.1458C122.159 27.6278 122.207 28.1094 122.314 28.5795C122.371 28.8228 122.399 29.0722 122.395 29.3221C122.392 29.6401 122.365 29.9575 122.312 30.2712C122.282 30.4483 122.267 30.6277 122.267 30.8074C122.267 31.2785 122.413 31.6397 122.413 32.2298C122.413 32.701 122.213 34.2199 122.213 35.0679C122.213 35.4045 122.27 35.5369 122.361 35.5369C122.586 35.5369 122.922 34.8189 123.333 33.9327C123.782 32.9545 124.307 31.7901 124.412 31.5881C125.025 30.4058 125.758 29.1022 126.615 28.0881C127.194 27.4254 127.904 26.8897 128.701 26.5148C129.497 26.1399 130.362 25.9338 131.242 25.9096C131.807 25.8954 132.368 26.0013 132.889 26.2202C133.41 26.4391 133.879 26.7661 134.264 27.1795C134.773 27.7268 135.168 28.3703 135.425 29.0723C135.682 29.7743 135.796 30.5206 135.76 31.2673C135.76 32.5619 136.036 33.7801 136.047 35.0814C136.085 36.3967 136.207 37.7082 136.413 39.0077C136.548 39.9433 136.379 40.8856 136.68 41.8099C136.904 42.4673 137.353 42.7074 137.838 42.7074C138.427 42.6707 138.983 42.4258 139.408 42.0163C140.023 41.4235 140.57 40.7652 141.042 40.0532C141.49 39.4071 141.885 38.7317 142.228 38.1125C142.645 37.3288 142.988 36.5078 143.252 35.6603C143.427 35.1353 143.723 35.0679 143.911 34.6013C144.122 34.0763 144.223 33.4907 144.456 32.9433C144.741 32.2702 144.932 31.5388 145.275 30.8971C145.306 30.8246 145.357 30.762 145.421 30.7161C145.485 30.6703 145.56 30.6428 145.639 30.6369C146.087 30.6369 146.471 31.0856 146.471 31.5792C146.389 32.2304 146.239 32.8712 146.022 33.4907C145.909 33.9024 145.751 34.3004 145.551 34.6776C144.999 35.4471 144.815 36.2481 144.578 37.1926C144.254 38.4874 143.755 39.7315 143.092 40.8901C142.296 42.2657 141.334 43.539 140.229 44.6817C139.462 45.4894 138.567 46.0167 137.566 46.0167C137.163 46.0141 136.763 45.9333 136.391 45.7788C135.119 45.2696 133.723 45.1058 132.563 44.3362C130.907 43.2413 129.911 41.5968 129.339 39.784C128.867 38.1774 128.64 36.5089 128.666 34.8346C128.666 33.9686 128.744 31.5365 128.744 30.7154C128.744 30.3497 128.722 29.901 128.547 29.726C128.516 29.689 128.477 29.6591 128.433 29.6383C128.39 29.6174 128.342 29.606 128.294 29.6048C127.887 29.6048 127.47 30.399 127.297 30.6885C126.554 31.9473 125.879 33.246 125.278 34.5788C124.65 35.9753 124.106 37.4086 123.652 38.8708C123.232 40.217 122.682 41.5272 122.305 42.8846C121.877 44.3788 121.973 45.909 121.585 47.4054C121.197 48.9019 119.79 49.2587 118.413 49.2721C117.408 49.2901 115.873 48.4554 115.126 47.7981Z" fill="currentColor"/>
  <path d="M160.767 58.4013C160.767 58.0378 160.949 57.5891 160.992 57.3311C161.095 56.731 161.143 56.1227 161.135 55.5138C161.135 54.6163 161.068 53.701 161.068 52.8215C161.068 51.0984 161.169 49.3753 161.27 47.6612C161.364 45.9942 161.46 44.3272 161.46 42.658C161.46 40.2125 161.44 37.7468 161.342 35.3103C161.236 32.6651 160.971 30.0446 160.971 27.3971C160.971 24.2875 161.169 21.1644 161.31 18.0413C161.38 16.5224 161.501 15.0237 161.609 13.5115C161.723 11.9051 161.833 10.2853 161.833 8.61378C161.833 7.96763 161.79 7.29006 161.79 6.62596C161.784 6.13615 161.82 5.64668 161.898 5.16314C162.01 4.55288 162.405 4.22981 162.76 3.75192C163.114 3.27404 163.392 2.78269 163.805 2.29808C164.18 1.86282 164.658 1.625 165.084 1.25256C165.645 0.776923 166.177 0.3125 166.879 0.3125C167.821 0.3125 168.64 1.08654 169.044 1.91667C169.546 2.95321 170.065 3.86635 170.489 4.94327C170.937 6.06506 171.292 7.21603 171.765 8.38494C172.239 9.55385 172.346 10.7744 172.779 11.9321C173.212 13.0897 173.755 14.2317 174.031 15.4679C174.152 16.0064 174.146 16.5359 174.294 17.0744C174.464 17.6981 174.725 18.2904 174.823 18.9321C174.906 19.466 174.879 19.9865 175.048 20.5026C175.25 21.0859 175.649 21.5862 175.932 22.1292C176.555 23.325 176.802 24.6689 177.352 25.9029C177.605 26.4944 177.799 27.11 177.928 27.7404C178.106 28.5458 178.236 29.358 178.478 30.1635C178.837 31.3526 179.47 32.3913 179.654 33.6276C179.759 34.3119 179.917 34.987 180.127 35.6468C180.28 36.1402 180.458 36.6255 180.661 37.1006C180.919 37.6997 181.076 38.3615 181.35 38.9471C181.543 39.3599 181.778 39.692 181.976 40.051C182.142 40.3402 182.261 40.6536 182.33 40.9798C182.445 41.5385 182.725 41.9962 182.828 42.5503C182.898 42.934 182.938 43.4478 183.033 43.8606C183.127 44.2734 183.257 44.5516 183.517 44.5516C183.966 44.5516 184.004 42.8151 184.004 42.6894C184.004 40.7487 184.206 37.4215 184.206 36.0103C184.206 34.6641 184.278 33.3179 184.278 31.9561C184.278 30.8612 184.246 29.7686 184.143 28.6894C184.049 27.6888 183.966 26.7061 183.919 25.7256C183.867 24.8462 183.838 23.9689 183.838 23.0804C183.838 19.7981 184.006 16.509 184.035 13.2199C184.053 11.2994 184.06 9.38109 184.071 7.46506C184.071 6.28269 184.101 4.93878 184.52 3.80801C184.795 3.00107 185.353 2.32111 186.091 1.89423C186.353 1.72279 186.655 1.62088 186.968 1.59808C187.764 1.59808 187.843 2.68846 187.843 3.75417C187.843 5.29551 188.081 6.4016 188.081 7.60641C188.077 7.95484 188.05 8.30264 188 8.64744C187.872 9.6593 187.971 10.7295 187.986 11.7481C188.009 13.0651 188.137 14.3686 188.262 15.6744C188.399 17.099 188.536 18.5282 188.536 19.9821C188.536 21.8038 188.462 23.6234 188.55 25.4519C188.581 26.1048 188.624 26.7667 188.624 27.4263C188.627 27.8808 188.6 28.335 188.543 28.7859C188.404 29.8179 188.22 30.8208 188.22 31.8574C188.22 32.7952 188.265 33.6949 188.265 34.5878C188.265 35.8846 188.15 37.1567 188.058 38.4804C187.986 39.499 187.811 40.5154 187.776 41.534C187.776 41.7583 187.776 41.9984 187.776 42.2295C187.776 42.5436 187.776 42.8554 187.776 43.1651C187.782 43.6949 187.757 44.2246 187.699 44.7513C187.612 45.4914 187.57 46.2362 187.574 46.9814C187.574 48.4599 187.713 49.9228 187.82 51.4035C187.843 51.7042 187.865 51.9913 187.865 52.2673C187.897 52.848 187.715 53.42 187.354 53.876C186.577 54.8407 185.014 55.4801 183.923 55.4801C182.945 55.4801 181.985 55.0314 181.007 54.5176C180.174 54.1129 179.377 53.6393 178.624 53.1019C176.959 51.8006 176.015 49.9609 175.216 48.0426C174.016 45.1686 172.972 42.2385 171.967 39.2926C171.265 37.2061 170.59 35.1083 169.91 33.0106C169.522 31.8103 169.152 30.601 168.788 29.3894C168.395 28.0971 168.01 26.8003 167.608 25.5103C167.26 24.3885 167.056 23.2532 166.627 22.1449C166.562 21.9811 166.228 21.0635 165.954 20.3321C165.712 19.7083 165.528 19.2417 165.326 19.2417C165.124 19.2417 165.075 20.2019 165.075 20.7763C165.075 21.9228 165.272 24.6712 165.272 26.042C165.272 26.5782 165.201 27.4173 165.201 27.9535C165.201 28.824 165.243 29.6968 165.252 30.5651C165.27 32.2433 165.277 33.9192 165.23 35.5974C165.187 37.1343 165.109 38.6622 165.046 40.1923C164.996 41.3792 164.956 42.5683 164.947 43.7641C164.947 45.4446 164.815 47.1026 164.723 48.7673C164.655 50.0058 164.606 51.2487 164.635 52.5029C164.635 52.7272 164.635 52.9516 164.635 53.176C164.646 53.6749 164.598 54.1733 164.494 54.6612C164.441 54.8764 164.414 55.0971 164.413 55.3186C164.413 55.6865 164.501 55.9917 164.501 56.5369C164.514 56.7621 164.483 56.9877 164.407 57.2005C164.332 57.4132 164.215 57.6087 164.063 57.7753C163.697 58.1612 163.132 58.3766 162.493 58.6324C162.123 58.8094 161.725 58.9203 161.317 58.9599C161.242 58.9702 161.165 58.9629 161.094 58.9384C161.022 58.914 160.957 58.8731 160.904 58.8191C160.85 58.765 160.811 58.6993 160.787 58.6272C160.764 58.555 160.758 58.4784 160.769 58.4035L160.767 58.4013Z" fill="currentColor"/>
  <path d="M216.648 49.2811C215.414 49.2811 213.938 48.4644 212.821 47.5131C211.989 46.7878 211.274 45.9378 210.703 44.9936C210.043 43.9436 209.668 42.6468 209.473 41.3163C209.307 40.1131 209.256 38.8969 209.321 37.684C209.332 37.4596 209.352 36.9952 209.352 36.7147C209.352 36.5106 209.305 36.4051 209.206 36.4006C209.108 36.3962 209.002 36.5106 208.818 36.7978C208.528 37.3044 208.271 37.8289 208.049 38.3683C207.6 39.3577 206.927 40.2619 206.478 41.2423C206.285 41.6551 206.283 42.1285 206.072 42.5369C205.827 43.0192 205.327 43.3715 205.074 43.8292C204.869 44.2461 204.692 44.6755 204.542 45.1147C204.365 45.593 204.053 46.0098 203.644 46.3151C203.227 46.6337 203.005 46.7638 202.716 46.8311C202.385 46.8732 202.05 46.8852 201.717 46.867C201.199 46.867 200.746 47.1048 200.236 47.1048C199.431 47.1048 198.821 46.5641 198.201 46.158C197.685 45.8215 197.08 45.5949 196.604 45.2202C195.417 44.3048 194.524 42.8734 194.004 41.5699C193.45 40.1744 193.31 38.8888 193.31 37.3587C193.31 34.866 194.484 31.8843 195.68 29.6317C196.238 28.584 196.858 27.3679 197.65 26.3314C198.233 25.4986 199.01 24.8197 199.913 24.3526C201.032 23.8634 202.244 23.6223 203.465 23.6458C204.178 23.6663 204.878 23.8448 205.513 24.1686C206.13 24.4535 206.725 24.8035 207.351 25.0795C207.931 25.314 208.485 25.6104 209.002 25.9635C209.327 26.2035 209.734 26.8452 210.03 26.8452C210.404 26.8452 210.683 26.3516 210.999 25.7952C211.291 25.2814 211.627 24.7138 211.807 24.4288C212.466 23.3833 212.639 22.6564 213.785 22.6564C214.455 22.6617 215.122 22.7369 215.775 22.8808C216.574 23.058 217.449 23.3654 217.842 23.8904C217.939 23.9945 218 24.1277 218.015 24.2696C218.015 24.4042 217.934 24.5141 217.923 24.7676C217.907 25.176 217.945 25.5394 217.945 25.9208C217.945 26.659 217.923 27.4442 217.923 28.2497C217.93 28.7274 217.896 29.2049 217.819 29.6766C217.617 30.832 217.191 32.0144 217.113 33.1856C217.074 33.6635 217.006 34.1386 216.909 34.608C216.769 35.248 216.67 35.8962 216.612 36.5487C216.489 38.4154 216.262 40.3808 216.188 42.3103C216.15 43.1685 216.156 44.0282 216.206 44.8859C216.229 45.2516 216.312 46.2321 216.906 46.2321C217.324 46.2321 217.875 45.7968 218.158 45.6038C219.28 44.8356 220.22 43.8308 220.911 42.6603C221.638 41.4734 222.363 40.2978 222.865 38.992C223.168 38.2022 223.583 37.4686 223.843 36.6923C223.996 36.2684 224.08 35.8232 224.095 35.3731C224.202 34.2168 224.449 33.0777 224.831 31.9808C225.12 31.1955 225.486 30.5897 225.908 30.5897C226.132 30.5897 226.392 30.776 226.659 31.2157C226.805 31.4469 226.882 31.7143 226.884 31.9875C226.884 32.7234 226.356 33.4212 226.195 34.1817C226.067 34.7897 225.746 35.1958 225.555 35.7814C225.349 36.4051 225.225 37.0333 224.981 37.6503C224.503 38.8574 224.162 40.0958 223.711 41.3074C223.534 41.7853 223.397 42.2811 223.247 42.7724C223.065 43.4639 222.782 44.1246 222.408 44.7333C221.757 45.7224 221.006 46.6405 220.164 47.4728C219.159 48.4487 217.976 49.2676 216.648 49.2676V49.2811ZM202.536 43.2705C203.021 42.5491 203.44 41.7855 203.788 40.9888C204.205 40.0756 204.584 39.1378 205.015 38.2606C205.446 37.3833 205.975 36.5151 206.46 35.6401C206.848 34.962 207.185 34.2564 207.47 33.5288C207.782 32.6942 208.035 31.8237 208.39 31.0071C208.524 30.6974 208.818 30.2667 209.036 29.8516C209.18 29.6087 209.269 29.3366 209.296 29.0551C209.296 28.7724 209.038 28.5638 208.704 28.4067C208.317 28.2456 207.918 28.1166 207.51 28.0208C207.205 27.9307 206.89 27.8817 206.572 27.875C206.103 27.8658 205.647 28.0341 205.296 28.3462C204.663 28.8981 204.237 29.6923 203.846 30.5157C203.569 31.1416 203.255 31.7506 202.906 32.3397C202.505 32.9612 202.475 33.4077 202.222 34.074C201.968 34.7404 201.625 35.2609 201.482 36.008C201.311 36.9054 201.105 37.7378 200.941 38.6061C200.75 39.5539 200.652 40.5179 200.647 41.4846C200.631 42.2181 200.765 42.9471 201.04 43.6272C201.219 44.076 201.385 44.2375 201.475 44.2375C201.865 44.2375 202.352 43.5353 202.536 43.2705V43.2705Z" fill="currentColor"/>
  <path d="M230.126 55.1032C228.701 55.1032 227.323 54.5244 226.163 53.7055C225.528 53.271 225.022 52.6734 224.698 51.9756C224.285 51.0782 224.18 50.0731 224.18 49.0253C224.18 48.5115 224.205 47.991 224.234 47.4683C224.292 46.3644 224.283 45.2561 224.259 44.1455C224.234 42.9856 224.191 41.8256 224.191 40.6679C224.191 39.9433 224.18 39.1737 224.18 38.393C224.153 36.9282 224.228 35.4634 224.404 34.009C224.513 33.1211 224.559 32.2267 224.541 31.3324C224.541 29.7035 224.64 28.1622 224.642 26.5603C224.642 26.1115 224.844 25.7907 224.844 25.3891C224.844 24.8596 224.757 24.5522 224.763 24.1394C224.766 24.0215 224.776 23.9039 224.792 23.7872C224.842 23.4356 224.865 23.0809 224.862 22.726C224.862 21.6266 224.692 20.4824 224.692 19.4324C224.68 18.5061 224.725 17.5801 224.826 16.6593C224.864 16.2734 225.037 15.6631 225.037 15.0888C225.037 14.759 224.862 14.2923 224.041 14.2923C222.677 14.2653 221.317 14.1552 219.967 13.9625C218.315 13.7606 217.124 13.3926 217.124 12.7263C217.124 12.0128 220.334 11.7705 220.893 11.6942C221.625 11.591 222.356 11.5035 223.09 11.4183C223.399 11.3801 224.644 11.4183 224.864 11.1625C224.965 11.0458 224.923 10.0654 224.923 9.64583C224.923 8.91667 225.026 8.18974 225.037 7.46058C225.037 7.11507 224.965 6.49135 224.965 5.8766C224.965 5.01955 225.118 4.09295 225.863 4.05705H226.069C226.742 4.05705 227.225 4.22532 227.848 4.36891C228.393 4.49455 229.114 4.65609 229.719 4.81763C230.011 4.87177 230.294 4.96694 230.559 5.10032C230.788 5.24952 230.969 5.46238 231.079 5.71282C231.337 6.22436 231.721 6.63494 231.934 7.17789C232.143 7.7545 232.262 8.35991 232.286 8.97276C232.286 9.26218 232.165 9.92404 232.165 10.3638C232.165 10.891 232.495 10.9808 233.356 10.9808C234.121 10.9808 235.248 10.9314 235.948 10.9314C237.294 10.9314 238.64 10.9314 239.986 10.8663C240.197 10.8551 240.468 10.8349 240.753 10.8349C241.525 10.8349 242.389 10.9808 242.405 11.8423C242.425 12.9282 241.112 13.2199 240.311 13.3814C239.015 13.6191 237.706 13.7876 236.392 13.8862C235.517 13.9647 234.839 14.0208 234.198 14.0635H233.722C233.273 14.0635 232.768 14.0792 232.567 14.225C232.425 14.3282 232.376 14.6064 232.376 14.9654C232.376 15.8224 232.661 17.1417 232.692 17.5926C232.773 18.7413 232.804 19.899 232.816 21.0567C232.831 22.4276 232.816 23.7984 232.838 25.1603C232.854 26.7308 232.952 28.2833 233.044 29.8359C233.132 31.3256 233.213 32.8154 233.213 34.3231C233.213 35.1442 233.213 35.9676 233.186 36.791C233.157 38.0183 233.105 39.2455 233.017 40.4705C232.982 40.9596 232.968 41.451 232.968 41.9401C232.968 43.8 233.166 45.6577 233.166 47.5154C233.166 48.8952 233.009 50.275 233.087 51.6503C233.109 52.0519 233.177 52.5164 233.177 52.9628C233.177 53.6202 233.033 54.2349 232.394 54.5468C231.691 54.9183 230.911 55.1211 230.117 55.1391L230.126 55.1032Z" fill="currentColor"/>
  <path d="M262.649 47.6029C262.449 47.6364 262.247 47.6529 262.045 47.6522C261.41 47.6293 260.781 47.5121 260.181 47.3045C259.836 47.2154 259.487 47.145 259.135 47.0936C258.723 47.0363 258.318 46.9348 257.928 46.7907C257.598 46.6494 257.479 46.3869 257.239 46.1446C256.858 45.7676 256.375 45.5365 255.958 45.2067C255.462 44.7936 255.067 44.2735 254.8 43.6856C254.436 43.0166 254.152 42.3073 253.952 41.5721C253.801 40.7904 253.74 39.9941 253.768 39.1984C253.768 38.5388 253.804 38.3144 253.804 37.6615C253.804 37.0939 253.768 36.5397 253.62 36.5397C253.396 36.5397 253.217 37.1478 252.976 37.9263C252.707 38.799 252.391 39.867 252.321 40.0936C252.072 40.917 251.942 41.8167 251.529 42.5772C251.106 43.2841 250.631 43.9589 250.109 44.5965C249.283 45.6891 248.471 46.4923 247.083 46.6269C246.56 46.6785 246.05 46.7279 245.548 46.7279C244.789 46.7494 244.036 46.5837 243.356 46.2455C242.019 45.5815 240.822 44.6676 239.829 43.5532C238.855 42.4241 238.173 41.0738 237.841 39.6202C237.621 38.6562 237.513 37.6699 237.52 36.6811C237.52 34.5093 237.969 32.3038 238.449 30.2375C238.788 28.7747 238.779 27.2872 239.089 25.8333C239.154 25.3711 239.385 24.9485 239.739 24.6442C239.89 24.5029 240.157 24.2965 240.334 24.1551C240.841 23.7558 240.989 23.749 241.559 23.6234C242.795 23.3482 244.086 23.4642 245.254 23.9554C246.427 24.458 246.735 25.9321 246.735 27.1212C246.735 28.492 246.286 29.8785 246.118 31.2359C246.058 31.7257 246.031 32.2188 246.037 32.7122C246.037 33.1609 246.05 33.6253 246.05 34.0785C246.055 34.5402 246.031 35.0018 245.979 35.4606C245.902 36.0843 245.846 36.6901 245.822 37.2981C245.798 37.8785 245.808 38.4599 245.853 39.0391C245.867 39.2253 245.869 39.434 245.869 39.6538V40.0577C245.845 40.5417 245.894 41.0265 246.015 41.4958C246.178 41.9849 246.708 42.6176 246.982 43.0663C247.219 43.4567 247.471 43.6115 247.722 43.6115C248.442 43.6115 249.142 42.3125 249.42 41.5923C250.037 39.9792 250.692 38.3683 251.271 36.7394C251.758 35.3731 252.321 34.0359 252.514 32.5933C252.652 31.7531 252.888 30.9322 253.219 30.1478C253.53 29.4015 253.796 28.6373 254.015 27.8593C254.175 27.2401 254.253 26.3785 254.412 25.5663C254.554 24.8394 254.762 24.1506 255.144 23.6997C255.496 23.2869 255.949 23.1612 256.458 23.0468C256.84 22.9615 257.304 22.8449 257.762 22.7596C258.105 22.6881 258.455 22.6476 258.805 22.6385C259.069 22.6441 259.326 22.7158 259.555 22.8471C259.728 22.9538 259.926 23.0162 260.129 23.0288C260.537 23.0288 261.026 23.5359 261.123 23.9644C261.135 24.0273 261.141 24.0911 261.141 24.1551C261.141 24.6779 260.789 25.3554 260.667 25.8064C260.486 26.4795 260.587 27.0987 260.587 27.7875C260.587 28.3304 260.385 28.9362 260.385 29.5106C260.385 30.141 260.571 30.8051 260.609 31.4311C260.634 31.8147 260.795 33.0532 260.795 33.4503C260.795 34.2401 260.515 35.0388 260.472 35.8308C260.432 36.551 260.472 37.3048 260.392 38.0183C260.329 38.5253 260.228 38.3974 260.118 38.8013C260.086 38.9312 260.071 39.0646 260.073 39.1984C260.073 39.8715 260.367 40.7913 260.506 41.3186C260.672 41.9401 260.923 42.5369 261.058 43.1606C261.146 43.6018 261.263 44.0365 261.41 44.4619C261.529 44.8276 261.682 45.1596 261.915 45.1596C262.148 45.1596 262.588 44.5965 262.714 44.4619C263.701 43.4006 264.374 42.0455 265.047 40.7756C266.054 38.8753 266.862 36.8853 267.683 34.9019C268.107 33.8699 268.536 32.8401 268.998 31.826C269.164 31.4603 269.617 30.2151 270.191 30.2151C270.73 30.2151 270.909 30.933 270.909 31.4356C270.909 32.3981 270.075 33.0465 269.891 33.9663C269.794 34.6545 269.644 35.3341 269.442 35.999C268.399 38.9157 267.293 41.9894 265.572 44.601C265.123 45.274 264.565 45.8753 264.105 46.5484C263.674 47.1833 263.45 47.4795 262.653 47.6096L262.649 47.6029Z" fill="currentColor"/>
  <path d="M269.815 50.7327C268.507 49.9205 267.874 48.5946 267.715 47.0913C267.609 45.963 267.563 44.8299 267.578 43.6968C267.578 40.4952 267.968 35.6199 267.968 31.5567C267.968 29.6093 268.02 27.6663 268.105 25.7234C268.125 25.2433 268.329 24.7205 268.305 24.2561C268.291 23.8994 268.141 23.6212 268.141 23.2599C268.141 22.8628 268.199 22.4859 268.199 22.0978C268.199 21.8869 268.143 21.649 268.148 21.4718C268.152 21.2946 268.204 21.1891 268.401 21.1891C268.453 21.1891 268.643 21.2407 268.738 21.2407C268.924 21.2407 269.144 21.0837 269.337 21.0365C269.814 20.9357 270.301 20.886 270.788 20.8885C271.208 20.8885 271.634 20.8615 272.06 20.8615C272.633 20.8518 273.205 20.8999 273.768 21.0051C274.587 21.1756 275.219 21.5256 275.625 22.2772C276.007 23.0706 276.195 23.9435 276.173 24.8237C276.173 25.6404 276.227 26.4615 276.173 27.276C276.146 27.6776 276.198 27.9154 276.198 28.2362C276.198 28.5234 276.303 29.017 276.512 29.0103C276.846 28.999 276.96 28.3372 277.234 27.8683C277.43 27.5286 277.656 27.2066 277.907 26.9058C278.414 26.3045 278.885 25.6718 279.397 25.0772C279.879 24.5447 280.442 24.0905 281.064 23.7311C281.738 23.3256 282.468 23.0231 283.231 22.8337C283.746 22.7149 284.273 22.6532 284.802 22.6497C285.843 22.6497 286.989 22.9301 286.989 23.9779C286.989 24.3503 286.776 24.3593 286.487 24.4558C286.159 24.5953 285.856 24.7861 285.589 25.0212C284.961 25.4833 284.243 25.7256 283.523 25.9814C282.844 26.2226 282.208 26.5702 281.638 27.0112C281.008 27.4674 280.515 28.0884 280.214 28.8061C279.942 29.5442 279.518 30.2061 279.211 30.9442C278.876 31.7452 278.524 32.5417 278.219 33.3561C277.914 34.1705 277.723 35.0051 277.416 35.8106C277.126 36.5511 276.912 37.3194 276.779 38.1035C276.714 38.5029 276.725 38.9853 276.588 39.3644C276.478 39.6628 276.229 39.8625 276.139 40.1766C275.944 40.8497 275.915 41.6821 275.836 42.3798C275.811 42.6393 275.799 42.8999 275.801 43.1606C275.801 43.7417 275.848 44.325 275.877 44.9061C275.888 45.1304 275.893 45.3346 275.893 45.5455C275.893 46.2186 275.818 47.0106 275.818 47.576C275.818 47.9237 275.866 48.249 275.866 48.5744C275.886 48.9662 275.765 49.3523 275.525 49.6625C275.06 50.2526 274.645 50.8045 274.017 51.2218C273.702 51.429 273.33 51.534 272.953 51.5224C272.625 51.5107 272.296 51.4815 271.971 51.4349C271.208 51.3693 270.47 51.129 269.815 50.7327V50.7327Z" fill="currentColor"/>
  <path d="M328.648 58.4327C328.15 58.4327 327.609 58.5965 327.091 58.5965C326.212 58.5965 324.848 58.1926 323.95 57.7417C322.828 57.1808 322.265 56.4494 322.115 55.2288C322.09 55.0337 322.102 54.4862 322.115 53.7503C322.16 52.3436 322.254 50.2526 322.254 48.6305C322.254 47.9574 322.254 47.2843 322.254 46.6292C322.272 44.7087 322.317 42.7949 322.411 40.8744C322.434 40.4481 322.635 39.3577 322.635 38.5478C322.66 38.2607 322.607 37.9722 322.481 37.7131C322.427 37.6369 322.375 37.601 322.324 37.601C321.969 37.601 321.686 39.2141 321.59 39.5529C320.917 41.9244 319.887 44.0199 318.987 46.2837C318.222 48.2199 316.993 49.5638 315.552 50.9817C314.794 51.7266 314.375 52.218 313.255 52.4894C312.553 52.6519 311.835 52.731 311.115 52.725C310.62 52.7241 310.126 52.6918 309.636 52.6285C307.46 52.3436 305.629 50.966 304.429 49.1824C302.903 46.9208 302.205 44.2061 301.889 41.4285C301.682 39.3375 301.593 37.2363 301.624 35.1353C301.621 32.3661 301.785 29.5993 302.113 26.8497C302.418 24.3279 302.549 21.8263 302.802 19.3067C302.937 17.9763 303.125 16.6526 303.336 15.3333C303.605 13.6551 303.913 11.9837 304.2 10.3099C304.518 8.44776 304.812 6.58109 304.999 4.70096C305.05 4.18718 305.035 3.43782 305.149 2.76474C305.194 2.30848 305.378 1.87704 305.676 1.52853C306.078 1.13141 306.832 0.992308 307.538 0.992308C307.916 0.989528 308.292 1.02942 308.66 1.11122C309.558 1.31987 310.04 2.00865 310.7 2.56506C311.743 3.43782 311.96 4.22083 311.96 5.78686C311.96 6.82115 311.723 7.81955 311.723 8.86058C311.723 10.0631 312.362 11.0099 312.362 12.2013C312.362 13.3926 312.093 14.6131 312.093 15.7843C312.093 16.8792 312.346 17.9987 312.362 19.1048C312.38 20.4038 312.362 21.7074 312.438 23.0064C312.454 23.3093 312.559 23.7019 312.559 24.0183C312.559 24.6128 312.362 24.8596 312.362 25.5013C312.362 26.0779 312.45 26.65 312.445 27.2244C312.441 27.7987 312.416 28.308 312.4 28.8532C312.385 29.3625 312.023 29.6385 312.023 30.1074C312.023 30.5763 312.12 31.0407 312.12 31.5433C312.093 32.5465 311.97 33.5449 311.754 34.525C311.657 35.1186 311.604 35.7185 311.595 36.3199C311.583 36.9202 311.538 37.5194 311.46 38.1147C311.406 38.4861 311.381 38.8612 311.386 39.2365C311.386 39.6538 311.406 40.0734 311.406 40.4929C311.411 40.8918 311.383 41.2903 311.321 41.6843C311.182 42.5032 310.991 43.1202 310.991 43.8135C310.991 44.1229 311.029 44.4312 311.106 44.7311C311.211 45.1574 311.222 46.1378 311.433 47.0644C311.676 48.1212 312.151 49.1083 312.874 49.1083C313.183 49.0844 313.475 48.959 313.706 48.7516C314.397 48.2109 315.052 47.1676 315.552 46.4362C316.256 45.338 316.831 44.162 317.264 42.9317C318.083 40.7532 318.743 38.4446 319.445 36.2256C319.709 35.363 319.918 34.4848 320.073 33.5962C320.313 32.2926 320.484 30.9824 320.746 29.6676C320.991 28.4449 321.307 27.2356 321.527 26.0061C321.747 24.7766 321.751 23.592 321.933 22.3917C322.084 21.4404 322.512 20.5542 322.743 19.6163C323.077 18.25 323.448 16.8837 323.661 15.4949C323.824 14.3332 323.922 13.1631 323.952 11.9904C324.006 10.6016 324.022 9.20833 324.127 7.82628C324.21 6.75609 324.421 5.71955 324.462 4.64263C324.477 4.20737 324.433 3.61058 324.65 3.21346C324.758 3.01827 325.032 2.92404 325.137 2.72212C325.22 2.56506 325.153 2.23301 325.263 2.10064C325.444 1.87628 326.07 1.81571 326.634 1.81571C326.924 1.81379 327.214 1.83103 327.502 1.86731C328.305 1.98846 329.712 2.31603 330.118 3.09904C330.283 3.47221 330.359 3.8783 330.342 4.2859C330.342 4.89615 330.277 5.5468 330.367 6.06282C330.564 7.18462 330.728 8.30641 330.91 9.41026C331.077 10.5243 331.164 11.6491 331.168 12.7756C331.193 14.0298 331.509 15.0955 331.709 16.3093C331.731 16.4481 331.742 16.5883 331.742 16.7288C331.742 17.4019 331.493 18.0212 331.493 18.683C331.493 19.4391 331.879 21.2811 331.879 22.0237C331.879 23.0109 331.758 23.8994 331.758 24.8013C331.756 25.191 331.784 25.5802 331.841 25.9657C331.936 26.5598 331.994 27.1593 332.016 27.7606C332.032 28.2554 332.017 28.7507 331.971 29.2436C331.94 29.6738 331.94 30.1057 331.971 30.5359C332.043 31.2417 332.063 31.9518 332.032 32.6606C331.987 33.2035 331.807 33.724 331.807 34.2535C331.807 34.7247 331.875 35.151 331.85 35.6176C331.844 35.7486 331.829 35.879 331.805 36.008C331.76 36.2728 331.635 36.3625 331.639 36.6317C331.639 37.1186 331.881 37.6032 331.863 38.1327C331.842 38.6866 331.782 39.2384 331.684 39.784C331.58 40.3484 331.518 40.9199 331.5 41.4936C331.5 42.391 331.832 43.2167 331.832 44.0872C331.832 44.5359 331.608 45.0968 331.608 45.5478C331.608 46.0571 331.783 46.3801 331.857 46.8356C331.915 47.2336 331.942 47.6358 331.935 48.0381C331.935 48.3276 331.935 48.617 331.935 48.9087C331.935 49.3013 332.092 49.7814 332.092 50.1718C332.078 50.441 332.044 50.7088 331.989 50.9728C331.98 51.0562 331.975 51.1401 331.976 51.224C331.976 51.5337 332.041 51.85 332.041 52.1978C332.041 52.3974 331.94 52.7048 331.94 52.9112C331.94 53.1176 332.139 53.2904 332.139 53.4856C332.139 53.8647 331.861 54.051 331.87 54.4122C331.87 54.8205 332.121 55.1167 332.121 55.5474C332.098 56.06 332.032 56.5696 331.922 57.0708C331.697 57.8651 330.629 58.5987 329.815 58.5987C329.31 58.6144 328.974 58.4327 328.648 58.4327Z" fill="currentColor"/>
  <path d="M339.664 50.7327C338.354 49.9205 337.724 48.5946 337.562 47.0913C337.458 45.963 337.412 44.8299 337.425 43.6968C337.425 40.4952 337.818 35.6199 337.818 31.5567C337.818 29.6093 337.867 27.6663 337.953 25.7234C337.973 25.2433 338.177 24.7205 338.152 24.2561C338.139 23.8994 337.988 23.6212 337.988 23.2599C337.988 22.8628 338.047 22.4859 338.047 22.0978C338.047 21.8869 337.991 21.649 337.995 21.4718C338 21.2946 338.053 21.1891 338.251 21.1891C338.3 21.1891 338.491 21.2407 338.585 21.2407C338.771 21.2407 338.991 21.0837 339.184 21.0365C339.661 20.9357 340.148 20.886 340.636 20.8885C341.055 20.8885 341.482 20.8615 341.908 20.8615C342.48 20.8516 343.053 20.8997 343.615 21.0051C344.434 21.1756 345.067 21.5256 345.473 22.2772C345.855 23.0706 346.043 23.9435 346.02 24.8237C346.02 25.6404 346.074 26.4615 346.02 27.276C345.994 27.6776 346.045 27.9154 346.045 28.2362C346.045 28.5234 346.151 29.017 346.359 29.0103C346.694 28.999 346.808 28.3372 347.082 27.8683C347.278 27.5286 347.503 27.2066 347.755 26.9058C348.262 26.3045 348.735 25.6718 349.247 25.0772C349.728 24.5442 350.29 24.0899 350.912 23.7311C351.586 23.3252 352.317 23.0227 353.081 22.8337C353.596 22.7146 354.123 22.6529 354.652 22.6497C355.69 22.6497 356.837 22.9301 356.837 23.9779C356.837 24.3503 356.612 24.3593 356.336 24.4558C356.009 24.5942 355.705 24.7852 355.439 25.0212C354.809 25.4833 354.093 25.7256 353.37 25.9814C352.692 26.2226 352.055 26.5702 351.486 27.0112C350.855 27.4674 350.362 28.0884 350.061 28.8061C349.792 29.5442 349.366 30.2061 349.058 30.9442C348.726 31.7452 348.372 32.5417 348.067 33.3561C347.761 34.1705 347.571 35.0051 347.263 35.8106C346.973 36.5511 346.76 37.3194 346.626 38.1035C346.561 38.5029 346.572 38.9853 346.436 39.3644C346.328 39.6628 346.079 39.8625 345.987 40.1766C345.792 40.8497 345.762 41.6821 345.684 42.3798C345.659 42.6393 345.647 42.8999 345.648 43.1606C345.648 43.7417 345.697 44.325 345.724 44.9061C345.724 45.1304 345.74 45.3346 345.74 45.5455C345.74 46.2186 345.668 47.0106 345.668 47.576C345.668 47.9237 345.713 48.249 345.713 48.5744C345.733 48.9662 345.612 49.3523 345.372 49.6625C344.908 50.2526 344.495 50.8045 343.864 51.2218C343.549 51.4293 343.178 51.5343 342.801 51.5224C342.472 51.5107 342.144 51.4815 341.818 51.4349C341.056 51.3692 340.319 51.129 339.664 50.7327V50.7327Z" fill="currentColor"/>
  <path d="M367.821 52.6218C365.387 52.5769 362.403 51.4484 360.736 49.6199C360.063 48.8728 359.334 48.0853 358.818 47.1519C358.122 45.8933 357.824 44.4013 357.552 42.999C357.245 41.28 357.103 39.5355 357.128 37.7894C357.128 36.5465 357.175 35.3035 357.223 34.083C357.279 32.6583 357.447 31.2381 357.635 29.8202C357.86 28.124 358.158 26.4346 358.376 24.7452C358.753 21.8285 359.127 18.9433 359.767 16.0737C360.065 14.7276 360.29 13.3657 360.592 12.0353C360.846 10.8376 361.218 9.66812 361.703 8.54423C362.229 7.4196 362.994 6.42397 363.947 5.62756C364.863 4.85286 365.875 4.19841 366.958 3.68013C367.716 3.30545 368.432 2.93974 369.179 2.93974C369.632 2.94353 370.075 3.08087 370.451 3.33461C370.864 3.59711 371.476 3.95609 371.727 4.37564C372.049 4.94258 372.305 5.54488 372.488 6.17051C372.611 6.58558 372.82 6.95128 372.955 7.36186C373.148 7.9609 373.154 8.60705 373.278 9.21731C373.467 10.1997 373.558 11.1986 373.549 12.199C373.549 13.0449 373.533 13.8862 373.491 14.7276C373.45 15.4971 373.383 16.2644 373.28 17.0295C373.214 17.6923 373.106 18.3502 372.957 18.9994C372.771 19.6881 372.347 20.2625 372.129 20.9244C371.947 21.4763 372.026 22.091 371.853 22.6474C371.67 23.1248 371.444 23.585 371.18 24.0228C370.837 24.6958 370.458 25.3083 370.114 25.9478C369.784 26.5402 369.518 27.1659 369.32 27.8144C369.167 28.3372 369.064 28.8913 368.932 29.4343C368.798 30.1598 368.51 30.8483 368.088 31.4535C367.761 31.8798 367.442 32.351 367 32.6763C366.776 32.8401 366.551 32.932 366.383 33.0554C366.28 33.1265 366.192 33.2171 366.124 33.3222C366.056 33.4273 366.009 33.5448 365.986 33.6679C365.955 33.8154 365.94 33.9659 365.941 34.1167C365.941 34.4667 366.006 34.8256 366.006 35.1734C366.006 35.7298 365.809 36.2256 365.809 36.7663C365.801 37.3334 365.862 37.8993 365.993 38.4513C366.08 38.808 366.291 39.1558 366.273 39.4385C366.255 39.7212 366.141 40.0958 366.116 40.3718C365.991 41.792 366.157 42.9654 366.426 44.3654C366.684 45.7115 366.733 47.3179 367.377 48.5362C367.785 49.3058 368.223 49.8375 368.851 49.8375C369.179 49.8049 369.491 49.6813 369.753 49.4808C370.965 48.7337 371.514 47.7038 372.239 46.499C372.964 45.2942 373.361 43.9885 373.888 42.7163C374.444 41.3859 375.052 40.0958 375.474 38.7138C375.909 37.2801 376.506 35.9026 376.957 34.4756C377.215 33.5524 377.421 32.6153 377.574 31.6689C377.662 31.1215 377.433 30.5224 378.099 30.4978C379.044 30.4641 379.335 31.0003 379.358 31.6644C379.38 32.3285 379.084 33.7734 378.958 34.249C378.532 35.8689 378.128 37.4978 377.646 39.1019C377.48 39.6471 377.354 40.2237 377.159 40.7554C376.901 41.4622 376.45 42.0635 376.208 42.7747C375.699 44.2801 374.839 45.5141 374.139 46.9298C373.439 48.3455 373.017 49.6535 371.851 50.7596C371.313 51.3045 370.661 51.7223 369.941 51.9824C369.268 52.2067 368.533 52.6195 367.817 52.6061L367.821 52.6218ZM365.845 29.9929C366.042 29.9929 366.264 29.5846 366.338 29.4747C366.863 28.6939 367.184 27.8481 367.583 27.0067C367.983 26.1654 368.324 25.3061 368.665 24.4356C368.927 23.7625 369.183 23.0894 369.452 22.4163C369.801 21.5268 370.059 20.6045 370.224 19.6635C370.426 18.5731 370.543 17.4603 370.655 16.3676C370.751 15.4141 370.962 14.4 370.962 13.4375C370.962 12.5401 370.917 11.7032 370.917 10.7968C370.917 9.0468 370.868 6.08526 369.47 6.08526C368.283 6.08526 367.819 8.76186 367.563 9.54487C367.308 10.3279 367.361 11.2051 367.141 12.0285C366.942 12.7846 366.771 13.534 366.614 14.299C366.437 15.3078 366.338 16.3286 366.316 17.3526C366.291 18.0753 366.224 18.7959 366.116 19.5109C365.99 20.4085 365.938 21.315 365.959 22.2212C365.959 22.966 365.959 23.7131 365.917 24.4423C365.811 25.9747 365.706 27.5474 365.658 29.0798C365.658 29.1135 365.658 29.183 365.658 29.266C365.658 29.5308 365.674 29.9974 365.845 29.9974V29.9929Z" fill="currentColor"/>
  <path d="M397.955 49.2811C396.723 49.2811 395.247 48.4644 394.141 47.5131C393.304 46.7886 392.585 45.9387 392.01 44.9936C391.352 43.9436 390.975 42.6468 390.78 41.3163C390.615 40.113 390.564 38.8969 390.627 37.684C390.627 37.4596 390.659 36.9952 390.659 36.7147C390.659 36.5106 390.612 36.4051 390.515 36.4006C390.419 36.3962 390.309 36.5106 390.127 36.7978C389.836 37.3034 389.579 37.8281 389.358 38.3683C388.898 39.3577 388.236 40.2619 387.776 41.2423C387.581 41.6551 387.578 42.1285 387.37 42.5369C387.123 43.0192 386.625 43.3715 386.371 43.8292C386.166 44.2457 385.987 44.6751 385.837 45.1147C385.66 45.5927 385.348 46.0094 384.94 46.3151C384.52 46.6337 384.298 46.7638 384.009 46.8311C383.679 46.8732 383.345 46.8852 383.013 46.867C382.492 46.867 382.041 47.1048 381.53 47.1048C380.727 47.1048 380.116 46.5641 379.495 46.158C378.981 45.8215 378.373 45.5949 377.897 45.2202C376.713 44.3048 375.818 42.8734 375.299 41.5699C374.743 40.1744 374.604 38.8888 374.604 37.3587C374.604 34.866 375.777 31.8843 376.975 29.6317C377.532 28.584 378.153 27.3679 378.945 26.3314C379.534 25.5038 380.315 24.831 381.22 24.3705C382.338 23.8816 383.549 23.6405 384.769 23.6638C385.483 23.6845 386.184 23.863 386.82 24.1865C387.437 24.4715 388.032 24.8215 388.655 25.0974C389.236 25.3315 389.79 25.6279 390.307 25.9814C390.632 26.2215 391.038 26.8631 391.334 26.8631C391.709 26.8631 391.987 26.3696 392.303 25.8131C392.595 25.2994 392.932 24.7317 393.111 24.4468C393.771 23.4013 393.943 22.6744 395.092 22.6744C395.761 22.6797 396.427 22.7549 397.08 22.8987C397.879 23.076 398.756 23.3833 399.146 23.9083C399.245 24.0119 399.306 24.1454 399.319 24.2875C399.319 24.4221 399.238 24.5321 399.229 24.7856C399.211 25.1939 399.25 25.5574 399.25 25.9388C399.25 26.6769 399.229 27.4622 399.229 28.2676C399.236 28.7454 399.201 29.223 399.124 29.6946C398.922 30.85 398.496 32.0324 398.419 33.2035C398.38 33.6815 398.311 34.1566 398.213 34.626C398.074 35.2661 397.975 35.9143 397.917 36.5667C397.796 38.4333 397.567 40.3987 397.493 42.3282C397.455 43.1865 397.461 44.0462 397.511 44.9038C397.533 45.2696 397.616 46.25 398.211 46.25C398.628 46.25 399.182 45.8147 399.463 45.6218C400.585 44.8542 401.525 43.8493 402.216 42.6782C402.945 41.4913 403.669 40.3157 404.17 39.0099C404.475 38.2202 404.888 37.4865 405.15 36.7103C405.301 36.2859 405.385 35.841 405.399 35.391C405.508 34.2347 405.756 33.0957 406.137 31.9987C406.427 31.2135 406.79 30.6077 407.214 30.6077C407.439 30.6077 407.699 30.7939 407.964 31.2337C408.109 31.4649 408.187 31.7323 408.188 32.0054C408.188 32.7413 407.661 33.4391 407.499 34.1997C407.369 34.8077 407.051 35.2138 406.858 35.7994C406.653 36.4231 406.528 37.0513 406.283 37.6683C405.808 38.8753 405.464 40.1138 405.013 41.3253C404.836 41.8032 404.699 42.299 404.551 42.7904C404.368 43.4816 404.084 44.1422 403.71 44.7513C403.06 45.7403 402.308 46.6585 401.466 47.4907C400.461 48.4667 399.279 49.2856 397.953 49.2856L397.955 49.2811ZM383.845 43.2705C384.329 42.5486 384.748 41.785 385.097 40.9888C385.514 40.0756 385.891 39.1378 386.322 38.2606C386.753 37.3833 387.282 36.5151 387.767 35.6401C388.156 34.9625 388.493 34.2568 388.777 33.5288C389.088 32.6942 389.344 31.8237 389.699 31.0071C389.833 30.6974 390.125 30.2667 390.343 29.8516C390.487 29.6087 390.576 29.3366 390.603 29.0551C390.603 28.7724 390.345 28.5638 390.011 28.4067C389.624 28.2456 389.225 28.1166 388.817 28.0208C388.512 27.9307 388.197 27.8817 387.879 27.875C387.41 27.8662 386.955 28.0344 386.605 28.3462C385.97 28.8981 385.546 29.6923 385.153 30.5157C384.877 31.142 384.563 31.7511 384.213 32.3397C383.814 32.9612 383.782 33.4077 383.54 34.074C383.298 34.7404 382.943 35.2609 382.8 36.008C382.627 36.9054 382.423 37.7378 382.257 38.6061C382.067 39.5541 381.969 40.5179 381.963 41.4846C381.947 42.2181 382.08 42.9471 382.355 43.6272C382.535 44.076 382.701 44.2375 382.793 44.2375C383.172 44.2375 383.663 43.5353 383.845 43.2705V43.2705Z" fill="currentColor"/>
  <path d="M429.657 47.6029C429.457 47.6365 429.254 47.653 429.051 47.6522C428.417 47.629 427.789 47.5118 427.189 47.3045C426.844 47.2156 426.495 47.1452 426.143 47.0936C425.734 47.035 425.333 46.9327 424.945 46.7885C424.616 46.6471 424.497 46.3846 424.257 46.1423C423.873 45.7654 423.393 45.5343 422.975 45.2045C422.48 44.7913 422.084 44.2713 421.818 43.6833C421.454 43.0143 421.169 42.305 420.97 41.5699C420.819 40.7882 420.757 39.9918 420.786 39.1962C420.786 38.5365 420.822 38.3122 420.822 37.6593C420.822 37.0917 420.786 36.5375 420.638 36.5375C420.413 36.5375 420.234 37.1455 419.994 37.924C419.722 38.7968 419.408 39.8647 419.339 40.0913C419.09 40.9147 418.959 41.8144 418.547 42.575C418.123 43.2823 417.648 43.9573 417.124 44.5942C416.301 45.6869 415.489 46.4901 414.098 46.6247C413.577 46.6763 413.068 46.7256 412.565 46.7256C411.805 46.7468 411.052 46.5812 410.371 46.2433C409.035 45.5787 407.839 44.6648 406.846 43.551C405.873 42.4219 405.19 41.0716 404.858 39.6179C404.638 38.6539 404.531 37.6677 404.538 36.6788C404.538 34.5071 404.986 32.3016 405.467 30.2353C405.803 28.7724 405.796 27.2849 406.106 25.8311C406.171 25.3689 406.403 24.9462 406.757 24.642C406.907 24.5006 407.174 24.2942 407.351 24.1529C407.858 23.7535 408.006 23.7468 408.576 23.6212C409.812 23.346 411.102 23.462 412.269 23.9532C413.445 24.4558 413.752 25.9298 413.752 27.1189C413.752 28.4897 413.315 29.8763 413.133 31.2337C413.075 31.7236 413.049 32.2167 413.054 32.7099C413.054 33.1587 413.068 33.6231 413.068 34.0763C413.072 34.538 413.048 34.9995 412.996 35.4583C412.92 36.0821 412.861 36.6878 412.839 37.2958C412.815 37.8763 412.825 38.4577 412.87 39.0369C412.884 39.2231 412.886 39.4317 412.886 39.6516V40.0577C412.862 40.5417 412.911 41.0265 413.032 41.4958C413.196 41.9849 413.725 42.6176 413.999 43.0663C414.237 43.4567 414.488 43.6115 414.739 43.6115C415.459 43.6115 416.159 42.3125 416.438 41.5923C417.055 39.9792 417.708 38.3683 418.289 36.7394C418.775 35.3731 419.339 34.0359 419.532 32.5933C419.669 31.7531 419.905 30.9322 420.236 30.1478C420.547 29.4015 420.813 28.6373 421.033 27.8593C421.192 27.2401 421.27 26.3785 421.43 25.5663C421.571 24.8394 421.777 24.1506 422.161 23.6997C422.513 23.2869 422.967 23.1612 423.476 23.0468C423.857 22.9615 424.322 22.8449 424.779 22.7596C425.123 22.6881 425.472 22.6476 425.823 22.6385C426.086 22.6441 426.344 22.7158 426.572 22.8471C426.746 22.9538 426.943 23.0162 427.146 23.0288C427.555 23.0288 428.044 23.5359 428.138 23.9644C428.151 24.0272 428.157 24.0911 428.156 24.1551C428.156 24.6779 427.806 25.3554 427.685 25.8064C427.503 26.4795 427.604 27.0987 427.604 27.7875C427.604 28.3304 427.402 28.9362 427.402 29.5106C427.402 30.141 427.588 30.8051 427.626 31.4311C427.653 31.8147 427.813 33.0532 427.813 33.4503C427.813 34.2401 427.534 35.0388 427.492 35.8308C427.451 36.551 427.492 37.3048 427.411 38.0183C427.348 38.5253 427.247 38.3974 427.137 38.8013C427.105 38.9312 427.09 39.0646 427.092 39.1984C427.092 39.8715 427.386 40.7913 427.525 41.3186C427.689 41.9401 427.941 42.5369 428.077 43.1606C428.166 43.6015 428.283 44.0362 428.427 44.4619C428.549 44.8276 428.701 45.1596 428.934 45.1596C429.168 45.1596 429.608 44.5965 429.733 44.4619C430.72 43.4006 431.393 42.0455 432.067 40.7756C433.074 38.8753 433.882 36.8853 434.7 34.9019C435.127 33.8699 435.555 32.8401 436.017 31.826C436.183 31.4603 436.637 30.2151 437.211 30.2151C437.75 30.2151 437.929 30.933 437.929 31.4356C437.929 32.3981 437.094 33.0465 436.91 33.9663C436.814 34.6545 436.664 35.3341 436.462 35.999C435.418 38.9157 434.312 41.9894 432.592 44.601C432.143 45.274 431.584 45.8753 431.124 46.5484C430.691 47.1833 430.469 47.4795 429.673 47.6096L429.657 47.6029Z" fill="currentColor"/>
  <path d="M440.554 52.8462C440.339 52.9288 440.111 52.9714 439.881 52.9718C438.984 52.9718 438.115 52.3526 437.359 51.9038C436.621 51.4993 436.012 50.8942 435.602 50.1583C435.154 49.2788 435.102 48.258 435.102 47.1878C435.102 46.7391 435.127 46.2792 435.163 45.8192C435.257 44.6144 435.306 43.4074 435.347 42.2003C435.398 40.6971 435.434 39.1939 435.524 37.693C435.585 36.643 435.598 35.5952 435.598 34.5519C435.598 33.816 435.598 33.0779 435.598 32.342C435.598 30.8365 435.65 29.3288 435.703 27.8189C435.76 26.2215 435.818 24.624 435.818 23.0221C435.818 20.8324 435.699 18.6247 435.699 16.417C435.699 14.3327 435.845 12.2484 435.966 10.1596C436.038 8.88974 436.103 7.61763 436.121 6.34551V6.17949C436.121 5.66795 436.087 5.1407 436.049 4.63365C436.02 4.2141 435.784 3.64647 435.784 3.18878C435.784 2.54263 436.372 2.27564 437.059 2.08942C437.543 1.94087 438.044 1.85049 438.551 1.82019C439.173 1.79545 439.786 1.97945 440.292 2.34295C440.77 2.74029 441.188 3.2051 441.532 3.72276C442.241 4.67852 442.531 5.63654 442.683 6.82115C442.71 7.02981 442.748 7.80833 442.777 8.69679C442.795 9.34968 442.811 10.0587 442.811 10.642C442.811 11.8042 442.856 12.9574 442.885 14.1173C442.872 14.7165 442.896 15.316 442.957 15.9122C443.062 16.6167 443.291 17.2853 443.323 18.001C443.374 19.2013 443.365 20.4106 443.338 21.6199C443.3 23.3071 443.224 24.9853 443.224 26.6657C443.224 27.7224 443.264 29.091 443.264 29.8067C443.259 30.1405 443.237 30.4737 443.197 30.8051C443.177 30.9756 443.127 31.1529 443.127 31.2942C443.127 31.5186 443.184 31.5814 443.215 31.5814C443.41 31.5814 443.664 30.6256 443.718 30.4596C444.148 29.2571 444.474 27.9917 445.106 26.8699C445.744 25.7773 446.529 24.7777 447.44 23.8994C448.277 23.076 449.282 22.6811 450.401 22.3962C451.128 22.2099 451.902 21.9923 452.645 21.9923C453.16 21.9813 453.668 22.1108 454.114 22.367C455.133 22.9683 455.871 23.9375 456.562 24.8708C457.253 25.8042 457.861 26.9843 457.861 28.2048C457.861 28.8622 457.711 29.5083 457.7 30.1657C457.686 30.7042 457.747 31.2471 457.747 31.7856C457.731 32.4817 457.655 33.1752 457.522 33.8587C457.412 34.5093 457.285 35.1622 457.204 35.8061C457.062 36.9481 457.006 38.2583 456.562 39.3285C456.147 40.3269 455.99 41.3949 455.272 42.2272C454.926 42.6366 454.635 43.0891 454.406 43.5734C454.182 44.049 454.004 44.6077 453.565 44.933C453.125 45.2583 452.853 45.3817 452.537 45.7968C452.221 46.2119 451.685 46.4138 451.191 46.6202C450.3 46.9841 449.346 47.1664 448.384 47.1564C447.739 47.1272 447.099 47.0256 446.477 46.8535C445.642 46.6978 444.842 46.3939 444.115 45.9561C443.919 45.8282 443.085 45.1282 442.748 45.1282C442.62 45.1282 442.58 45.301 442.58 45.5343C442.58 45.9381 442.701 46.5304 442.677 46.7279C442.652 46.9253 442.54 47.1452 442.502 47.3606C442.493 47.4192 442.488 47.4785 442.488 47.5378C442.488 48.2872 442.264 49.2003 442.152 50.0058C442.087 50.5676 441.953 51.1193 441.752 51.6481C441.645 51.9204 441.482 52.1674 441.273 52.3733C441.065 52.5792 440.816 52.7395 440.543 52.8439L440.554 52.8462ZM447.671 43.6317C448.087 43.1044 448.445 42.5335 448.739 41.9288C449.004 41.4255 449.186 40.8821 449.277 40.3202C449.43 39.4676 449.454 38.5769 449.549 37.7401C449.627 37.0446 449.737 36.2772 449.852 35.4718C449.986 34.5362 450.127 33.549 450.233 32.5551C450.429 30.7316 450.531 28.8991 450.538 27.0651C450.557 26.5844 450.467 26.1056 450.273 25.6651C450.121 25.3869 449.982 25.2814 449.847 25.2814C449.636 25.2814 449.436 25.5394 449.214 25.7929C448.764 26.3111 448.355 26.8632 447.989 27.4442C447.554 28.1173 447.15 28.8061 446.713 29.4837C445.863 30.8383 445.176 32.2888 444.667 33.8048C444.193 35.151 443.812 36.5285 443.451 37.8859C443.276 38.559 443.029 39.2321 442.97 39.9186C442.919 40.4712 442.896 41.0261 442.903 41.5811C442.903 42.5032 443.522 42.9901 443.951 43.3199C444.571 43.8282 445.341 44.119 446.143 44.1478C446.708 44.15 447.274 44.0647 447.671 43.6228V43.6317Z" fill="currentColor"/>
  </g>
<defs>
  <clipPath id="clip0_1279_207">
    <rect width="458" height="68" fill="currentColor" transform="translate(0.168213)"/>
  </clipPath>
  </defs>
</svg>
