<?xml version="1.0" standalone="no"?>
<!DOCTYPE svg PUBLIC "-//W3C//DTD SVG 20010904//EN"
 "http://www.w3.org/TR/2001/REC-SVG-20010904/DTD/svg10.dtd">
<svg version="1.0" xmlns="http://www.w3.org/2000/svg"
 width="776.000000pt" height="776.000000pt" viewBox="0 0 776.000000 776.000000"
 preserveAspectRatio="xMidYMid meet">
<metadata>
Created by potrace 1.14, written by Peter Selinger 2001-2017
</metadata>
<g transform="translate(0.000000,776.000000) scale(0.100000,-0.100000)"
fill="#000000" stroke="none">
<path d="M5438 7705 c-2 -2 -54 -7 -115 -10 -61 -3 -122 -8 -134 -10 -13 -3
-42 -7 -64 -10 -22 -3 -51 -7 -65 -10 -14 -3 -41 -8 -60 -11 -19 -3 -38 -8
-41 -10 -3 -2 -21 -6 -40 -9 -107 -20 -316 -89 -459 -152 -133 -58 -344 -170
-475 -253 -94 -60 -343 -242 -396 -290 -9 -8 -31 -28 -50 -43 -104 -87 -289
-268 -908 -889 -822 -822 -821 -821 -930 -968 -22 -30 -44 -59 -48 -65 -17
-20 -122 -182 -165 -255 -60 -102 -169 -326 -208 -430 -18 -47 -36 -94 -41
-105 -19 -46 -57 -165 -52 -165 3 0 -1 -7 -8 -17 -8 -9 -13 -19 -13 -22 1 -3
0 -10 -1 -16 -13 -46 -37 -140 -40 -153 -2 -9 -8 -37 -14 -62 -16 -65 -16 -63
-37 -168 -2 -12 -16 -96 -29 -181 -11 -69 -17 -111 -20 -156 -2 -27 -4 -50 -5
-50 -3 0 -9 -88 -14 -203 -3 -62 -9 -118 -12 -124 -5 -7 -2 -8 5 -3 10 5 11 3
4 -11 -13 -27 -4 -405 12 -554 3 -25 7 -70 10 -100 3 -30 7 -68 10 -85 2 -16
7 -52 10 -80 6 -50 55 -299 73 -365 6 -24 5 -39 -2 -47 -6 -6 -241 -242 -522
-525 -473 -475 -533 -541 -551 -603 -46 -164 2 -305 138 -408 112 -84 295 -85
430 -1 20 12 265 252 545 534 445 447 512 510 534 506 53 -9 86 -17 100 -23 8
-3 23 -7 33 -8 9 -2 18 -3 20 -5 3 -2 24 -7 67 -14 19 -4 58 -11 85 -16 28 -5
73 -12 100 -16 28 -3 59 -8 70 -10 11 -2 49 -7 85 -10 36 -3 76 -7 90 -9 23
-5 334 -18 390 -17 101 1 425 18 425 22 0 0 25 3 55 5 31 2 69 6 85 10 17 3
50 7 75 10 25 2 83 11 130 20 98 18 125 23 160 29 14 2 45 9 70 16 25 7 56 14
70 16 14 3 34 8 45 11 11 4 25 8 30 9 87 17 379 118 531 183 104 44 318 153
322 163 2 4 8 8 13 8 6 0 35 16 65 35 30 19 57 35 60 35 2 0 29 18 59 40 30
22 58 40 64 40 5 0 11 3 13 8 2 4 41 36 88 71 88 68 118 92 207 176 l54 50
-720 -1 c-397 0 -721 2 -721 5 0 3 35 17 78 30 42 14 82 27 87 30 6 3 12 6 15
7 3 0 12 3 20 6 62 24 1448 481 1458 481 6 0 12 3 12 7 0 4 6 7 13 7 6 1 46
13 87 27 41 15 82 28 90 30 8 2 84 27 168 55 l152 51 308 308 c340 342 385
389 374 394 -4 2 -330 3 -724 3 -619 -1 -761 1 -694 11 7 1 55 16 107 34 52
18 99 33 104 34 14 3 207 65 225 73 8 3 20 7 25 9 6 1 33 10 60 19 28 10 55
18 60 19 6 1 178 58 384 125 205 68 378 124 385 126 6 1 18 5 26 8 19 8 202
68 215 71 13 3 145 46 165 53 8 4 18 7 23 8 4 2 8 3 10 4 1 2 12 4 23 6 12 3
34 10 50 16 16 7 31 13 34 14 36 12 60 27 56 34 -4 5 0 16 8 24 9 8 25 34 38
58 12 24 24 46 27 49 10 9 61 117 61 128 0 7 5 12 10 12 6 0 10 5 10 11 0 6
14 40 30 76 17 35 30 67 30 71 0 4 7 20 15 35 8 15 19 42 24 60 6 18 19 59 31
92 26 74 71 242 85 315 3 14 7 34 9 46 2 12 7 45 11 74 4 29 9 62 11 74 2 12
6 67 9 124 2 56 7 107 10 112 3 5 1 11 -4 14 -5 3 -6 21 -2 38 6 30 7 54 1 61
-1 1 -3 27 -5 57 -5 86 -23 234 -31 262 -7 25 -15 59 -21 98 -3 19 -25 93 -50
165 -24 71 -45 135 -47 140 -1 6 -23 54 -49 108 -26 54 -47 101 -47 104 0 2
-13 24 -30 48 -16 24 -30 47 -30 50 0 7 -120 186 -130 195 -4 3 -13 15 -21 27
-82 121 -301 337 -476 470 -231 176 -553 327 -828 388 -97 22 -136 29 -230 41
-16 2 -82 6 -145 9 -63 3 -120 8 -127 10 -6 2 -13 2 -15 0z"/>
</g>
</svg>
