<?xml version="1.0" standalone="no"?>
<!DOCTYPE svg PUBLIC "-//W3C//DTD SVG 20010904//EN"
 "http://www.w3.org/TR/2001/REC-SVG-20010904/DTD/svg10.dtd">
<svg version="1.0" xmlns="http://www.w3.org/2000/svg"
 width="2048.000000pt" height="2048.000000pt" viewBox="0 0 2048.000000 2048.000000"
 preserveAspectRatio="xMidYMid meet">
<metadata>
Created by potrace 1.14, written by Peter Selinger 2001-2017
</metadata>
<g transform="translate(0.000000,2048.000000) scale(0.100000,-0.100000)"
fill="#000000" stroke="none">
<path d="M14159 20476 c-2 -2 -56 -7 -119 -10 -63 -4 -128 -9 -145 -11 -16 -3
-57 -7 -90 -11 -91 -9 -174 -19 -225 -28 -14 -3 -47 -7 -74 -11 -53 -6 -184
-30 -256 -45 -25 -5 -56 -12 -70 -14 -14 -2 -86 -18 -160 -36 -74 -18 -146
-34 -159 -37 -14 -2 -28 -6 -33 -9 -4 -3 -18 -7 -30 -10 -13 -3 -27 -6 -33 -8
-5 -1 -30 -8 -55 -15 -111 -30 -409 -128 -553 -182 -320 -120 -539 -216 -847
-373 -263 -134 -280 -143 -550 -304 -157 -94 -552 -349 -595 -384 -5 -5 -64
-48 -130 -95 -238 -171 -633 -486 -801 -638 -27 -24 -155 -139 -173 -154 -120
-104 -542 -522 -2172 -2151 -1048 -1048 -1939 -1943 -1980 -1989 -41 -46 -81
-91 -90 -100 -25 -25 -261 -311 -294 -356 -17 -22 -32 -42 -35 -45 -26 -25
-292 -396 -316 -439 -5 -11 -18 -30 -27 -43 -56 -77 -227 -356 -319 -523 -103
-186 -116 -210 -196 -370 -277 -553 -509 -1168 -680 -1800 -41 -151 -97 -369
-106 -415 -3 -14 -21 -101 -41 -195 -39 -185 -92 -469 -100 -535 -1 -8 -4 -28
-8 -45 -4 -16 -9 -50 -12 -75 -3 -25 -10 -70 -15 -100 -5 -30 -12 -82 -15
-115 -3 -33 -8 -69 -10 -80 -5 -23 -12 -83 -20 -170 -3 -33 -8 -76 -10 -95 -3
-19 -7 -66 -11 -105 -3 -38 -8 -83 -9 -100 -2 -16 -6 -73 -10 -125 -3 -52 -8
-115 -10 -140 -14 -165 -20 -394 -20 -800 0 -409 5 -583 20 -790 15 -209 20
-272 30 -355 2 -22 7 -71 10 -110 4 -38 8 -71 10 -73 1 -1 1079 1073 2396
2388 4717 4711 4793 4786 4850 4823 31 20 96 50 145 66 80 27 97 29 203 27
125 -3 146 -7 219 -35 200 -79 341 -236 393 -438 41 -160 23 -306 -59 -468
-33 -66 -211 -246 -3211 -3243 -6665 -6659 -7314 -7309 -7357 -7365 -79 -100
-155 -263 -180 -381 -18 -87 -23 -251 -10 -341 50 -347 292 -645 618 -764 107
-39 173 -52 303 -56 115 -4 201 6 300 36 81 23 225 88 225 101 0 4 6 8 13 8 7
0 42 23 78 52 35 28 664 650 1397 1382 733 732 1335 1333 1337 1335 3 3 85
-20 270 -74 39 -12 212 -53 335 -80 61 -14 323 -65 355 -69 23 -4 52 -8 65
-11 14 -3 85 -14 160 -25 290 -42 510 -67 770 -85 47 -4 101 -8 120 -10 272
-27 1253 -27 1595 0 28 2 88 7 135 10 90 5 276 22 350 31 25 3 63 7 85 9 89 9
151 16 175 20 14 2 63 9 110 15 47 6 96 13 110 15 14 3 57 9 95 15 97 14 127
19 230 37 50 8 104 17 120 20 17 2 116 22 220 44 105 22 201 42 215 45 54 10
480 117 555 139 44 13 121 35 170 50 96 28 300 92 325 102 8 4 17 7 20 8 107
29 602 218 785 300 33 14 74 33 90 40 126 56 192 87 345 164 171 85 345 176
365 191 6 4 42 24 80 45 39 21 77 44 86 51 8 8 18 14 22 14 19 0 417 258 602
391 193 138 503 382 595 469 9 8 54 49 100 90 125 111 210 192 210 199 0 4
-873 7 -1941 6 -1067 0 -1943 3 -1944 6 -3 4 1135 389 1195 404 3 1 12 4 20 8
8 3 600 200 1315 437 715 237 1307 434 1315 437 8 3 20 7 25 9 6 1 134 43 285
94 151 51 280 93 285 95 6 1 19 5 30 9 74 28 95 36 98 35 1 0 9 2 17 5 8 3
301 100 651 216 l635 211 835 837 c459 460 868 875 909 921 41 47 81 90 88 97
6 7 9 15 5 17 -5 2 -877 3 -1940 3 -1063 -1 -1929 2 -1925 5 8 8 121 50 125
47 1 -2 22 5 47 14 25 9 194 64 375 123 182 59 389 126 460 150 72 23 306 100
520 169 215 70 422 138 460 151 39 13 246 80 460 150 590 192 783 255 862 282
40 13 81 26 90 28 10 2 56 17 103 33 47 17 144 49 215 72 72 22 265 85 430
139 165 54 442 145 615 201 173 56 349 113 391 127 l76 25 44 74 c24 41 49 83
54 92 15 25 117 207 155 277 38 69 220 432 220 439 0 3 18 42 39 88 191 408
418 1090 495 1493 2 11 12 61 21 110 9 50 19 99 21 110 11 54 51 331 59 415 3
30 8 69 10 85 27 208 27 982 1 1145 -3 14 -7 54 -11 89 -6 64 -10 95 -21 169
-3 20 -7 53 -10 72 -2 19 -6 46 -9 60 -10 50 -15 76 -20 105 -3 17 -8 41 -10
55 -3 14 -7 36 -10 50 -10 52 -18 89 -48 215 -73 299 -202 680 -318 933 -16
35 -29 65 -29 69 0 22 -235 466 -333 628 -179 296 -478 694 -720 960 -151 165
-424 433 -567 555 -14 12 -37 32 -51 44 -125 112 -379 303 -579 438 -530 357
-1011 580 -1695 788 -112 34 -410 100 -585 130 -30 5 -82 14 -115 19 -53 9
-118 17 -210 26 -16 1 -59 6 -95 10 -36 4 -83 9 -105 11 -51 6 -751 14 -756
10z"/>
</g>
</svg>
