<svg viewBox="0 0 472 70" xmlns="http://www.w3.org/2000/svg">
  <g clip-path="url(#clip0_1264_254)">
    <path fill-rule="evenodd" clip-rule="evenodd" d="M0.282837 0.0449982V70H65.8658V43.767H37.4468V28.464H65.8658V0.0449982H0.282837Z" fill="currentColor"/>
    <path fill-rule="evenodd" clip-rule="evenodd" d="M74.6098 0.0449982V28.464H103.03V43.767H74.6098V70H140.194V0.0449982H74.6098Z" fill="currentColor"/>
    <path fill-rule="evenodd" clip-rule="evenodd" d="M461.93 45.888H470.589V43.477H450.643V45.888H459.301V69.342H461.93V45.888ZM428.834 45.888H433.947C441.839 45.888 445.528 51.076 445.528 56.41C445.528 61.743 441.839 66.93 433.947 66.93H428.834V45.888ZM426.203 69.342H434.788C441.253 69.342 448.377 65.03 448.377 56.41C448.377 47.789 441.253 43.477 434.788 43.477H426.203V69.342ZM410.531 46.547L416.122 60.135H404.908L410.531 46.547ZM403.921 62.546H417.144L419.994 69.342H423.063L411.811 43.477H409.254L398.002 69.342H401.072L403.921 62.546ZM391.312 45.888H399.971V43.477H380.025V45.888H388.683V69.342H391.312V45.888ZM377.248 45.963C375.203 43.625 372.864 42.821 369.942 42.821C365.741 42.821 361.576 45.16 361.576 50.162C361.576 59.624 374.837 55.57 374.837 62.877C374.837 65.909 371.877 67.589 369.286 67.589C366.582 67.589 364.499 66.347 363.404 64.447L361.029 66.164C363.001 68.866 366.033 70 369.176 70C373.267 70 377.687 67.223 377.687 62.511C377.687 53.194 364.426 56.885 364.426 49.907C364.426 46.657 367.238 45.232 369.942 45.232C372.135 45.232 373.816 46.071 374.947 47.751L377.248 45.963ZM344.37 45.888H348.609C353.321 45.888 354.929 47.899 354.929 50.383C354.929 52.866 353.321 54.912 348.609 54.912H344.37V45.888ZM341.741 69.342H344.37V57.323H349.265C354.526 57.323 357.778 55.022 357.778 50.383C357.778 45.743 354.526 43.477 349.265 43.477H341.741V69.342ZM323.403 45.888H327.639C332.354 45.888 333.961 47.899 333.961 50.383C333.961 52.866 332.354 54.912 327.639 54.912H323.403V45.888ZM320.774 69.342H323.403V57.323H328.298C333.558 57.323 336.811 55.022 336.811 50.383C336.811 45.743 333.558 43.477 328.298 43.477H320.774V69.342ZM311.129 69.342H313.758V43.478H311.129V69.342ZM295.495 43.477H292.863V69.342H307.549V66.93H295.495V43.477ZM278.579 61.78H287.969V59.369H278.579V61.78ZM252.206 43.477H248.187V69.342H250.816V46.985H250.892L260.243 69.342H261.631L270.982 46.985H271.055V69.342H273.687V43.477H269.668L260.937 64.519L252.206 43.477ZM219.693 43.477H215.675V69.342H218.304V46.985H218.379L227.731 69.342H229.118L238.47 46.985H238.543V69.342H241.174V43.477H237.155L228.424 64.519L219.693 43.477ZM199.638 46.547L205.229 60.135H194.012L199.638 46.547ZM193.027 62.546H206.251L209.1 69.342H212.169L200.917 43.477H198.361L187.108 69.342H190.178L193.027 62.546ZM164.241 69.342H166.87V57.103H180.972V69.342H183.603V43.477H180.972V54.694H166.87V43.477H164.241V69.342Z" fill="currentColor"/>
    <path fill-rule="evenodd" clip-rule="evenodd" d="M451.244 18.468H467.065V15.425H451.244V4.307H468.173V1.264H447.923V33.922H468.728V30.876H451.244V18.468ZM428.18 1.264H424.86V33.922H443.403V30.876H428.18V1.264ZM416.556 1.264H413.235V21.375C413.235 30.786 407.101 31.706 404.61 31.706C402.12 31.706 395.985 30.786 395.985 21.375V1.264H392.662V21.745C392.662 27.188 394.831 34.752 404.61 34.752C414.389 34.752 416.556 27.188 416.556 21.745V1.264ZM359.912 33.922H363.235V18.468H381.04V33.922H384.361V1.264H381.04V15.425H363.235V1.264H359.912V33.922ZM351.611 26.818C349.166 30.601 345.658 31.706 342.245 31.706C333.852 31.706 328.822 25.111 328.822 17.592C328.822 10.074 333.852 3.477 342.245 3.477C345.705 3.477 349.349 5.646 350.642 7.766L353.548 5.6C350.688 1.955 346.306 0.433998 342.245 0.433998C332.513 0.433998 325.224 7.674 325.224 17.592C325.224 27.509 332.513 34.752 342.245 34.752C347.643 34.752 352.163 32.123 354.332 28.756L351.611 26.818ZM320.151 4.4C317.568 1.447 314.615 0.433998 310.924 0.433998C305.62 0.433998 300.361 3.384 300.361 9.704C300.361 21.652 317.107 16.532 317.107 25.757C317.107 29.586 313.371 31.706 310.094 31.706C306.681 31.706 304.052 30.139 302.669 27.741L299.67 29.91C302.16 33.323 305.99 34.752 309.958 34.752C315.124 34.752 320.706 31.246 320.706 25.296C320.706 13.534 303.96 18.193 303.96 9.383C303.96 5.276 307.511 3.477 310.924 3.477C313.692 3.477 315.815 4.538 317.244 6.661L320.151 4.4ZM268.487 33.922H271.811V18.468H289.616V33.922H292.936V1.264H289.616V15.425H271.811V1.264H268.487V33.922ZM260.186 26.818C257.742 30.601 254.236 31.706 250.821 31.706C242.427 31.706 237.4 25.111 237.4 17.592C237.4 10.074 242.427 3.477 250.821 3.477C254.283 3.477 257.925 5.646 259.217 7.766L262.124 5.6C259.263 1.955 254.881 0.433998 250.821 0.433998C241.088 0.433998 233.802 7.674 233.802 17.592C233.802 27.509 241.088 34.752 250.821 34.752C256.218 34.752 260.739 32.123 262.908 28.756L260.186 26.818ZM225.776 17.592C225.776 25.111 220.746 31.706 212.352 31.706C203.956 31.706 198.929 25.111 198.929 17.592C198.929 10.074 203.956 3.477 212.352 3.477C220.746 3.477 225.776 10.074 225.776 17.592ZM229.374 17.592C229.374 7.674 222.085 0.433998 212.352 0.433998C202.619 0.433998 195.331 7.674 195.331 17.592C195.331 27.509 202.619 34.752 212.352 34.752C222.085 34.752 229.374 27.509 229.374 17.592ZM164.241 33.922H167.561V18.468H185.367V33.922H188.689V1.264H185.367V15.425H167.561V1.264H164.241V33.922Z" fill="currentColor"/>
  </g>
  <defs>
    <clipPath id="clip0_1264_254">
      <rect width="471" height="70" fill="currentColor" transform="translate(0.282837)"/>
    </clipPath>
  </defs>
</svg>
