<svg viewBox="0 0 267 70" xmlns="http://www.w3.org/2000/svg">
  <g clip-path="url(#clip0_1281_165)">
  <path d="M166.956 48.504H162.746V62.3363C162.746 63.1346 162.568 63.7256 162.213 64.1094C162.039 64.2995 161.826 64.4497 161.588 64.5495C161.35 64.6494 161.094 64.6965 160.836 64.6878C160.575 64.6967 160.315 64.6492 160.073 64.5484C159.832 64.4476 159.616 64.2959 159.439 64.1038C159.079 63.7135 158.899 63.1244 158.899 62.3363V48.504H154.691C154.032 48.504 153.543 48.3587 153.222 48.0681C153.069 47.9162 152.947 47.735 152.864 47.5352C152.782 47.3354 152.74 47.1211 152.742 46.9049C152.744 46.6888 152.789 46.4752 152.875 46.2768C152.961 46.0785 153.086 45.8993 153.242 45.7501C153.576 45.4641 154.059 45.3212 154.691 45.3212H166.956C167.622 45.3212 168.118 45.4683 168.444 45.7627C168.604 45.9084 168.731 46.0875 168.815 46.2873C168.899 46.4871 168.939 46.7029 168.931 46.9196C168.939 47.1357 168.899 47.351 168.814 47.5497C168.728 47.7484 168.599 47.9255 168.437 48.0681C168.107 48.3587 167.613 48.504 166.956 48.504Z" fill="currentColor"/>
  <path d="M174.088 47.1529V52.4148C174.477 51.9522 174.92 51.538 175.407 51.181C175.84 50.8758 176.321 50.6449 176.83 50.4978C177.375 50.3434 177.939 50.2672 178.506 50.2715C179.341 50.2553 180.165 50.452 180.902 50.8429C181.465 51.1691 181.949 51.6148 182.321 52.1486C182.692 52.6824 182.942 53.2912 183.053 53.9321C183.145 54.5331 183.189 55.1405 183.183 55.7485V62.5445C183.183 63.2543 183.02 63.7913 182.695 64.1555C182.533 64.3358 182.333 64.4781 182.11 64.5722C181.886 64.6664 181.645 64.7102 181.403 64.7004C180.233 64.7004 179.648 63.9818 179.649 62.5445V56.5463C179.649 55.4118 179.48 54.539 179.142 53.9279C178.804 53.3169 178.163 53.0118 177.219 53.0128C176.607 53.006 176.008 53.1949 175.511 53.5521C174.996 53.9218 174.601 54.4343 174.375 55.0261C174.184 55.5543 174.091 56.4941 174.095 57.8457V62.5361C174.095 63.2375 173.937 63.7722 173.622 64.1401C173.306 64.5081 172.866 64.6943 172.303 64.699C171.133 64.699 170.548 63.9804 170.548 62.5431V47.1529C170.548 46.4333 170.701 45.8954 171.01 45.5349C171.319 45.1745 171.748 44.9956 172.303 44.9956C172.857 44.9956 173.304 45.1786 173.622 45.5419C173.939 45.9052 174.088 46.4431 174.088 47.1529Z" fill="currentColor"/>
  <path d="M196.59 58.3515H189.653C189.646 59.0902 189.813 59.8203 190.141 60.4822C190.409 61.0462 190.834 61.5212 191.365 61.8507C191.896 62.1801 192.51 62.3501 193.135 62.3405C193.527 62.3445 193.919 62.2942 194.297 62.191C194.659 62.0866 195.003 61.9289 195.317 61.723C195.637 61.519 195.941 61.2911 196.227 61.0411C196.506 60.7989 196.866 60.4701 197.306 60.0547C197.529 59.8848 197.806 59.8014 198.085 59.82C198.407 59.8052 198.722 59.9119 198.968 60.119C199.082 60.2255 199.172 60.3558 199.23 60.5006C199.289 60.6455 199.315 60.8013 199.306 60.9573C199.306 61.2786 199.181 61.6536 198.929 62.082C198.632 62.5613 198.246 62.9799 197.793 63.3158C197.215 63.7454 196.57 64.0759 195.883 64.2938C195.029 64.567 194.135 64.6987 193.238 64.6836C190.961 64.6836 189.191 64.0316 187.929 62.7276C186.667 61.4235 186.034 59.6663 186.03 57.4559C186.021 56.4641 186.179 55.4779 186.497 54.5385C186.785 53.6827 187.25 52.8972 187.862 52.2331C188.476 51.5801 189.231 51.0755 190.07 50.7577C190.999 50.406 191.986 50.232 192.98 50.2449C194.366 50.2449 195.555 50.5374 196.547 51.1224C197.49 51.6532 198.265 52.4385 198.782 53.3886C199.261 54.2566 199.515 55.2299 199.523 56.2208C199.523 57.1131 199.267 57.6916 198.756 57.9561C198.245 58.2206 197.523 58.3524 196.59 58.3515ZM189.653 56.3381H196.08C195.994 55.1272 195.668 54.22 195.102 53.6164C194.537 53.0128 193.792 52.7119 192.867 52.7138C192.459 52.7011 192.054 52.7763 191.679 52.9342C191.303 53.0921 190.966 53.3291 190.69 53.6289C190.12 54.24 189.774 55.1431 189.653 56.3381V56.3381Z" fill="currentColor"/>
  <path d="M206.023 59.5727V62.5361C206.023 63.2543 205.854 63.7932 205.516 64.1527C205.352 64.329 205.153 64.4684 204.931 64.5614C204.71 64.6544 204.471 64.6989 204.23 64.692C203.994 64.6983 203.758 64.6527 203.541 64.5586C203.324 64.4645 203.13 64.324 202.973 64.1471C202.643 63.782 202.479 63.245 202.479 62.5361V52.6621C202.479 51.0674 203.055 50.2705 204.206 50.2715C204.796 50.2715 205.221 50.4577 205.481 50.8303C205.741 51.2029 205.883 51.753 205.908 52.4804C206.247 51.8605 206.689 51.3026 207.215 50.8303C207.661 50.4577 208.256 50.2715 209.002 50.2715C209.76 50.2753 210.505 50.4673 211.17 50.8303C211.872 51.2029 212.224 51.6971 212.224 52.3128C212.229 52.513 212.192 52.7122 212.115 52.897C212.038 53.0818 211.922 53.248 211.775 53.3844C211.52 53.6453 211.172 53.7958 210.807 53.8036C210.485 53.7584 210.169 53.6778 209.865 53.5633C209.44 53.4158 208.996 53.3347 208.546 53.323C208.087 53.3026 207.635 53.4479 207.273 53.7323C206.909 54.0577 206.644 54.4782 206.506 54.9465C206.307 55.5689 206.181 56.2121 206.13 56.8635C206.059 57.6049 206.023 58.508 206.023 59.5727Z" fill="currentColor"/>
  <path d="M222.458 62.6912C221.699 63.3001 220.862 63.8048 219.97 64.1918C219.114 64.5361 218.197 64.7061 217.275 64.692C216.443 64.7098 215.62 64.5246 214.877 64.1527C214.221 63.8231 213.67 63.317 213.286 62.6912C212.917 62.0892 212.723 61.3963 212.727 60.6904C212.706 59.7756 213.036 58.8876 213.65 58.209C214.265 57.5244 215.109 57.0651 216.183 56.8313C216.409 56.7792 216.968 56.6623 217.86 56.4806C218.752 56.299 219.517 56.1323 220.153 55.9804C220.79 55.8295 221.481 55.6433 222.226 55.4216C222.183 54.4901 221.997 53.8036 221.667 53.3621C221.338 52.9206 220.647 52.7021 219.595 52.7068C218.694 52.7068 218.016 52.8321 217.562 53.0826C217.084 53.3559 216.682 53.7445 216.393 54.213C216.068 54.716 215.838 55.0476 215.704 55.2078C215.57 55.368 215.282 55.4481 214.841 55.4481C214.46 55.4545 214.091 55.3174 213.807 55.0639C213.666 54.9433 213.554 54.793 213.479 54.6238C213.404 54.4546 213.367 54.2709 213.372 54.0858C213.386 53.4238 213.619 52.7851 214.034 52.2695C214.476 51.6798 215.165 51.1945 216.101 50.8136C217.037 50.4326 218.201 50.2421 219.594 50.2421C221.153 50.2421 222.379 50.4261 223.271 50.794C224.164 51.1619 224.791 51.7455 225.152 52.5447C225.52 53.3411 225.706 54.3979 225.711 55.715C225.711 56.5458 225.711 57.2514 225.711 57.8317C225.711 58.412 225.704 59.0576 225.691 59.7683C225.698 60.4757 225.809 61.1783 226.022 61.8529C226.243 62.5767 226.354 63.0424 226.354 63.2501C226.354 63.6134 226.183 63.9445 225.841 64.2435C225.523 64.5332 225.108 64.6932 224.678 64.692C224.314 64.692 223.955 64.5211 223.6 64.1792C223.159 63.7321 222.776 63.2323 222.458 62.6912V62.6912ZM222.225 57.5649C221.483 57.8164 220.726 58.0185 219.957 58.1699C218.965 58.3822 218.279 58.5378 217.898 58.6365C217.495 58.7481 217.122 58.9481 216.806 59.222C216.633 59.3711 216.496 59.5581 216.405 59.7686C216.315 59.9791 216.275 60.2075 216.287 60.4361C216.284 60.6951 216.337 60.9516 216.442 61.1882C216.548 61.4248 216.703 61.6358 216.897 61.8068C217.303 62.1794 217.836 62.3657 218.496 62.3657C219.171 62.3718 219.837 62.2136 220.438 61.9046C220.98 61.6441 221.434 61.2308 221.744 60.7156C222.065 60.1772 222.225 59.2923 222.225 58.0609V57.5649Z" fill="currentColor"/>
  <path d="M232.229 52.2555V52.6844C232.895 51.8619 233.587 51.2565 234.306 50.8681C235.06 50.4779 235.9 50.2824 236.749 50.2994C237.812 50.2899 238.857 50.5805 239.763 51.1377C240.71 51.7339 241.465 52.5906 241.938 53.6052C242.472 54.6885 242.738 55.9707 242.737 57.4517C242.748 58.4724 242.592 59.488 242.276 60.4585C242.009 61.301 241.578 62.0825 241.009 62.7583C240.486 63.368 239.837 63.8559 239.106 64.1876C238.366 64.5241 237.562 64.6957 236.749 64.6906C235.734 64.6906 234.883 64.4871 234.195 64.08C233.434 63.6086 232.767 63.0008 232.227 62.2874V67.6136C232.227 69.1729 231.66 69.9525 230.524 69.9525C229.858 69.9525 229.417 69.7513 229.2 69.3489C228.983 68.9465 228.875 68.3597 228.875 67.5884V52.2848C228.875 51.6086 229.023 51.1042 229.317 50.7717C229.469 50.6041 229.656 50.4723 229.864 50.3858C230.073 50.2993 230.298 50.2602 230.524 50.2715C230.754 50.2634 230.982 50.3051 231.194 50.3936C231.406 50.4821 231.597 50.6153 231.752 50.7842C232.069 51.127 232.228 51.6174 232.229 52.2555ZM239.178 57.414C239.199 56.59 239.054 55.7704 238.751 55.0038C238.506 54.3875 238.095 53.8518 237.562 53.4571C237.074 53.105 236.487 52.9166 235.885 52.9192C235.412 52.9139 234.944 53.015 234.516 53.215C234.087 53.415 233.709 53.7088 233.409 54.0747C232.739 54.8459 232.403 55.9804 232.402 57.4782C232.402 58.8913 232.736 59.9895 233.402 60.7729C233.7 61.1445 234.078 61.4434 234.508 61.647C234.938 61.8506 235.409 61.9535 235.885 61.9479C236.47 61.9492 237.042 61.7702 237.521 61.4351C238.061 61.0471 238.48 60.5143 238.73 59.8982C239.03 59.2136 239.179 58.3864 239.178 57.4168V57.414Z" fill="currentColor"/>
  <path d="M247.377 48.6228C246.913 48.6331 246.461 48.4708 246.11 48.1673C245.76 47.8645 245.585 47.4361 245.585 46.8818C245.578 46.6481 245.623 46.4158 245.716 46.2014C245.809 45.9869 245.949 45.7957 246.124 45.6411C246.465 45.3225 246.915 45.1478 247.381 45.1535C247.828 45.149 248.262 45.3058 248.603 45.595C248.957 45.8903 249.135 46.3192 249.135 46.8818C249.135 47.4268 248.962 47.8534 248.615 48.1617C248.276 48.467 247.833 48.6318 247.377 48.6228V48.6228ZM249.131 52.2862V62.5375C249.131 63.2473 248.962 63.7843 248.625 64.1485C248.462 64.3265 248.263 64.4674 248.041 64.5614C247.819 64.6555 247.579 64.7005 247.338 64.6934C247.099 64.701 246.86 64.6547 246.641 64.5579C246.422 64.4612 246.227 64.3165 246.071 64.1345C245.747 63.7619 245.585 63.2296 245.585 62.5375V52.3952C245.585 51.6938 245.747 51.1657 246.071 50.8108C246.231 50.6357 246.427 50.4974 246.646 50.4055C246.865 50.3136 247.101 50.2702 247.338 50.2784C247.578 50.2713 247.817 50.3151 248.039 50.4068C248.26 50.4986 248.46 50.6363 248.625 50.8108C248.962 51.161 249.131 51.6524 249.131 52.2848V52.2862Z" fill="currentColor"/>
  <path d="M262.695 58.3515H255.751C255.745 59.0901 255.912 59.8198 256.238 60.4822C256.507 61.0462 256.932 61.5212 257.463 61.8507C257.994 62.1801 258.608 62.3501 259.233 62.3405C259.626 62.3445 260.017 62.2942 260.396 62.191C260.758 62.0866 261.102 61.9288 261.416 61.723C261.736 61.5183 262.04 61.2905 262.326 61.0411C262.605 60.7989 262.965 60.4701 263.403 60.0547C263.626 59.8852 263.903 59.8019 264.183 59.82C264.505 59.8051 264.82 59.9119 265.067 60.119C265.181 60.2256 265.27 60.356 265.329 60.5008C265.387 60.6456 265.413 60.8014 265.404 60.9573C265.404 61.2786 265.279 61.6536 265.028 62.082C264.731 62.5616 264.345 62.9803 263.891 63.3158C263.313 63.7457 262.668 64.0763 261.981 64.2938C261.127 64.5671 260.234 64.6988 259.337 64.6836C257.059 64.6836 255.289 64.0316 254.028 62.7275C252.767 61.4235 252.134 59.6611 252.131 57.4405C252.122 56.4487 252.28 55.4624 252.599 54.5232C252.887 53.6677 253.351 52.8823 253.962 52.2178C254.579 51.5707 255.333 51.0715 256.17 50.7577C257.099 50.4057 258.087 50.2318 259.08 50.2449C260.466 50.2449 261.655 50.5374 262.647 51.1224C263.587 51.6544 264.359 52.4396 264.875 53.3886C265.353 54.2563 265.608 55.2298 265.615 56.2208C265.615 57.1131 265.36 57.6915 264.849 57.9561C264.339 58.2206 263.621 58.3524 262.695 58.3515ZM255.751 56.3381H262.178C262.091 55.1272 261.765 54.22 261.2 53.6164C260.634 53.0128 259.889 52.7119 258.964 52.7138C258.557 52.7013 258.152 52.7766 257.777 52.9345C257.402 53.0924 257.065 53.3292 256.789 53.6289C256.223 54.24 255.877 55.143 255.751 56.3381Z" fill="currentColor"/>
  <path d="M116.081 4.86088V15.7745H132.737V4.86088C132.737 3.30253 133.087 2.13354 133.789 1.35389C134.49 0.574254 135.413 0.184433 136.557 0.184433C137.716 0.184433 138.656 0.569596 139.376 1.33992C140.096 2.11025 140.455 3.2839 140.453 4.86088V34.8729C140.453 36.4508 140.09 37.6291 139.362 38.4078C138.635 39.1865 137.7 39.5759 136.557 39.5759C135.395 39.5759 134.468 39.1818 133.776 38.3938C133.084 37.6058 132.738 36.4321 132.737 34.8729V22.0633H116.081V34.8729C116.081 36.4508 115.717 37.6291 114.989 38.4078C114.262 39.1865 113.326 39.5759 112.182 39.5759C111.023 39.5759 110.096 39.1818 109.403 38.3938C108.71 37.6058 108.364 36.4321 108.364 34.8729V4.86088C108.364 3.30253 108.706 2.13354 109.389 1.35389C110.073 0.574254 111.004 0.184433 112.184 0.184433C113.344 0.184433 114.284 0.569596 115.003 1.33992C115.722 2.11025 116.081 3.2839 116.081 4.86088Z" fill="currentColor"/>
  <path d="M168.05 26.8962H154.174C154.191 28.5067 154.517 29.9272 155.152 31.1577C155.787 32.3882 156.626 33.315 157.667 33.9381C158.716 34.5616 159.916 34.8849 161.136 34.8729C161.921 34.8814 162.704 34.7807 163.461 34.5739C164.184 34.3657 164.871 34.0506 165.501 33.6391C166.139 33.2291 166.746 32.7733 167.317 32.2754C167.876 31.7902 168.595 31.1316 169.475 30.2998C169.838 29.9878 170.358 29.8317 171.034 29.8317C171.761 29.8317 172.349 30.0311 172.8 30.4297C173.251 30.8284 173.476 31.3915 173.476 32.119C173.476 32.7607 173.225 33.5101 172.722 34.3671C172.219 35.224 171.461 36.0465 170.449 36.8345C169.436 37.6235 168.163 38.2755 166.629 38.7906C165.094 39.3057 163.332 39.5656 161.342 39.5703C156.786 39.5703 153.243 38.2713 150.713 35.6735C148.183 33.0756 146.919 29.5504 146.92 25.098C146.901 23.1147 147.218 21.1426 147.856 19.2647C148.431 17.5533 149.36 15.9822 150.583 14.6539C151.817 13.3489 153.332 12.3417 155.012 11.7086C156.762 11.024 158.702 10.6816 160.833 10.6816C163.604 10.6816 165.982 11.2661 167.966 12.4351C169.95 13.6041 171.435 15.1159 172.421 16.9705C173.409 18.8241 173.902 20.7122 173.902 22.6347C173.902 24.4194 173.39 25.5758 172.366 26.104C171.341 26.6321 169.902 26.8962 168.05 26.8962ZM154.174 22.8681H167.028C166.855 20.4462 166.203 18.6299 165.072 17.419C163.941 16.2081 162.447 15.6063 160.59 15.6138C158.82 15.6138 157.369 16.2244 156.238 17.4455C155.106 18.6667 154.418 20.4742 154.174 22.8681Z" fill="currentColor"/>
  <path d="M186.317 14.6581V15.509C187.563 13.8649 188.927 12.6568 190.409 11.8846C191.891 11.1124 193.593 10.7268 195.514 10.7277C197.385 10.7277 199.057 11.1348 200.53 11.9489C201.966 12.7256 203.12 13.9352 203.829 15.4056C204.299 16.2782 204.608 17.2287 204.739 18.2112C204.893 19.4874 204.962 20.7723 204.947 22.0577V35.2571C204.947 36.6776 204.621 37.7516 203.969 38.479C203.317 39.2065 202.472 39.5703 201.434 39.5703C200.378 39.5703 199.521 39.1977 198.862 38.4525C198.204 37.7073 197.875 36.6417 197.876 35.2557V23.4395C197.876 21.1025 197.55 19.314 196.898 18.0743C196.246 16.8345 194.951 16.215 193.013 16.216C191.769 16.2094 190.557 16.606 189.557 17.3463C188.499 18.127 187.702 19.2099 187.271 20.4523C186.924 21.5086 186.751 23.4833 186.751 26.3764V35.2627C186.751 36.7009 186.418 37.7795 185.751 38.4986C185.084 39.2177 184.222 39.5768 183.164 39.5759C182.689 39.5874 182.216 39.4931 181.781 39.2998C181.346 39.1065 180.96 38.819 180.65 38.4581C179.991 37.7129 179.662 36.6473 179.663 35.2613V14.7615C179.663 13.4099 179.957 12.4007 180.546 11.7337C181.135 11.0668 181.941 10.7333 182.963 10.7333C183.555 10.7255 184.139 10.8781 184.651 11.1748C185.173 11.4912 185.593 11.9516 185.86 12.5008C186.16 13.0904 186.312 13.8095 186.317 14.6581Z" fill="currentColor"/>
  <path d="M229.685 36.3273L223.422 26.0369L219.576 29.6697V35.3074C219.576 36.6766 219.217 37.7292 218.498 38.4651C217.78 39.2009 216.953 39.5689 216.017 39.5689C214.924 39.5689 214.067 39.2051 213.443 38.4776C212.82 37.7502 212.509 36.6762 212.509 35.2557V5.01737C212.509 3.44132 212.812 2.24158 213.418 1.41816C214.025 0.594744 214.891 0.183499 216.017 0.184431C217.109 0.184431 217.975 0.557019 218.614 1.3022C219.254 2.04737 219.575 3.14744 219.576 4.6024V21.8034L227.554 13.4355C228.54 12.3969 229.294 11.6867 229.814 11.3048C230.368 10.9137 231.033 10.7132 231.71 10.7333C232.116 10.7214 232.52 10.7899 232.9 10.935C233.279 11.0801 233.625 11.2989 233.919 11.5786C234.207 11.8495 234.435 12.178 234.587 12.5428C234.739 12.9075 234.813 13.3003 234.802 13.6954C234.802 14.7349 233.841 16.121 231.919 17.8535L228.146 21.3088L235.423 32.7421C235.959 33.5916 236.345 34.2371 236.578 34.6786C236.797 35.0626 236.917 35.4945 236.929 35.9361C236.929 37.0623 236.622 37.95 236.007 38.5992C235.392 39.2484 234.582 39.5745 233.577 39.5772C232.711 39.5772 232.044 39.3444 231.576 38.8786C231.109 38.4129 230.478 37.5625 229.685 36.3273Z" fill="currentColor"/>
  <path d="M260.293 26.8962H246.417C246.435 28.5067 246.761 29.9272 247.395 31.1577C248.03 32.3882 248.868 33.315 249.91 33.9381C250.959 34.5615 252.159 34.8848 253.378 34.8729C254.164 34.8815 254.947 34.7808 255.705 34.5739C256.427 34.3655 257.115 34.0505 257.745 33.6391C258.382 33.2291 258.989 32.7733 259.561 32.2754C260.114 31.7902 260.833 31.1316 261.717 30.2998C262.081 29.9878 262.601 29.8317 263.276 29.8317C264.004 29.8317 264.593 30.0311 265.044 30.4297C265.494 30.8284 265.719 31.3915 265.718 32.119C265.718 32.7607 265.467 33.5101 264.965 34.3671C264.463 35.224 263.705 36.0465 262.692 36.8345C261.678 37.6235 260.404 38.2755 258.872 38.7906C257.34 39.3057 255.577 39.5656 253.584 39.5703C249.028 39.5703 245.485 38.2713 242.957 35.6735C240.428 33.0756 239.163 29.5504 239.163 25.098C239.145 23.1149 239.461 21.1428 240.098 19.2647C240.673 17.5531 241.603 15.9821 242.827 14.6539C244.056 13.3485 245.566 12.3399 247.243 11.7044C248.994 11.0198 250.935 10.6774 253.064 10.6774C255.836 10.6774 258.211 11.2619 260.19 12.4309C262.168 13.5999 263.654 15.1117 264.647 16.9663C265.633 18.8199 266.127 20.708 266.128 22.6305C266.128 24.4152 265.615 25.5717 264.591 26.0998C263.566 26.6279 262.134 26.8934 260.293 26.8962ZM246.417 22.8681H259.28C259.107 20.4462 258.455 18.6299 257.324 17.419C256.193 16.208 254.699 15.6063 252.842 15.6138C251.072 15.6138 249.621 16.2244 248.489 17.4455C247.358 18.6667 246.667 20.4742 246.417 22.8681V22.8681Z" fill="currentColor"/>
  <path d="M63.0355 49.8509V64.3427C63.7942 64.1164 64.1002 63.9054 65.9529 62.8533L76.5088 56.7475L76.8483 56.5519C77.0267 56.4146 77.1716 56.2386 77.272 56.0371C77.3725 55.8356 77.4258 55.614 77.4281 55.3889C77.4304 55.1638 77.3816 54.9411 77.2852 54.7377C77.1889 54.5342 77.0476 54.3553 76.872 54.2144L76.4892 53.9852L63.885 46.6988C63.3293 47.6564 63.0362 48.7437 63.0355 49.8509V49.8509Z" fill="currentColor"/>
  <path d="M76.0701 7.61198L75.3617 7.2026L63.5344 0.370261L63.2843 0.23054C63.0663 0.132198 62.8279 0.0878139 62.5892 0.101147C62.3505 0.11448 62.1185 0.185137 61.9129 0.307137C61.7073 0.429136 61.5341 0.598885 61.408 0.80201C61.2819 1.00513 61.2066 1.23566 61.1884 1.47405V1.69341V21.1146C61.1897 22.2102 60.9045 23.2872 60.3613 24.2387L60.3459 24.2639L60.3376 24.2778C59.885 25.0594 59.2699 25.7346 58.5338 26.2577V26.2577H58.5268C58.4485 26.3136 58.3689 26.3681 58.2879 26.4198L58.2585 26.4393L58.2431 26.4491C58.1034 26.5413 57.9483 26.6279 57.7932 26.709L57.7485 26.7313C57.6647 26.7747 57.5795 26.8166 57.4914 26.8557L46.9495 32.9419L46.3725 33.2745C45.5342 33.8199 44.8366 34.5557 44.3368 35.422C43.7851 36.3802 43.496 37.467 43.4984 38.5727V51.7343C43.4976 52.7831 43.7584 53.8155 44.2574 54.738C44.7563 55.6605 45.4775 56.4438 46.3557 57.0172L46.99 57.3832L57.8128 63.6315L58.2669 63.8956C59.1701 64.3683 60.1746 64.6143 61.194 64.6124V48.796C61.1916 47.6903 61.4807 46.6036 62.0324 45.6453V45.6453C62.5281 44.7809 63.2208 44.0456 64.0541 43.4992V43.4992L64.0737 43.488C64.2478 43.3738 64.4278 43.2689 64.613 43.1737L75.4274 36.9295L75.9695 36.618C76.8158 36.075 77.5208 35.3384 78.0262 34.4691L78.0346 34.4565C78.5869 33.4985 78.8761 32.4116 78.8729 31.3058V12.8627C78.874 11.8244 78.6188 10.8019 78.1298 9.88591C77.6409 8.96995 76.9334 8.18886 76.0701 7.61198V7.61198Z" fill="currentColor"/>
  <path d="M16.021 49.8593V64.3511C15.2623 64.1261 14.9563 63.9138 13.1036 62.8617L2.54772 56.7559L2.2082 56.5603C2.02936 56.4234 1.88404 56.2477 1.78328 56.0463C1.68251 55.8449 1.62895 55.6232 1.62666 55.398C1.62437 55.1728 1.67341 54.9501 1.77006 54.7467C1.86671 54.5433 2.00843 54.3646 2.18445 54.2242L2.57706 53.9936L15.1813 46.7072C15.7336 47.6657 16.0233 48.753 16.021 49.8593Z" fill="currentColor"/>
  <path d="M34.7324 35.4373C34.2324 34.5707 33.5343 33.8348 32.6953 33.2898L32.1196 32.9573L21.5791 26.8711C21.4925 26.8319 21.4072 26.79 21.322 26.7467L21.2787 26.7243C21.125 26.6433 20.9755 26.5567 20.8302 26.4645L20.8134 26.4547L20.7855 26.4365C20.7044 26.3834 20.6248 26.3303 20.5466 26.2731H20.5396C19.8026 25.7505 19.1869 25.0752 18.7344 24.2932C18.7326 24.2887 18.7302 24.2845 18.7274 24.2806L18.712 24.2541L18.705 24.2471C18.1611 23.2964 17.8759 22.2197 17.8779 21.1244V1.70319V1.47824C17.8504 1.10425 17.6824 0.7545 17.4077 0.499225C17.133 0.24395 16.7719 0.102045 16.3969 0.101997C16.1852 0.10374 15.9764 0.151411 15.7849 0.241718L15.5334 0.381438L3.70603 7.21377L2.99625 7.62176C2.13102 8.19794 1.42162 8.97905 0.93117 9.8956C0.440718 10.8122 0.184418 11.8357 0.185074 12.8752V31.3184C0.18262 32.424 0.471783 33.5108 1.0234 34.4691V34.4816C1.52694 35.3505 2.23 36.0871 3.0745 36.6305L3.61521 36.9435L14.431 43.1862C14.6168 43.2826 14.7984 43.386 14.9731 43.4992L14.9927 43.5104C15.8277 44.0539 16.5231 44.7862 17.0228 45.6481C17.5747 46.6068 17.8638 47.694 17.8611 48.8002V64.6291C18.883 64.6317 19.8901 64.3852 20.7953 63.911L21.2493 63.6483L32.0721 57.4L32.7064 57.0325C33.5844 56.459 34.3055 55.6756 34.8045 54.7532C35.3034 53.8307 35.5643 52.7984 35.5637 51.7497V38.588C35.5683 37.483 35.2816 36.3963 34.7324 35.4373Z" fill="currentColor"/>
  </g>
  <defs>
    <clipPath id="clip0_1281_165">
      <rect width="266.028" height="70" fill="currentColor" transform="translate(0.168213)"/>
    </clipPath>
  </defs>
</svg>
