<svg viewBox="0 0 187 70" xmlns="http://www.w3.org/2000/svg">
  <g clip-path="url(#clip0_1275_141)">
    <path d="M16.565 40.3095C15.1647 41.1015 12.927 42.2396 10.74 42.32C7.53028 42.4354 7.60371 39.3218 7.60371 37.2537C7.60371 35.0072 8.65963 34.3009 11.0931 34.3009H16.5668V40.3095H16.565ZM23.9827 27.6018C23.9827 20.1841 21.2468 16.901 11.9445 16.901C8.66138 16.901 4.58804 17.4482 1.7909 18.2996L2.70172 23.9533C5.31705 23.4061 8.23481 23.0425 10.9096 23.0425C15.6525 23.0425 16.565 23.8711 16.565 27.156V28.6769H9.09668C3.07759 28.6769 0.818897 32.8936 0.818897 38.911C0.818897 44.0227 3.12654 47.7307 8.54075 47.7307C11.5197 47.7307 14.6822 46.8776 17.357 45.1154L17.9549 47.3443H23.9845V27.6018H23.9827Z" fill="currentColor"/>
    <path d="M47.7112 38.6785C46.1133 40.154 43.4718 41.3829 41.0138 41.3829C38.2499 41.3829 37.3285 40.0316 37.3285 37.5718V27.0039C37.3285 24.3012 38.3722 23.3396 41.0767 23.3396C43.227 23.3396 45.7462 23.7085 47.7112 24.1386V38.6785ZM29.834 37.3865C29.834 44.2046 33.0279 47.7692 39.0488 47.7692C42.7987 47.7692 45.8703 46.5402 48.5136 44.6346L49.316 47.3898H55.2093V4.62329L47.7147 5.66872V17.8118C45.3791 17.3188 42.3686 16.9517 39.7271 16.9517C32.7867 16.9517 29.8375 20.5547 29.8375 27.1875V37.3865H29.834Z" fill="currentColor"/>
    <path d="M159.294 28.3273V36.2939C159.294 39.64 157.772 41.4057 153.817 41.4057C149.868 41.4057 148.347 39.64 148.347 36.2939V28.3273C148.347 24.983 149.868 23.219 153.817 23.219C157.772 23.219 159.294 24.983 159.294 28.3273ZM166.714 36.0526V28.572C166.714 22.49 163.978 16.8957 153.819 16.8957C143.664 16.8957 140.929 22.49 140.929 28.572V36.0526C140.929 42.1347 143.664 47.7307 153.819 47.7307C163.976 47.729 166.714 42.1329 166.714 36.0526Z" fill="currentColor"/>
    <path d="M110.577 38.0089C110.29 31.9496 109.449 30.8954 101.107 29.1035C97.0614 28.2609 96.8709 28.0878 96.759 25.7242C96.6733 23.9061 97.1821 23.1526 100.394 23.0022C102.696 22.8921 106.292 23.1491 108.556 23.4673L109.003 17.5548C106.428 17.0076 102.838 16.8136 100.109 16.9412C91.6892 17.3398 89.2032 20.067 89.483 26.0074C89.7522 31.7031 90.6857 33.481 97.9793 34.8971C102.82 35.8219 103.226 36.7135 103.315 38.5334C103.421 40.7763 102.97 41.5245 99.696 41.6819C96.6681 41.8252 93.3692 41.4319 90.8518 40.8218L90.0861 46.507C92.8605 47.3496 97.1943 47.8723 100.345 47.722C109.253 47.3024 110.848 43.7081 110.577 38.0089Z" fill="currentColor"/>
    <path d="M136.485 38.0124C136.197 31.9513 135.36 30.8972 127.015 29.1035C122.97 28.2626 122.778 28.0895 122.666 25.726C122.58 23.9078 123.092 23.1526 126.302 23.0022C128.606 22.8921 132.201 23.1491 134.463 23.4673L134.914 17.5566C132.335 17.0094 128.744 16.8136 126.019 16.9412C117.596 17.3398 115.113 20.0687 115.393 26.0074C115.662 31.7031 116.596 33.481 123.888 34.8971C128.729 35.8219 129.136 36.7135 129.222 38.5334C129.328 40.7763 128.877 41.528 125.606 41.6819C122.578 41.8252 119.278 41.4319 116.759 40.8218L115.993 46.507C118.767 47.3496 123.103 47.8723 126.253 47.7255C135.16 47.3024 136.753 43.7081 136.485 38.0124Z" fill="currentColor"/>
    <path d="M68.4799 27.7329C68.4799 24.9323 69.7561 22.9865 73.4064 22.9865C77.0549 22.9865 77.9063 24.9323 77.9063 27.7329V29.1927H68.4782V27.7329H68.4799ZM68.4799 36.6768V35.1541H84.9621V28.8273C84.9621 22.4393 82.8328 16.9045 73.3452 16.9045C63.8559 16.9045 61.0588 22.1963 61.0588 28.4619V36.3114C61.0588 43.4266 64.2825 47.7464 73.5882 47.7464C77.1161 47.7464 80.0653 47.4178 83.4114 46.1416L84.1981 40.5893C80.2646 41.6819 77.2769 42.2623 74.3627 41.9721C69.882 41.5263 68.4799 40.2658 68.4799 36.6768Z" fill="currentColor"/>
    <path d="M183.323 0.305214V51.6764L165.044 69.4662H169.119L186.091 52.8407V0.305214H183.323Z" fill="currentColor"/>
  </g>
  <defs>
    <clipPath id="clip0_1275_141">
      <rect width="186.667" height="70" fill="currentColor" transform="translate(0.0219574)"/>
    </clipPath>
  </defs>
</svg>
