<svg viewBox="0 0 512 64" xmlns="http://www.w3.org/2000/svg">
  <path d="M94.7969 48.5703V14.2109H119.641V18.2656H99.3438V28.7891H118.352V32.8203H99.3438V44.5156H120.438V48.5703H94.7969Z" fill="currentColor"/>
  <path d="M126.18 48.5703V23.6797H129.977V27.2188C131.805 24.4844 134.445 23.1172 137.898 23.1172C139.398 23.1172 140.773 23.3906 142.023 23.9375C143.289 24.4688 144.234 25.1719 144.859 26.0469C145.484 26.9219 145.922 27.9609 146.172 29.1641C146.328 29.9453 146.406 31.3125 146.406 33.2656V48.5703H142.188V33.4297C142.188 31.7109 142.023 30.4297 141.695 29.5859C141.367 28.7266 140.781 28.0469 139.938 27.5469C139.109 27.0312 138.133 26.7734 137.008 26.7734C135.211 26.7734 133.656 27.3438 132.344 28.4844C131.047 29.625 130.398 31.7891 130.398 34.9766V48.5703H126.18Z" fill="currentColor"/>
  <path d="M169.938 40.5547L174.297 41.0938C173.609 43.6406 172.336 45.6172 170.477 47.0234C168.617 48.4297 166.242 49.1328 163.352 49.1328C159.711 49.1328 156.82 48.0156 154.68 45.7812C152.555 43.5312 151.492 40.3828 151.492 36.3359C151.492 32.1484 152.57 28.8984 154.727 26.5859C156.883 24.2734 159.68 23.1172 163.117 23.1172C166.445 23.1172 169.164 24.25 171.273 26.5156C173.383 28.7812 174.438 31.9688 174.438 36.0781C174.438 36.3281 174.43 36.7031 174.414 37.2031H155.852C156.008 39.9375 156.781 42.0312 158.172 43.4844C159.562 44.9375 161.297 45.6641 163.375 45.6641C164.922 45.6641 166.242 45.2578 167.336 44.4453C168.43 43.6328 169.297 42.3359 169.938 40.5547ZM156.086 33.7344H169.984C169.797 31.6406 169.266 30.0703 168.391 29.0234C167.047 27.3984 165.305 26.5859 163.164 26.5859C161.227 26.5859 159.594 27.2344 158.266 28.5312C156.953 29.8281 156.227 31.5625 156.086 33.7344Z" fill="currentColor"/>
  <path d="M179.57 48.5703V23.6797H183.367V27.4531C184.336 25.6875 185.227 24.5234 186.039 23.9609C186.867 23.3984 187.773 23.1172 188.758 23.1172C190.18 23.1172 191.625 23.5703 193.094 24.4766L191.641 28.3906C190.609 27.7812 189.578 27.4766 188.547 27.4766C187.625 27.4766 186.797 27.7578 186.062 28.3203C185.328 28.8672 184.805 29.6328 184.492 30.6172C184.023 32.1172 183.789 33.7578 183.789 35.5391V48.5703H179.57Z" fill="currentColor"/>
  <path d="M194.828 50.6328L198.93 51.2422C199.102 52.5078 199.578 53.4297 200.359 54.0078C201.406 54.7891 202.836 55.1797 204.648 55.1797C206.602 55.1797 208.109 54.7891 209.172 54.0078C210.234 53.2266 210.953 52.1328 211.328 50.7266C211.547 49.8672 211.648 48.0625 211.633 45.3125C209.789 47.4844 207.492 48.5703 204.742 48.5703C201.32 48.5703 198.672 47.3359 196.797 44.8672C194.922 42.3984 193.984 39.4375 193.984 35.9844C193.984 33.6094 194.414 31.4219 195.273 29.4219C196.133 27.4062 197.375 25.8516 199 24.7578C200.641 23.6641 202.562 23.1172 204.766 23.1172C207.703 23.1172 210.125 24.3047 212.031 26.6797V23.6797H215.922V45.1953C215.922 49.0703 215.523 51.8125 214.727 53.4219C213.945 55.0469 212.695 56.3281 210.977 57.2656C209.273 58.2031 207.172 58.6719 204.672 58.6719C201.703 58.6719 199.305 58 197.477 56.6562C195.648 55.3281 194.766 53.3203 194.828 50.6328ZM198.32 35.6797C198.32 38.9453 198.969 41.3281 200.266 42.8281C201.562 44.3281 203.188 45.0781 205.141 45.0781C207.078 45.0781 208.703 44.3359 210.016 42.8516C211.328 41.3516 211.984 39.0078 211.984 35.8203C211.984 32.7734 211.305 30.4766 209.945 28.9297C208.602 27.3828 206.977 26.6094 205.07 26.6094C203.195 26.6094 201.602 27.375 200.289 28.9062C198.977 30.4219 198.32 32.6797 198.32 35.6797Z" fill="currentColor"/>
  <path d="M222.344 19.0625V14.2109H226.562V19.0625H222.344ZM222.344 48.5703V23.6797H226.562V48.5703H222.344Z" fill="currentColor"/>
  <path d="M250.047 40.5547L254.406 41.0938C253.719 43.6406 252.445 45.6172 250.586 47.0234C248.727 48.4297 246.352 49.1328 243.461 49.1328C239.82 49.1328 236.93 48.0156 234.789 45.7812C232.664 43.5312 231.602 40.3828 231.602 36.3359C231.602 32.1484 232.68 28.8984 234.836 26.5859C236.992 24.2734 239.789 23.1172 243.227 23.1172C246.555 23.1172 249.273 24.25 251.383 26.5156C253.492 28.7812 254.547 31.9688 254.547 36.0781C254.547 36.3281 254.539 36.7031 254.523 37.2031H235.961C236.117 39.9375 236.891 42.0312 238.281 43.4844C239.672 44.9375 241.406 45.6641 243.484 45.6641C245.031 45.6641 246.352 45.2578 247.445 44.4453C248.539 43.6328 249.406 42.3359 250.047 40.5547ZM236.195 33.7344H250.094C249.906 31.6406 249.375 30.0703 248.5 29.0234C247.156 27.3984 245.414 26.5859 243.273 26.5859C241.336 26.5859 239.703 27.2344 238.375 28.5312C237.062 29.8281 236.336 31.5625 236.195 33.7344Z" fill="currentColor"/>
  <path d="M264.32 48.5703L256.703 23.6797H261.062L266.5 43.3906C266.562 43.125 266.992 41.4141 267.789 38.2578L271.75 23.6797H276.086L279.812 38.1172L281.055 42.875L282.484 38.0703L286.75 23.6797H290.852L283.07 48.5703H278.688L274.727 33.6641L273.766 29.4219L268.727 48.5703H264.32Z" fill="currentColor"/>
  <path d="M311.453 40.5547L315.812 41.0938C315.125 43.6406 313.852 45.6172 311.992 47.0234C310.133 48.4297 307.758 49.1328 304.867 49.1328C301.227 49.1328 298.336 48.0156 296.195 45.7812C294.07 43.5312 293.008 40.3828 293.008 36.3359C293.008 32.1484 294.086 28.8984 296.242 26.5859C298.398 24.2734 301.195 23.1172 304.633 23.1172C307.961 23.1172 310.68 24.25 312.789 26.5156C314.898 28.7812 315.953 31.9688 315.953 36.0781C315.953 36.3281 315.945 36.7031 315.93 37.2031H297.367C297.523 39.9375 298.297 42.0312 299.688 43.4844C301.078 44.9375 302.812 45.6641 304.891 45.6641C306.438 45.6641 307.758 45.2578 308.852 44.4453C309.945 43.6328 310.812 42.3359 311.453 40.5547ZM297.602 33.7344H311.5C311.312 31.6406 310.781 30.0703 309.906 29.0234C308.562 27.3984 306.82 26.5859 304.68 26.5859C302.742 26.5859 301.109 27.2344 299.781 28.5312C298.469 29.8281 297.742 31.5625 297.602 33.7344Z" fill="currentColor"/>
  <path d="M321.086 48.5703V23.6797H324.883V27.4531C325.852 25.6875 326.742 24.5234 327.555 23.9609C328.383 23.3984 329.289 23.1172 330.273 23.1172C331.695 23.1172 333.141 23.5703 334.609 24.4766L333.156 28.3906C332.125 27.7812 331.094 27.4766 330.062 27.4766C329.141 27.4766 328.312 27.7578 327.578 28.3203C326.844 28.8672 326.32 29.6328 326.008 30.6172C325.539 32.1172 325.305 33.7578 325.305 35.5391V48.5703H321.086Z" fill="currentColor"/>
  <path d="M337.141 48.5703V14.2109H341.359V33.8047L351.344 23.6797H356.805L347.289 32.9141L357.766 48.5703H352.562L344.336 35.8438L341.359 38.7031V48.5703H337.141Z" fill="currentColor"/>
  <path d="M375.086 48.5703V14.2109H390.32C393.383 14.2109 395.711 14.5234 397.305 15.1484C398.898 15.7578 400.172 16.8438 401.125 18.4062C402.078 19.9688 402.555 21.6953 402.555 23.5859C402.555 26.0234 401.766 28.0781 400.188 29.75C398.609 31.4219 396.172 32.4844 392.875 32.9375C394.078 33.5156 394.992 34.0859 395.617 34.6484C396.945 35.8672 398.203 37.3906 399.391 39.2188L405.367 48.5703H399.648L395.102 41.4219C393.773 39.3594 392.68 37.7812 391.82 36.6875C390.961 35.5938 390.188 34.8281 389.5 34.3906C388.828 33.9531 388.141 33.6484 387.438 33.4766C386.922 33.3672 386.078 33.3125 384.906 33.3125H379.633V48.5703H375.086ZM379.633 29.375H389.406C391.484 29.375 393.109 29.1641 394.281 28.7422C395.453 28.3047 396.344 27.6172 396.953 26.6797C397.562 25.7266 397.867 24.6953 397.867 23.5859C397.867 21.9609 397.273 20.625 396.086 19.5781C394.914 18.5312 393.055 18.0078 390.508 18.0078H379.633V29.375Z" fill="currentColor"/>
  <path d="M425.477 48.5703V44.9141C423.539 47.7266 420.906 49.1328 417.578 49.1328C416.109 49.1328 414.734 48.8516 413.453 48.2891C412.188 47.7266 411.242 47.0234 410.617 46.1797C410.008 45.3203 409.578 44.2734 409.328 43.0391C409.156 42.2109 409.07 40.8984 409.07 39.1016V23.6797H413.289V37.4844C413.289 39.6875 413.375 41.1719 413.547 41.9375C413.812 43.0469 414.375 43.9219 415.234 44.5625C416.094 45.1875 417.156 45.5 418.422 45.5C419.688 45.5 420.875 45.1797 421.984 44.5391C423.094 43.8828 423.875 43 424.328 41.8906C424.797 40.7656 425.031 39.1406 425.031 37.0156V23.6797H429.25V48.5703H425.477ZM412.586 18.8047V14H416.992V18.8047H412.586ZM421.328 18.8047V14H425.734V18.8047H421.328Z" fill="currentColor"/>
  <path d="M435.109 50.6328L439.211 51.2422C439.383 52.5078 439.859 53.4297 440.641 54.0078C441.688 54.7891 443.117 55.1797 444.93 55.1797C446.883 55.1797 448.391 54.7891 449.453 54.0078C450.516 53.2266 451.234 52.1328 451.609 50.7266C451.828 49.8672 451.93 48.0625 451.914 45.3125C450.07 47.4844 447.773 48.5703 445.023 48.5703C441.602 48.5703 438.953 47.3359 437.078 44.8672C435.203 42.3984 434.266 39.4375 434.266 35.9844C434.266 33.6094 434.695 31.4219 435.555 29.4219C436.414 27.4062 437.656 25.8516 439.281 24.7578C440.922 23.6641 442.844 23.1172 445.047 23.1172C447.984 23.1172 450.406 24.3047 452.312 26.6797V23.6797H456.203V45.1953C456.203 49.0703 455.805 51.8125 455.008 53.4219C454.227 55.0469 452.977 56.3281 451.258 57.2656C449.555 58.2031 447.453 58.6719 444.953 58.6719C441.984 58.6719 439.586 58 437.758 56.6562C435.93 55.3281 435.047 53.3203 435.109 50.6328ZM438.602 35.6797C438.602 38.9453 439.25 41.3281 440.547 42.8281C441.844 44.3281 443.469 45.0781 445.422 45.0781C447.359 45.0781 448.984 44.3359 450.297 42.8516C451.609 41.3516 452.266 39.0078 452.266 35.8203C452.266 32.7734 451.586 30.4766 450.227 28.9297C448.883 27.3828 447.258 26.6094 445.352 26.6094C443.477 26.6094 441.883 27.375 440.57 28.9062C439.258 30.4219 438.602 32.6797 438.602 35.6797Z" fill="currentColor"/>
  <path d="M479.641 40.5547L484 41.0938C483.312 43.6406 482.039 45.6172 480.18 47.0234C478.32 48.4297 475.945 49.1328 473.055 49.1328C469.414 49.1328 466.523 48.0156 464.383 45.7812C462.258 43.5312 461.195 40.3828 461.195 36.3359C461.195 32.1484 462.273 28.8984 464.43 26.5859C466.586 24.2734 469.383 23.1172 472.82 23.1172C476.148 23.1172 478.867 24.25 480.977 26.5156C483.086 28.7812 484.141 31.9688 484.141 36.0781C484.141 36.3281 484.133 36.7031 484.117 37.2031H465.555C465.711 39.9375 466.484 42.0312 467.875 43.4844C469.266 44.9375 471 45.6641 473.078 45.6641C474.625 45.6641 475.945 45.2578 477.039 44.4453C478.133 43.6328 479 42.3359 479.641 40.5547ZM465.789 33.7344H479.688C479.5 31.6406 478.969 30.0703 478.094 29.0234C476.75 27.3984 475.008 26.5859 472.867 26.5859C470.93 26.5859 469.297 27.2344 467.969 28.5312C466.656 29.8281 465.93 31.5625 465.789 33.7344Z" fill="currentColor"/>
  <path d="M489.32 48.5703V23.6797H493.117V27.2188C494.945 24.4844 497.586 23.1172 501.039 23.1172C502.539 23.1172 503.914 23.3906 505.164 23.9375C506.43 24.4688 507.375 25.1719 508 26.0469C508.625 26.9219 509.062 27.9609 509.312 29.1641C509.469 29.9453 509.547 31.3125 509.547 33.2656V48.5703H505.328V33.4297C505.328 31.7109 505.164 30.4297 504.836 29.5859C504.508 28.7266 503.922 28.0469 503.078 27.5469C502.25 27.0312 501.273 26.7734 500.148 26.7734C498.352 26.7734 496.797 27.3438 495.484 28.4844C494.188 29.625 493.539 31.7891 493.539 34.9766V48.5703H489.32Z" fill="currentColor"/>
  <path d="M47.9883 34.1563C47.4647 34.1573 46.9559 34.3316 46.5398 34.6525C46.1236 34.9733 45.8231 35.423 45.6841 35.9328C43.9766 42.1269 38.3502 46.6719 31.672 46.6719C24.9938 46.6719 19.3674 42.1269 17.6599 35.9328C17.5209 35.423 17.2204 34.9733 16.8042 34.6525C16.3881 34.3316 15.8793 34.1573 15.3557 34.1563H1.94207C1.6971 34.1562 1.45493 34.2089 1.2317 34.3108C1.00847 34.4127 0.8093 34.5615 0.64745 34.7472C0.485601 34.9329 0.364788 35.1513 0.293056 35.3879C0.221324 35.6244 0.20032 35.8737 0.231442 36.1191C2.23976 51.8475 15.5491 64 31.6714 64C47.7936 64 61.1036 51.8475 63.1113 36.1191C63.1424 35.8737 63.1214 35.6244 63.0497 35.3879C62.978 35.1513 62.8572 34.9329 62.6953 34.7472C62.5335 34.5615 62.3343 34.4127 62.1111 34.3108C61.8878 34.2089 61.6457 34.1562 61.4007 34.1563H47.9883Z" fill="currentColor"/>
  <path d="M31.6721 42.2188C37.2692 42.2188 41.8065 37.6367 41.8065 31.9844C41.8065 26.3321 37.2692 21.75 31.6721 21.75C26.075 21.75 21.5377 26.3321 21.5377 31.9844C21.5377 37.6367 26.075 42.2188 31.6721 42.2188Z" fill="currentColor"/>
  <path d="M21.5487 21.8513C22.7006 20.6836 20.8713 16.9574 17.4629 13.5286C14.0546 10.0998 10.3578 8.26686 9.20589 9.43457C8.05402 10.6023 9.88327 14.3285 13.2916 17.7573C16.7 21.1861 20.3968 23.019 21.5487 21.8513Z" fill="currentColor"/>
  <path d="M27.936 18.1096C29.5117 17.68 29.7724 13.5293 28.5183 8.83893C27.2643 4.14852 24.9703 0.694491 23.3946 1.12414C21.8189 1.55379 21.5581 5.70441 22.8122 10.3948C24.0663 15.0852 26.3603 18.5393 27.936 18.1096Z" fill="currentColor"/>
  <path d="M40.4174 10.3595C41.6537 5.66425 41.3772 1.51467 39.7999 1.09113C38.2225 0.667597 35.9417 4.1305 34.7054 8.82574C33.4692 13.521 33.7457 17.6706 35.323 18.0941C36.9004 18.5176 39.1812 15.0547 40.4174 10.3595Z" fill="currentColor"/>
  <path d="M49.9665 17.6855C53.3618 14.2435 55.1769 10.5103 54.0206 9.34705C52.8643 8.18382 49.1745 10.0311 45.7792 13.4731C42.3838 16.9151 40.5688 20.6483 41.7251 21.8116C42.8814 22.9748 46.5712 21.1275 49.9665 17.6855Z" fill="currentColor"/>
  <path d="M54.6079 28.8512C59.2525 27.5847 62.6728 25.2681 62.2474 23.6769C61.8219 22.0856 57.7118 21.8223 53.0672 23.0888C48.4226 24.3552 45.0023 26.6718 45.4278 28.2631C45.8532 29.8543 49.9633 30.1176 54.6079 28.8512Z" fill="currentColor"/>
  <path d="M17.8698 28.3174C18.2892 26.7245 14.8601 24.4212 10.2107 23.1728C5.56129 21.9243 1.45222 22.2036 1.03283 23.7965C0.613427 25.3893 4.04251 27.6927 8.6919 28.9411C13.3413 30.1895 17.4504 29.9103 17.8698 28.3174Z" fill="currentColor"/>
</svg>
