<svg viewBox="0 0 512 114" xmlns="http://www.w3.org/2000/svg">
  <path d="M4 93.4395H51.6136V80.7324H19.4119V19.7992H4V93.4395Z" fill="currentColor"/>
  <path d="M60.7485 93.4395H93.3584C109.077 93.4395 118.824 85.3763 118.824 72.465V72.363C118.824 62.7178 111.424 55.4711 101.166 54.7056V54.3994C109.281 53.3277 115.405 46.4383 115.405 38.3751V38.2731C115.405 26.9438 106.678 19.7992 92.7971 19.7992H60.7485V93.4395ZM88.8165 31.2305C96.0122 31.2305 100.248 34.5987 100.248 40.4675V40.5695C100.248 46.9486 95.6039 50.572 86.9283 50.572H76.1604V31.2305H88.8165ZM88.7655 61.0337C98.2066 61.0337 103.106 64.657 103.106 71.3934V71.4954C103.106 78.3338 98.2576 81.9572 89.4289 81.9572H76.1604V61.0337H88.7655Z" fill="currentColor"/>
  <path d="M145.208 93.4395H160.62V32.5064H181.951V19.7992H123.927V32.5064H145.208V93.4395Z" fill="currentColor"/>
  <path d="M211.193 93.4395H226.605V66.7494H238.955L252.683 93.4395H270.136L254.622 64.4529C262.787 61.2378 267.942 53.1746 267.942 43.4784V43.3763C267.942 28.5768 258.143 19.7992 241.609 19.7992H211.193V93.4395ZM226.605 55.0629V31.8429H239.721C247.324 31.8429 252.173 36.3338 252.173 43.3763V43.4784C252.173 50.7251 247.58 55.0629 239.925 55.0629H226.605Z" fill="currentColor"/>
  <path d="M290.957 31.4857C295.091 31.4857 298.306 28.2706 298.306 24.3411C298.306 20.4116 295.091 17.1965 290.957 17.1965C286.824 17.1965 283.609 20.4116 283.609 24.3411C283.609 28.2706 286.824 31.4857 290.957 31.4857ZM313.004 31.4857C317.188 31.4857 320.352 28.2706 320.352 24.3411C320.352 20.4116 317.188 17.1965 313.004 17.1965C308.921 17.1965 305.706 20.4116 305.706 24.3411C305.706 28.2706 308.921 31.4857 313.004 31.4857ZM295.499 94.5623C303.767 94.5623 309.38 90.6838 312.187 84.4067H312.493V93.4395H327.395V38.7324H312.493V70.1686C312.493 77.3132 308.258 82.2123 301.572 82.2123C294.887 82.2123 291.519 78.0787 291.519 70.9341V38.7324H276.617V74.0471C276.617 86.8563 283.456 94.5623 295.499 94.5623Z" fill="currentColor"/>
  <path d="M362.659 112.424C379.091 112.424 389.349 104.105 389.349 91.9085V38.7324H374.447V48.0714H374.141C371.181 41.6923 365.21 37.6096 357.504 37.6096C343.674 37.6096 335.101 47.9693 335.101 65.4225V65.4736C335.101 82.4675 343.572 92.674 357.249 92.674C365.159 92.674 371.283 89.0507 374.141 83.335H374.447V91.7044C374.447 97.8284 370.365 101.809 362.659 101.809C356.433 101.809 352.452 99.4614 351.278 96.7567L351.125 96.3994H336.632L336.683 96.8587C338.112 105.636 347.604 112.424 362.659 112.424ZM362.403 81.753C354.953 81.753 350.258 75.6801 350.258 65.8308V65.7798C350.258 55.9815 355.004 49.9596 362.403 49.9596C369.65 49.9596 374.498 56.0325 374.498 65.7798V65.8308C374.498 75.6291 369.701 81.753 362.403 81.753Z" fill="currentColor"/>
  <path d="M424.051 94.5623C439.667 94.5623 447.22 85.3253 448.904 77.2621L449.057 76.7008H435.38L435.278 77.007C434.207 80.0689 430.481 83.4371 424.357 83.4371C416.753 83.4371 412.007 78.3338 411.854 69.6072H449.516V65.0143C449.516 48.4796 439.463 37.6096 423.439 37.6096C407.414 37.6096 397.157 48.7348 397.157 66.137V66.188C397.157 83.6923 407.312 94.5623 424.051 94.5623ZM423.694 48.7348C429.869 48.7348 434.309 52.6643 435.227 60.2172H412.007C412.977 52.8174 417.57 48.7348 423.694 48.7348Z" fill="currentColor"/>
  <path d="M457.222 93.4395H472.124V62.0033C472.124 54.8587 476.36 49.9596 483.045 49.9596C489.73 49.9596 493.098 54.0422 493.098 61.1868V93.4395H508V58.1248C508 45.3156 501.162 37.6096 489.118 37.6096C480.851 37.6096 475.237 41.4371 472.43 47.7141H472.124V38.7324H457.222V93.4395Z" fill="currentColor"/>
</svg>
