<svg xmlns="http://www.w3.org/2000/svg" viewBox="0 0 2048 224">
  <g fill="currentColor">
    <path d="M15.71,201.49c1.28-19.13,8.16-162.44,9.44-188.7h.51c7.14,8.16,130.56,136.43,138.72,144.59,0-7.14,1.53-127.25,1.79-135.66l23.72,1.27c-1.02,15.3-5.87,119.6-6.89,183.86h-.51c-6.89-6.88-135.92-139.23-140.51-145.61h-.51c0,8.92-2.04,133.62-1.79,142.04l-23.97-1.79Z"/>
    <path d="M334.21,203.79c-7.65,0-77.52-2.29-82.11-2.29,.77-11.48,.77-57.89,.77-62.99v-28.82c0-3.57-.51-55.85-.77-59.93,5.61,0,66.05-3.31,77.52-4.08l1.02,18.36c-9.95,0-51.77,1.02-55.59,1.02v53.04c4.33,0,33.92-1.02,47.94-2.29l.77,18.62c-3.83,0-14.79-.25-25.5-.51-10.46,0-20.66-.25-23.21-.25v51.51c5.61,0,36.72,.51,58.4-.77l.77,19.38Z"/>
    <path d="M594.05,57.41c-2.04,5.61-57.38,131.84-63.75,144.33h-1.02c-8.67-15.3-48.2-77.27-54.32-87.98-9.18,16.32-45.9,79.31-55.59,95.37h-1.02c-7.14-17.34-47.94-128.78-56.87-153.51l21.93-8.67c7.4,24.99,36.47,108.63,40.29,120.11,6.38-11.73,35.7-62.22,52.02-91.29h.51c14.28,24.48,40.8,66.05,52.79,86.7,3.83-10.71,39.78-101.49,43.61-113.73l21.42,8.67Z"/>
    <path d="M829.92,203.02c-7.65,1.53-19.38,2.55-34.68,2.55-86.96,0-108.63-52.02-108.63-75.48,0-41.82,38.51-95.12,128.52-111.18l3.83,21.42c-58.4,6.63-106.59,41.57-106.59,85.43,0,31.11,24.48,60.44,85.43,60.44,10.2,0,20.91-1.53,29.58-3.57l2.55,20.4Z"/>
    <path d="M895.45,135.19c0,8.16,.77,62.99,1.27,66.3h-23.97c.77-5.1,.51-73.95,.51-78.54v-17.59c0-6.63-.51-51.51-1.27-55.59,10.96,0,31.11-.51,50.49,1.79,30.6,3.57,48.45,16.07,48.45,34.94,0,17.85-13.77,33.15-32.9,44.37,5.87,7.91,46.92,52.79,53.55,59.16l-17.6,15.56c-2.55-3.06-55.08-67.32-61.97-76.5,11.48-5.87,34.68-17.59,34.68-39.27,0-10.2-7.91-23.21-51.26-23.46v68.85Z"/>
    <path d="M1111.69,203.79c-7.65,0-77.52-2.29-82.11-2.29,.77-11.48,.77-57.89,.77-62.99v-28.82c0-3.57-.51-55.85-.77-59.93,5.61,0,66.05-3.31,77.52-4.08l1.02,18.36c-9.95,0-51.77,1.02-55.59,1.02v53.04c4.33,0,33.92-1.02,47.94-2.29l.77,18.62c-3.83,0-14.79-.25-25.5-.51-10.46,0-20.66-.25-23.21-.25v51.51c5.61,0,36.72,.51,58.4-.77l.77,19.38Z"/>
    <path d="M1134.9,194.86c12.24-21.68,78.54-144.33,83.64-152.75h.51c19.64,30.86,74.72,128.52,89.76,151.22l-20.66,12.5c-4.08-8.16-28.05-51-30.35-54.83l-78.8,3.06c-3.06,6.88-20.91,44.62-24.48,52.02l-19.64-11.22Zm115.01-59.42c-2.55-4.84-29.33-53.81-31.62-57.38-3.31,5.1-28.56,56.36-30.6,59.93l62.22-2.55Z"/>
    <path d="M1358.02,201.49c1.28-5.61,1.53-68.85,1.53-103.28v-30.35c-26.27,0-59.16,1.02-62.48,2.04v-20.66c6.63,1.79,61.46,2.55,64.01,2.55h20.4c4.33,0,54.83-.76,62.22-2.55v20.66c-.51-1.02-43.35-2.04-61.97-2.04v33.66c0,44.12,2.29,95.63,2.8,99.96h-26.52Z"/>
    <path d="M1498.27,135.96c0,21.67,.76,60.44,1.02,65.54h-23.97c.51-9.44,.77-60.18,.77-65.79v-23.46c0-3.83-.77-57.38-1.27-62.48h24.74c-.51,3.83-1.27,36.72-1.27,62.73v23.46Z"/>
    <path d="M1543.91,133.4c0-48.2,35.45-87.21,91.55-87.21,44.88,0,77.78,27.29,77.78,73.95,0,33.92-23.97,84.92-90.78,84.92-50.75,0-78.54-33.41-78.54-71.66Zm145.61-12.24c0-38.76-27.03-58.14-57.38-58.14-40.55,0-64.77,30.09-64.77,67.07,0,32.39,21.68,58.14,57.12,58.14s65.03-24.23,65.03-67.07Z"/>
    <path d="M1750.72,201.49c1.27-16.32,7.65-137.96,8.67-160.4h1.27c6.63,7.14,112.97,114.24,120.11,121.13,0-6.12,.51-106.34,.77-113.48l22.7,1.02c-1.02,13.01-5.36,101.75-6.38,156.32h-1.02c-6.63-5.87-118.32-117.3-121.13-120.36h-.51c.51,4.08-1.27,110.16-1.02,117.3l-23.46-1.53Z"/>
    <path d="M1956.5,187.72c23.46-4.59,53.3-14.03,53.3-31.37,0-11.22-7.9-16.58-24.74-24.74-19.89-9.69-34.43-18.87-34.43-34.68,0-24.23,35.45-45.39,68.34-51.26l4.84,17.85c-15.04,2.29-49.73,10.97-49.73,29.84,0,11.73,16.58,17.59,26.52,23.21,17.6,9.69,32.9,16.58,32.9,34.68,0,22.44-25.76,45.14-71.15,54.32l-5.87-17.85Z"/>
  </g>
</svg>
