<svg viewBox="0 0 129 129" xmlns="http://www.w3.org/2000/svg">
  <path d="M92.6563 99.7328L97.5173 106.247H104.23L98.4431 98.6416C101.188 97.2858 102.742 94.7396 102.742 91.6643C102.742 89.2504 101.882 87.3324 100.196 85.9105C98.5093 84.4886 96.2276 83.7611 93.4169 83.7611H83.5958V106.247H89.1842V99.7328H92.6563ZM89.1842 94.7065V88.6882H93.3177C95.5332 88.6882 97.1535 89.9117 97.1535 91.6643C97.1535 93.483 95.5332 94.7065 93.3177 94.7065H89.1842Z" fill="currentColor"/>
  <path d="M61.6462 88.6221H73.0545V83.7611H56.0577V106.247H73.0545V101.386H61.6462V97.4842H71.6326V92.7225H61.6462V88.6221Z" fill="currentColor"/>
  <path d="M25.3183 83.7611V106.247H34.3458C37.884 106.247 40.794 105.189 43.0757 103.106C45.3573 100.989 46.4816 98.2778 46.4816 94.938C46.4816 91.6643 45.3573 88.9858 43.0757 86.9026C40.794 84.8193 37.884 83.7611 34.3458 83.7611H25.3183ZM30.9067 101.221V88.7874H34.3458C36.1645 88.7874 37.7187 89.3826 38.9422 90.5731C40.1657 91.7304 40.794 93.1854 40.794 94.938C40.794 96.7237 40.1657 98.2117 38.9422 99.4352C37.7187 100.626 36.1645 101.221 34.3458 101.221H30.9067Z" fill="currentColor"/>
  <path d="M92.5564 69.0741L97.4174 75.5884H104.13L98.3433 67.9828C101.088 66.6271 102.642 64.0809 102.642 61.0056C102.642 58.5916 101.782 56.6737 100.096 55.2518C98.4094 53.8299 96.1277 53.1024 93.317 53.1024H83.4959V75.5884H89.0843V69.0741H92.5564ZM89.0843 64.0478V58.0295H93.2178C95.4333 58.0295 97.0536 59.253 97.0536 61.0056C97.0536 62.8243 95.4333 64.0478 93.2178 64.0478H89.0843Z" fill="currentColor"/>
  <path d="M69.9762 71.7195L71.4973 75.5884H77.4495L67.926 52.9701H62.569L53.0125 75.5884H58.9646L60.4527 71.7195H69.9762ZM68.1244 66.9577H62.3045L65.2144 59.4844L68.1244 66.9577Z" fill="currentColor"/>
  <path d="M27.1796 56.0454C24.8979 58.294 23.7736 61.0717 23.7736 64.3454C23.7736 67.6191 24.8979 70.3968 27.1796 72.6785C29.4613 74.9271 32.3051 76.0514 35.678 76.0514C39.0509 76.0514 41.8616 74.9271 44.1433 72.6785C46.425 70.3968 47.5824 67.6191 47.5824 64.3454C47.5824 61.0717 46.425 58.294 44.1433 56.0454C41.8616 53.7637 39.0509 52.6394 35.678 52.6394C32.3051 52.6394 29.4613 53.7637 27.1796 56.0454ZM31.2139 68.9749C30.0234 67.6852 29.4282 66.1641 29.4282 64.3454C29.4282 62.5267 30.0234 61.0056 31.2139 59.749C32.4043 58.4594 33.8923 57.8311 35.678 57.8311C37.4636 57.8311 38.9517 58.4594 40.1421 59.749C41.3326 61.0056 41.9278 62.5267 41.9278 64.3454C41.9278 66.1641 41.3326 67.6852 40.1421 68.9749C38.9517 70.2314 37.4636 70.8597 35.678 70.8597C33.8923 70.8597 32.4043 70.2314 31.2139 68.9749Z" fill="currentColor"/>
  <path d="M99.22 33.1323C101.105 32.4709 102.328 30.3546 102.328 28.2052C102.328 24.5016 99.4846 22.2199 94.6236 22.2199H83.5129V44.706H95.285C100.278 44.706 103.32 42.2589 103.32 38.4562C103.32 35.9099 101.865 33.6944 99.22 33.1323ZM89.1013 26.7833H93.7308C95.9132 26.7833 97.0045 27.5108 97.0045 28.9657C97.0045 30.4538 95.814 31.3797 93.7308 31.3797H89.1013V26.7833ZM89.1013 40.0765V35.6454H94.6567C96.8061 35.6454 97.8642 36.3398 97.8642 37.7287C97.8642 39.1506 96.7399 40.0765 94.5244 40.0765H89.1013Z" fill="currentColor"/>
  <path d="M75.482 22.2199H69.9266V34.8849L59.0804 22.2199H54.8147V44.706H60.4031V32.3717L71.1832 44.706H75.482V22.2199Z" fill="currentColor"/>
  <path d="M27.5025 25.163C25.2209 27.4116 24.0965 30.1892 24.0965 33.4629C24.0965 36.7366 25.2209 39.5143 27.5025 41.796C29.7842 44.0446 32.628 45.1689 36.0009 45.1689C39.3738 45.1689 42.1846 44.0446 44.4662 41.796C46.7479 39.5143 47.9053 36.7366 47.9053 33.4629C47.9053 30.1892 46.7479 27.4116 44.4662 25.163C42.1846 22.8813 39.3738 21.757 36.0009 21.757C32.628 21.757 29.7842 22.8813 27.5025 25.163ZM31.5368 38.0924C30.3463 36.8028 29.7511 35.2817 29.7511 33.4629C29.7511 31.6442 30.3463 30.1231 31.5368 28.8665C32.7272 27.5769 34.2153 26.9486 36.0009 26.9486C37.7866 26.9486 39.2746 27.5769 40.4651 28.8665C41.6555 30.1231 42.2507 31.6442 42.2507 33.4629C42.2507 35.2817 41.6555 36.8028 40.4651 38.0924C39.2746 39.349 37.7866 39.9773 36.0009 39.9773C34.2153 39.9773 32.7272 39.349 31.5368 38.0924Z" fill="currentColor"/>
  <path fill-rule="evenodd" clip-rule="evenodd" d="M122.137 5.86685H5.86685V122.137H122.137V5.86685ZM0 0V128.004H128.004V0H0Z" fill="currentColor"/>
</svg>
